/* XPM */
static char * map_bench_xpm[] = {
"128 128 4 1",
" 	c None",
".	c #000000",
"+	c #FFFFFF",
"@	c #FF9331",
"................................................................................................................................",
".++++@+++@+++++++++++++++++++++++++++++@+++++++++++++++++++++.+++++++@+@+++++@++++@+@++++++.++++++++++++++..++++.++++++++++++++.",
".++++++++++++@+++++++@+++++++++@+@++++++++.+++@+++.+.++++++++.++++++++++++.+++++++++++.++++.+++++.@++@+++++++++@++++.++++++++++.",
".@+++++++@.++++++++++++++++++++++@+++@+@++++++++++.+++++++++++++.+++++@++++++++.++.++++.++++++.+++++++++++++@+++++.++++++++++++.",
".+@+++.+++++++++++++++.++.+++++++++++++++.++++++++.++++++++@++++++++++++++++++++.+++++++@+++.+@++@++++++@++++++++++++++@++++++..",
".++++++++++++@+.+++.++++++++@++.++++++++@+++++++++.++.++++..+++++++.++++++++++++@++.+++++.+++.+++++++++++.+++++++.++.+++@++++++.",
".+++++++++++++++++++++++++++++++++++++++++++@.+++++...++++++++.+++++++++++++++@++@+++++@+++@++++++@+.+++@+.@.+++++++++++@++.++..",
".++++@+++@++@++++++@+++++++++++++++.++++++++++++++++++++++++@++++++++++@+.++++++++++++@+++.++++++++++++++++++++++.+.++++@.+++@+.",
".++@+++@++++++++++++++++.+.++++.++@@++.++.+++++++@++@+++++++++++++++@++++@+++++++++++++++@+++++++++++++++++@+++++++@+++@@++++++.",
".+++.+@+..+++++.+++++++++++++++++++.++.+++.++++++++@+.+.@.++.++++++++.@++@+++.+.@++++++++++++++++++++.+++.++.+++++++@++++++++@..",
".+++@++++++++.++++++++++++@+++++++++@+++++++++++@+++@..@++.+.+++++.+++++++.+++++++++++++.+++.++++++++++++++++++++++++.+++@++++@.",
".++++++.+++++++++@++++.++++++.+++++@+.+++.+.+++++++++++@+@++.+++++++++++...+++.+++++++@.@+++@.++++@++++++++++++++++++++++++++++.",
".+++++++++++++++++++++++++++++@@+++++++.++++++++++++++++++@+++++++++++++.++++++++++.++++..++.++@++++.++++++++.++.+++++++.++++++.",
".++++++@.++++++++++++++++++.+@++++++++++++.++++++.++++++++++.+++.++++++@+++.+@++@++++++++++@++@@+.+++.++@+++++++.+.@++++++++.+@.",
".++@++++++@++++++.+++++.++++++++++++++++++++.++@++.+@++++++@++@+.+++++++++++++++++@++.+++++.+++++++++++++++++++.+++++++++++@+++.",
".+.++++++++++++++++++++.+.++++++.+++++++++...+++@+++++++++.++++++++++.+++++@+++++++++.++++..@+++++++@++++++++.++++.++++++@+.++..",
".++++++++@++++++++@+++++++++.@++++++.+.+++++++++++.+++++++++++++++++++++++.+++.++++++++++++++++@++++++++++@+++++++++++.++++.+++.",
".+@+++++.++++++.++.+++++++@@++@++++++++++++@++++++++++++++@++++++++++++++++++.@++@+++++++.+++++++++++@+++++++@++++@@++.+++++..+.",
".++++++++@++++++++++++@+++@+++..+++++.+++++++++.++++++@++@+++++.+++++++@++.+@@++++++@@@++@+++++++++++++++++++++++++++++++++++++.",
".++++++@+.++++++++++.+++++++++++++++++++++++++++++@+++++++++++.+++++++++++++++@++++++++.+++++++++++.+@+.++@+++++++++++++@++++++.",
"..+++++++.+@++.+++++++++++++@@+++++++++++@+@+++@++++++++++++++++++.@++++@+.+++++.++++.+.++++++++++++.@++++++++++.++.+++++++++++.",
".+++++++@+++++++++++++++++++@+++@@+@++++++++++++.+++++++++.++++++++++++++@++++@.+++++++++++++++++++++@+++.+.+@+.+++++++@+++@+++.",
".+.+++++++++++++++++++++.++++@++++.++.+++++@@+++++++++++++++++++.+++@.++++.+...++++++@++++.@++++@++++.+++@+@++++++++++.++@+@+.+.",
".+++++++@+++++++++++++++++@++++++.+++++@@+.++++.++@++++++++++++++@+++.++++++++++++@.++@+++++++++++++.+++@+++++++.+++.++++++++++.",
".+@++++++++++@@+++++@++++++++..@+.++++++++@+@++++@++++++++++++++++++@+++.+++++++++++++++@+.++++++++++++.+.+++++++++.++++.++..++.",
".++++++++++++++@+++++@++@++++++++++++..+++@++++++.++@++@+@+++@+++@+++.@++++++++++++++++++++++++@++++++++++.+.+.@.+++.+++++++@@+.",
".++.++++++++@+.++.+++++++++@+++++++++++++++++@.+++++.++++++.@+++.+..+++@+++.+.+@+++++.++++++++++++@+++++++++++++@++++++++@+++++.",
".++++++.++++@++++++++++++++++++++++++++++@+@+++++++.@++@@+++++@+++++++++++@@+++++.++++++++++++++@+++++++@+++++@++++++++@+++++@+.",
".++++++++++@++++++++++@++++@+.+++@++++++@+@++.++++++++++++++++++++++++++++++++++++@+++@.+.+++++++++@++++++++++.+.++++++++.@++++.",
".@+.++++++++@+++++.++@++.+++@++++++++++++++++++++++++.++++@+++.+++++@++++++@@+++++++++++.++@.+++...+++.+.++++@+@+.@+++@++++++++.",
"..+++.+++++++.+++++++@.+++@+@++.++++++.+++@++++++.++++++++++++++++++.++++++@@@+@++...+++++++.++++++.++@++@+++++++++.+++++++@+++.",
"..++++@+++++++.++.+++++++++++.@+++.++++.+++++++..+++++++++.++.+.++@@++.++.++++++++++@++++++++++++++++.+++++.++.++++.+++.@++++@..",
".++@++++@++++++++++++++.++@+@+@.++++.++++++@++++@+++++++++++++.++++++.+++.++++.+++++@++++@+++.++++++@+++.++@+.+++..@@++++++++++.",
".++++.+++++@++++.++++++++.++.+++++++@++@+++++.@++++@+++@+++++++++@+++++@++++++++@+++++.++++++++@.++.+++++++++++++++++++@+++++.+.",
".+@..+++++.+@+++.++++++++++++++++@+++++++++++++++++++.++++@..+++++++@+++++++.+@+@.++++++@++@.@+++++++++.+++++++++.+++++++++@+++.",
"..++++++++++++++++++++.@++++++@++++++..++++++++@++++++++++@+++.+...++++++++++.+++@+++@++++++.++++++++++++++++++.++++++++@+++++@.",
"..+++++.+@+++++@++@+.+++++++++++++++@@+.+.@++++++++++++++...+++++.++++++++++@++++++.+++++++++.+++++.+++++++++.++++++++.+++@++@+.",
".++++++++@+.+++@+@+++.+++++++++++++++@+++++@+++.+++++++++++@+++++++++++.@++@++@.@+++...++.+++++@+.++@+++++++@++.++++++@++++++++.",
".+++.+.+++++++++++++.+++++.+@++@@++++++++++++++++++++@++.+++++++@++++++++.++++++++@++.+++@+++++++++.@++++++.++++++@@++@+++@++@+.",
".++++++.+++++@++++.@+++++.+++@.++++++++++@@++++++.++++++++++.+++++++++++..@++++++.++.++++++@@++.@+.@++++++++++.@++.+++@.+.+++++.",
".@++.+++++++++++++++++++++++++.++++++++++.+++++++.++@.++.++++++++++@@+@+++++++++++++@+@++++.@+.++.+++++.+++++@++++++++@++++.+++.",
".+++++@+++@++++++.+@.@++.++++++++@+++++++.+++++++++.++++++@++++++++++@++++++++++++.++.+++++++++@++.++++.++.+@++++++++++++.@@++@.",
".++++.+++.++++@++++++++++.+.++++.++++.+++@++++@+.+++++++++++++.+++++++++++++++++++++++++++.++++++++++++++++@@++++@@+++++@++.+@+.",
".@+..@++.@+++.++++++++++++.++@++++++.++++++.+.++++++..+++@+@++++++++++++++++++++@+++++++@+++++@++++++.+.+@+++.+++++++++++.++.++.",
".+..+++++++++++++++++++++@++++++++@+@@+++++++++++++@+++++++++@++.++@++++++++++++++@+.++++++++++++.+++++++++++@+++++++++...+++++.",
".+++++++@++.++++++++++.+++++++++++.++@++++++.++++++++@+++@@@@.++.++@+.@+@++@+++++++++@++++++++++@++.++.++@+++++++.+++++++@+++++.",
".++@+++++++++.@+++++++++++++++++++++@++.++++.++++@++++++.++@+++.++.+++@.@+++++++++++++++@++++++++++++++++.++++++@+++++++++@++++.",
".@++@+++++++++.++++++++@+++.++++++++++++++@+++@++.++@.+@++++++++++++++++++++++++++.++++++++..++++++++++++@++++++@+++@++++@+++++.",
".+++++@+++++++++++++++++@++++.+++++++++.+++++.++++++@+++++++++++++++++++++++@+++++++.++++++++.+++@.+++++++.++++++++++++.+.+@+++.",
".+++++++++++@+++++++.+.+++++.@+++@++++++++++@+++++++@+@+@++@++.+++++++.+++++.+++++++++++++++++++++++++++++.@+++++++..++++++@+.+.",
".+++++.@.+++++++++++@@++@++.++++.++++@++++++.++++++@+@++++@++.++@@+++++@+@+.++++++++@++++++.+++@++++++++++@+@+++++.@.+++++@++++.",
".+@+++++.+++@+@++@.++++@++++++@+++++@++++++++++@++@+++@+++++++++++++@+++++++++++@+++@+++@++++++++++++++.++++@++.+++++++++++++++.",
".@++++++@++++.+++++++@.+++++++.+@++.+++.+++.+@+.++@+++++.++++++++++++++.+@@.+++++.++++++++++++@+++..++++++++.++++++@++++.++++++.",
".@+++++++@+@+++++++++++++.++++++.++++@++.++++++++@++@.+++++++++++++++@+++++.+++++++@+++++++++@++++++++++++++++++++++.++++++++@+.",
".++@++++++@++.++++.++.+.+++@+++@+++++++++++++++.++.@++++++++++++++++.+++@++@+++++++@+++..+++++++++@+++@+++++@++++++.+++++++@+++.",
".+++@++@+++++++++@+++++@+++++++++++++++++++++++++.++@+.++++++..@++..+++++++++++++++++++++++++@.++.@++++..+++++++++@@+++.++++.+..",
".++.++++++++++++++++.++++@++++.+++++++++++.++++++++.++++.++++@+++++++@++++++++++++++++++++++++..+++++@++++++.++++++++++++++++++.",
".++++++++@.++++++.+++@++++@++.+++++++@++++++++.+.++++@@.+@+@++@+.++++++++.+++++++++.++@+++.++@+++.+++.@++++++@++++++@++@+++++++.",
".+.+++++++@.++++.+++.+++@++@+++.++.+++@+@+++++++++.++@++++++++++++@+++++++++++@@+++++++++++.+++++@++++++++++++@++++++++++++++++.",
".+++++@++++@+@.++++++++++@++.++++++++++@+++@++++++@@+++++++@+++.+++++++++++.+++++++++.++++++++.+@++++++++@+++++@+.++++++++++.++.",
".+++.++++@@++++++++++@+++++++++.++.+++++++++@++@++++++++++.+++++++.++++++++++.+++++++.++++++++@.++++++++++++++++.@+++++@+++.+.+.",
".@.+.++++++.+++++++++@+@@++++++++++++@.++.+++++@+++++++++++.++++++++.++@.++++++..+@++.+@++++++++++++++++.++++++++..++++++++++.+.",
".+++++++++++++++++++++.+++++@++++++++++++.+@+++++++@++.++@.+++++++++@+++++++++++++++++++++@++++++++++@+++++++++@..++++@++++++++.",
".++++++++++++++@++++++++.+++++@.++++++++++++@+++.++@.+++++++@+++.++++++++++++.@+++++@++++@@+.++++++..+.+++++++.+.++++++++++++++.",
".+.++++..+++@@++++++++@++++++@+.++++++++++++++@+++@+@+@+++++++++++++++.++++@.+++.+++@++++++++++.+++.+++.+++++.+..+++++@+++++.+..",
".++++++++++++++.+..++++++++++++++++++++++++.+++++++++++++++++++.++++@+.++++++.++++++++++.++++++@++.+++++@@+++++++++++++++.++.++.",
".++.+++.++++++++@+@++++@++++@+.+++@++++@+++++@++++++@++++.+@+.+++++++++++++++++++@++@+++.++++++++++++++++++++++++++.+++++++.+++.",
".+@+++++++++++++++++++@++++.+++@++.++@++.++++++++++.++++++++++++.++.++@++++++++++.++@+++++++++++++++++++++++++++@+++++++@.++@++.",
".++++++@+++++++++++++++++++++@+@++@+@++++++++++++++++.++++++++++@+++..++@+++++.+++++++++++++++++.++++++++++++++@++++++++++++@@+.",
".+++.+++++++++.+++++++++++++++@+++++++++++++++++++++++@+++.+++++++++++++++.++++++++++++++++@+++++++++++++++++++.+++++++++++++++.",
".+.++++++++++++++@++++++++.+@++++++.+++.+++@++@+++++++++++++.++++++++.+++.+++.++@+.+.+@+++++++.++.++++++++++@+++++++@++++++++++.",
".+++++++++++.++++.++++++.+++++@+++++++.+@++.+..++++++.+++++++++++++++++++@+++++++++.+.++++.+++++++++++++.++++++++++++++++++++++.",
".+++++++.+++..+++@++@+@.+++++++.++++++++++++++++++++++++++++@+++++++..++@@+@+++@@+++@+++++@+.+++.++++++++..++++++++@+++++.+.+++.",
".++++++++@..+++++++..+.+++.++++++@++++++@+++++@@+.+.+.+@++++++++++.++@+++++++++++++++++++++++++++++@++++.++@+@++++++.+.++++++@+.",
".++.++++++++++++@++++@++++++++++.++@+++.++.@+++++++.++@@+@.+++.+++++@++++.++++++++++++++++++++@++++++++++++.+.++@+++@++++++++++.",
".+@+++@+++++++.+++++++@+++++++@+++++++.+@.++@+++@+++++++++++++++++++++.+++.++.++++++++++++++++++++++.++++++@+++.++++++@++.+++.+.",
".+++++++++++++++@+@++++++.+.++++++++++.++++.++++++++++.++++.++++@+++++.+++++++@++.++@+++++++.++++.++@++++++++.+++++++@+++++++++.",
".++++++++++++++@++@+++.++@++++@+.+++++.+++++++++++++++++++++@++++++++++++@+++.+@++++++++++@+++.+++++++++.++++++++++++++@++@+.++.",
".+.++++@++.++.@++++.+++++++++++++.+++++++++++@++++++++++.@+++.++@++@@++.++++@++@+++++++++.++++++.+++@+++++++++++++++@+++.+..+++.",
".++++++++++@+@+.+++++++++++@@++++++@++++++++++++++++++++++++++++++++.+++++++++++@+@++..+++++++++++++++++++++++++++++.++++@.++++.",
".++++++++++.+.++++++@.+++++@+++++++@++++@++++++++.+@+++++++++++++++++++++++++..+++.+@+.@++++++++@++@@++++++++++++++++++++++++++.",
".++++++.++@+@++@+++++@+.+++++++++++@++++++.++@+.++++@..+.+++++++++++++++++++++.+++++.++.++@++@+++++.+++++@.++.++@++.++++++++.++.",
".++++++++++++@.++++@+++++@+++@+++++++++.++@++++++.++++++++++++++@@.@@+++++++.++++++++++.+++++@+@@+.++++++++++++@+++@+++++++++++.",
".@+++++++++@++++.+++@++++@++.++.+++++++++++++++++++++++@++++@++@+++++++++++++++++++++++++@++++.++++++++++++@+++.+++++++++++++++.",
".++++@+.+++.++++@++++++++@@++@+++++.+++++++++++++++@.++++.+++++++++++++@++++++++@@+.++++@+++.++++++++++++++.++++++.+++.+.++++@+.",
".+++++.++.+++++++@+.++++.+++.++.@++++++@++++.+++@.++++++.@@++@+++++++++++++++++.++++.+++@++++++++++++++++++++++++++++++++++++@+.",
".++++++++@++.++++.+@++++++++.+++.+@.++++++.++@+.+..++@++++++++++@+++++++++@++++++.@++++++++++++++.@+++++++++++++@.+++.++++++.@+.",
"..+.++++++++@+++.++++++++++.++++++@+@++@+.++@+++++++++++++.++++@+++@++++++++++..+++++++++++++.++++++++++++...++++++++++.+++++++.",
".+@+.+++++++++++++++++++.+.@+@@++.+++++++.+++++++++@+++.+++++++++++.@++.++++++++++.+++.++++++++.++++.+++@+++++@++++++++@+.+++++.",
".++++++@@++++++++++++++.++.++++++++++++++++++++++.++++++++@+.++@++++++++.++++++++++@++@+++++++++++++++++++.+++++++++++++++@+++..",
".++@@+++.+++++++++++.+++++++++++++.++@+@+++++++.++++@.++@+++++++@++++@++++.+@+.@++++++++++++++++++++++++++++++++@+++.++++++.++@.",
".+....+@+@+.++++@++++++.++++.++++@++++@+++@+++.++++++++++++.++..++++++++.++.+++++++++++++++@++++@.+++++++++++++++++.+.++.++++++.",
".+.++.+++++++++++++++.+++@+.++.+++++++.++++++.++++.+++++.@++@+++.+++++++++++++++++++++++++++++++++@++++++.+++++++++++++.++@++@+.",
".+++++++++.+++++++@+.+++++.+++.+++++@+++++++++++++++++.++.+++++++.++++@+++@..+++++++++.+.+++.+++@+@+@@+++++++++++++++@+@+++++++.",
".+++.++++.++.+++@+++++.+++@++++++++++++.+.+++++.++++++++++@+++.+++++++++++@.+++++++++++++@+++..++++.++++++++++.++++++@+++++++++.",
".+++++@++++++++++++@++++++++++++++++++++.++++@+.++++++++@++++++++++++++++++++++++.++++++++.+++++.+++++.@++@+++++++++++++.+++.++.",
".+@+++++++++.+++.++++++++++.++@++.+++.@+++++++++@.+++++.++++++++++++.+++++.++++++++++++@.++++@++++++++.+++++++++++++++.++++++++.",
"....++++++.+++.@+++@++++@+++.++++++@+++++++.+.++.++@++@.+@+++++++@+++@++++++++++@++++++++++++++.+@++++++@+++@+++++++++++.++++++.",
"..@++++++++++++++++++@@.@++@++.@++++++@..+++@+++++++++++.@+++@++++.@@+++++@+++++++@+++@+++++++@+++.++.+++++.++++.@+.@++@+++++++.",
".++++++++++@+.+@+++++++@+.++++@+++++++++++++++.++++.+++.++..++.+++.+++++++@++++++++.+.+++++++++++++++++++..++++++++++++@+++++++.",
".+@++++++++++++++.+++++++++++.++@+++.+++++++++@+++.+++.+++++++.+++++++++@@@+++++.+++++++++@++++.+++++++.+.++@+++++++++++++++.++.",
".+++++++++.+++@+++.++++@++++++++.+++++++++++@+++@+++++++++@+@+++++++++++++++.++++++++++@+++++++++++++.+++++.+++@+++++++++++++++.",
".+++@++++++++.++++++++++++++@@++++@+++++++++++++++@.++++++++@+++.++++++++++++.++++++++++++++++++++++++.+.++++++++++++.+++++++++.",
".+++++++++++++++++++++++.++@+++@.++.+++++++++@++++++++++@++++++++.++++@+@++++@@+@++@+++++.+++.+++++++++++++++++++++++++++++++++.",
".++@+++++++++++++++@@++++++++++.+.+++@++++@+.++++.++++++.+@++++++..+++@.+++@++++@++++++++.+++++++++++++++.++.+++@++.++++.++++++.",
"...++++@+.@+@++++++++++++++@@++@++++++@++++++.@++++++++.@++++@@+++++++++++@+@+@+++++@@++++.+++++++++.+@.+++++.+@++@@++++++++@++.",
".+++++++.++++++@.+++++++++++++@+++++++++@@.++++++@+++.+++.@.++@+++++++++++++++++++@+++++++++++++++++++++++++++@+.+++++++++@.+++.",
".+@++++++++.++++++++@++++++++.++.@++++@++@+++++++++++++.++@++@++.+++++@+.+++++++@@+++.+++@++++++++++++++++++++++.+++++.++++++++.",
".+++++++++.@++++.+++++++@+@@+++++++++++++.++++++.+++++@+.+++++++++++++.+@+++++@++++++@.+++++.+.+++++.+++..+++++++.++++@.++.++++.",
".+++++++++++@+++++++@+++++++@+.+@@+.++++++@+++@++++++.++++@@+.++@++++++++++@@.+++++++++@+++++++++++@+++++.++++++++++@+++++.+@++.",
"..@+@++@+++++@+.++.+.++++.++++++.+++++++++++++.@++++++++++++++++.++++@+++++.++++++.+++++.+++++++++++++@++++++++@+.++++@..++++++.",
".++++++++++.+.+.+.++++++++.+@+++++++.++++++@+++++++@++++++++++++++++@+++++++++++++++++++@++++++++++++.+.+.++@++@.++++@@.+++++++.",
".+@@@.++++++++@++++@+++.+++++++++@+.++..+@+.++++@++++++++.+++++++++++++++++++++.+..++++++++++++++.@++++++++++++++@+@.++++++.+++.",
".+++++++++.+@++.+@+++.+++++++++++.+++++++++++.+@++++@..+++++++++++++.+@+++++++++++..++@+++++++++.++++++@@+++++++@+.++@+.+++++++.",
".++++++++++++++@@++++++++++++++++++++++++++++++++++@+++.+@+++.++++.++@++++.++++++.@++@++++++++@+++@++.++@+++..+++++++++++++@+++.",
".+++++.+++++++++.++++@+.++++++@+++.++++++++++++++++@+++++.++++++++++++++++@+++@+++@+++++++++.+@++.++++++++.+++@+++++++@++++++++.",
".+@+++.+++++++.+.++.+++@+.++++++++++.++.++++++++++++++++++++.+++++++++++.++++++++++++@+.++.+++.+@+++++.+++++.+++++++++++++++@++.",
".+@+++++++++++++++.++++.+++++++++.+++.+++++++@++++++++++++.+++++@.+++..@+@++++++++++++.++@.+@++++++++++++++++++@+++++++@+++++++.",
".@+++++++++.++@+++@++++++.+++++++@+@+@+++@++.++++++++.+++++++++@@+++@++++++@+++++++.@+++@+++++@+++++++++++++++++++++.+++@@+++++.",
".++++.+++@++++++++@+++++++++++.+++@++++.++++.+.@+++++@++++@++++++++.@++++++@+++++++++++++++++++@++++++++@+++@++++++@++++@++@+.+.",
".+++.+++++++++++++.++++.+++++++@+++.+++++++++++++++++++++++++++++@++++@+++++@+++++++++.++@.@+++@.++++@++++++++++++++++++++.@++..",
".+++++@+.@+.@+++.+++++++++.+++++++++++@++++++++++++++++++.+++.++.++++@++++++.++++@+++++.+++++++@+++@+@++++++.++++++++@+@+++++.+.",
".+++.+++@.+++@@@++++++@+++++++++++@+++.+.+.++@++.++++++++++@+++++++++@+++++++@+++@@++@++++++++++++++++++++@++++++++++++++++++@+.",
".++++++++@+++++@++@++++++@+++++++++++@+++++++++++++@+.++@+++++++++++.@+++.+++..+++++.++++++++++.+++++++.+++++++++++@++@++++++++.",
".+++.+++++++++++.++.+++++..++@+++++@++++++++++++++++++++.+++.+++++@+@+++++++++++++++.++++@..++++@++++++@++++++@+++++.+@++@++++..",
".+++++++++@@.+++.++++++@.+++++++.+++++++++++++++++@++++++++++++++++++++@++++++.++++++++++@++++++++++++++++++@@@+++++++++++++@++.",
".++++++..++@++@++.@++++++++++.+++++++.++.+++++++.++++.++++++++++++++++.+++.+++++++++++++@++++.+++++++++++@+++++++@+++@+++@+++++.",
"................................................................................................................................"};
