/* XPM */
static char * sprite_2_xpm[] = {
"32 32 3 1",
" 	c None",
".	c #FFFFFF",
"+	c #007583",
"..........++..........++........",
"..........++..........++........",
"............++......++..........",
"............++......++..........",
"..........++++++++++++++........",
"..........++++++++++++++........",
"........++++..++++++..++++......",
"........++++..++++++..++++......",
"......++++++++++++++++++++++....",
"......++++++++++++++++++++++....",
"......++..++++++++++++++..++....",
"......++..++++++++++++++..++....",
"......++..++..........++..++....",
"......++..++..........++..++....",
"............++++..++++..........",
"............++++..++++..........",
"................................",
"................................",
"................................",
"................................",
"................................",
"................................",
"................................",
"................................",
"................................",
"................................",
"................................",
"................................",
"................................",
"................................",
"................................",
"................................"};
