/* XPM */
static char * wall_2_xpm[] = {
"32 32 932 2",
"  	c #291316",
". 	c #362023",
"+ 	c #3B2528",
"@ 	c #442E31",
"# 	c #382225",
"$ 	c #301A1D",
"% 	c #392326",
"& 	c #351F22",
"* 	c #3F2427",
"= 	c #553638",
"- 	c #462828",
"; 	c #4E3231",
"> 	c #301816",
", 	c #321D1A",
"' 	c #62514C",
") 	c #574843",
"! 	c #251913",
"~ 	c #514841",
"{ 	c #443D35",
"] 	c #140F0C",
"^ 	c #201B19",
"/ 	c #211B18",
"( 	c #170D0C",
"_ 	c #271B1B",
": 	c #3D2E2F",
"< 	c #594749",
"[ 	c #695557",
"} 	c #4F383B",
"| 	c #2C1317",
"1 	c #2B1419",
"2 	c #230E11",
"3 	c #2F1A1C",
"4 	c #382326",
"5 	c #402B2D",
"6 	c #331F21",
"7 	c #2C1719",
"8 	c #412C2E",
"9 	c #483436",
"0 	c #291416",
"a 	c #301B1E",
"b 	c #604749",
"c 	c #5A3C3D",
"d 	c #593C3B",
"e 	c #5C4241",
"f 	c #3D2523",
"g 	c #331E1B",
"h 	c #574641",
"i 	c #60514C",
"j 	c #30241E",
"k 	c #504740",
"l 	c #403731",
"m 	c #28211D",
"n 	c #352E2C",
"o 	c #312726",
"p 	c #261B1A",
"q 	c #2A1D1D",
"r 	c #322324",
"s 	c #4B3A3B",
"t 	c #5C494B",
"u 	c #4D393B",
"v 	c #291418",
"w 	c #261214",
"x 	c #220E10",
"y 	c #230F11",
"z 	c #271315",
"A 	c #231012",
"B 	c #2B1719",
"C 	c #3F2B2D",
"D 	c #3B2729",
"E 	c #1A0608",
"F 	c #352123",
"G 	c #786263",
"H 	c #5E4342",
"I 	c #674C4B",
"J 	c #614746",
"K 	c #402927",
"L 	c #2B1713",
"M 	c #473430",
"N 	c #51413C",
"O 	c #2C1F19",
"P 	c #2F231D",
"Q 	c #291D18",
"R 	c #3C302D",
"S 	c #433535",
"T 	c #3F3030",
"U 	c #392B2B",
"V 	c #2D1F1F",
"W 	c #261717",
"X 	c #342425",
"Y 	c #382829",
"Z 	c #291A1B",
"` 	c #27171A",
" .	c #321F21",
"..	c #220F11",
"+.	c #1F0C0E",
"@.	c #200D0F",
"#.	c #261315",
"$.	c #271416",
"%.	c #241113",
"&.	c #1C090B",
"*.	c #443133",
"=.	c #7F6A6A",
"-.	c #644C4A",
";.	c #644B49",
">.	c #543B39",
",.	c #341E1B",
"'.	c #230F0C",
").	c #2C1915",
"!.	c #2D1B17",
"~.	c #1F110B",
"{.	c #1A0C07",
"].	c #281A15",
"^.	c #463534",
"/.	c #422E30",
"(.	c #433132",
"_.	c #423032",
":.	c #301E1F",
"<.	c #221314",
"[.	c #261919",
"}.	c #211414",
"|.	c #1B0F0F",
"1.	c #201514",
"2.	c #291F1F",
"3.	c #302021",
"4.	c #261617",
"5.	c #2E1E1F",
"6.	c #2D1D1E",
"7.	c #241415",
"8.	c #1F0F10",
"9.	c #201011",
"0.	c #453536",
"a.	c #776565",
"b.	c #735F5C",
"c.	c #5D4644",
"d.	c #402C28",
"e.	c #25110E",
"f.	c #23100C",
"g.	c #2A1713",
"h.	c #24120E",
"i.	c #1D0C07",
"j.	c #2D1B18",
"k.	c #4C3637",
"l.	c #482F33",
"m.	c #4E373B",
"n.	c #4A3538",
"o.	c #301D1F",
"p.	c #221313",
"q.	c #231616",
"r.	c #221716",
"s.	c #1A1210",
"t.	c #1E1916",
"u.	c #2E2827",
"v.	c #1C0D0D",
"w.	c #1E0F0F",
"x.	c #302121",
"y.	c #3E3030",
"z.	c #4D3E3F",
"A.	c #58494A",
"B.	c #3B2C2D",
"C.	c #322424",
"D.	c #382A2A",
"E.	c #4D3C3B",
"F.	c #5D4B47",
"G.	c #503D39",
"H.	c #321F1B",
"I.	c #2E1B17",
"J.	c #2D1A16",
"K.	c #392622",
"L.	c #382521",
"M.	c #311D1A",
"N.	c #2B1814",
"O.	c #2C1815",
"P.	c #4B3436",
"Q.	c #4A2F34",
"R.	c #523B3E",
"S.	c #483235",
"T.	c #1D0D0E",
"U.	c #2B2221",
"V.	c #1E1614",
"W.	c #2B2623",
"X.	c #3F3A39",
"Y.	c #1B0D0D",
"Z.	c #170A0A",
"`.	c #201313",
" +	c #382B2B",
".+	c #5A4C4C",
"++	c #635656",
"@+	c #423535",
"#+	c #291C1C",
"$+	c #2E2020",
"%+	c #201212",
"&+	c #211311",
"*+	c #2A1915",
"=+	c #261511",
"-+	c #3F2D29",
";+	c #4C3A36",
">+	c #3E2B27",
",+	c #3E2926",
"'+	c #3C2624",
")+	c #3A2421",
"!+	c #39201F",
"~+	c #553D3E",
"{+	c #4A3336",
"]+	c #473134",
"^+	c #3A2628",
"/+	c #201111",
"(+	c #1E1111",
"_+	c #251919",
":+	c #180F0E",
"<+	c #1D1614",
"[+	c #332B29",
"}+	c #211515",
"|+	c #1D1111",
"1+	c #1A0E0E",
"2+	c #1C1010",
"3+	c #190D0D",
"4+	c #150909",
"5+	c #1E1210",
"6+	c #1F120D",
"7+	c #23150F",
"8+	c #2A1C17",
"9+	c #42322D",
"0+	c #604E4A",
"a+	c #523E3B",
"b+	c #4D3633",
"c+	c #422A28",
"d+	c #3D2422",
"e+	c #3B2221",
"f+	c #4A3435",
"g+	c #3A2829",
"h+	c #322122",
"i+	c #281718",
"j+	c #1E0D0E",
"k+	c #251616",
"l+	c #271919",
"m+	c #281B1B",
"n+	c #2D2020",
"o+	c #271B1A",
"p+	c #291D1C",
"q+	c #251B1A",
"r+	c #2B2120",
"s+	c #302625",
"t+	c #2C2221",
"u+	c #211716",
"v+	c #1A100F",
"w+	c #261C1B",
"x+	c #1F1514",
"y+	c #1A110E",
"z+	c #170D07",
"A+	c #231812",
"B+	c #291C16",
"C+	c #32221D",
"D+	c #54423E",
"E+	c #644F4C",
"F+	c #533C3A",
"G+	c #391E1D",
"H+	c #2B0F0E",
"I+	c #240A0A",
"J+	c #210F0F",
"K+	c #1D1211",
"L+	c #1E1010",
"M+	c #160909",
"N+	c #241516",
"O+	c #413132",
"P+	c #483738",
"Q+	c #5B4A4B",
"R+	c #5B484A",
"S+	c #432F31",
"T+	c #3E3533",
"U+	c #39312F",
"V+	c #302725",
"W+	c #261D1C",
"X+	c #1C1312",
"Y+	c #18100E",
"Z+	c #211816",
"`+	c #1B1311",
" @	c #1F1715",
".@	c #150C09",
"+@	c #1A120B",
"@@	c #211710",
"#@	c #261A14",
"$@	c #20120C",
"%@	c #281612",
"&@	c #2C1714",
"*@	c #2C1412",
"=@	c #280D0C",
"-@	c #220605",
";@	c #1B0000",
">@	c #180908",
",@	c #221B19",
"'@	c #2D2423",
")@	c #261B1B",
"!@	c #1C100F",
"~@	c #261718",
"{@	c #4F3E3F",
"]@	c #5F4B4D",
"^@	c #5D484B",
"/@	c #6B5558",
"(@	c #594245",
"_@	c #190D0A",
":@	c #1C100D",
"<@	c #1C100E",
"[@	c #180D0B",
"}@	c #150A09",
"|@	c #1B100F",
"1@	c #271E1D",
"2@	c #2E2524",
"3@	c #271E1E",
"4@	c #2F2628",
"5@	c #191111",
"6@	c #18100D",
"7@	c #1D1410",
"8@	c #2F2320",
"9@	c #382926",
"0@	c #1F0D09",
"a@	c #392421",
"b@	c #472F2B",
"c@	c #523733",
"d@	c #50332F",
"e@	c #391C18",
"f@	c #2D1A18",
"g@	c #3B302F",
"h@	c #403434",
"i@	c #2D1E1E",
"j@	c #2A1819",
"k@	c #523F41",
"l@	c #645052",
"m@	c #523D3F",
"n@	c #5F474B",
"o@	c #644B4F",
"p@	c #25130D",
"q@	c #2F1C18",
"r@	c #2B1916",
"s@	c #231210",
"t@	c #271817",
"u@	c #221514",
"v@	c #2B2020",
"w@	c #352B2C",
"x@	c #2E2527",
"y@	c #332C2F",
"z@	c #171014",
"A@	c #191013",
"B@	c #1B1013",
"C@	c #251818",
"D@	c #3A2B2A",
"E@	c #261411",
"F@	c #48332F",
"G@	c #5D4540",
"H@	c #6C524B",
"I@	c #755950",
"J@	c #60433A",
"K@	c #3A231F",
"L@	c #443233",
"M@	c #4B393A",
"N@	c #523E40",
"O@	c #210D0F",
"P@	c #5C484A",
"Q@	c #6C585A",
"R@	c #614C4F",
"S@	c #654D50",
"T@	c #36211C",
"U@	c #382522",
"V@	c #321F1D",
"W@	c #433332",
"X@	c #302221",
"Y@	c #2E2223",
"Z@	c #3A3031",
"`@	c #342A2D",
" #	c #372E32",
".#	c #1B1116",
"+#	c #180D11",
"@#	c #1B0F12",
"##	c #1F1212",
"$#	c #211110",
"%#	c #3B2926",
"&#	c #4E3A36",
"*#	c #563F39",
"=#	c #523931",
"-#	c #50352C",
";#	c #4B3026",
">#	c #584446",
",#	c #4A3638",
"'#	c #281416",
")#	c #190608",
"!#	c #200E0F",
"~#	c #5B4749",
"{#	c #654F51",
"]#	c #331E19",
"^#	c #3A2521",
"/#	c #3C2926",
"(#	c #3A2826",
"_#	c #3A2929",
":#	c #2E2325",
"<#	c #281D21",
"[#	c #2B2126",
"}#	c #160B0F",
"|#	c #1C0F11",
"1#	c #271A1A",
"2#	c #271716",
"3#	c #382623",
"4#	c #493431",
"5#	c #462F2A",
"6#	c #4C332C",
"7#	c #4F352E",
"8#	c #472E27",
"9#	c #3B2422",
"0#	c #3E2A2C",
"a#	c #493537",
"b#	c #200C0E",
"c#	c #301C1E",
"d#	c #2A1618",
"e#	c #453133",
"f#	c #473133",
"g#	c #331C17",
"h#	c #38221E",
"i#	c #3F2A28",
"j#	c #3A2625",
"k#	c #241111",
"l#	c #1C0B0C",
"m#	c #1B0C0D",
"n#	c #221517",
"o#	c #1C0F13",
"p#	c #23171D",
"q#	c #1E1114",
"r#	c #423131",
"s#	c #5D4C4C",
"t#	c #4B3B38",
"u#	c #3A2724",
"v#	c #54413C",
"w#	c #5A4440",
"x#	c #6E5852",
"y#	c #5E4841",
"z#	c #2E1611",
"A#	c #2A1414",
"B#	c #2D191B",
"C#	c #2F1B1D",
"D#	c #2C181A",
"E#	c #3C282A",
"F#	c #443032",
"G#	c #321E20",
"H#	c #281415",
"I#	c #3E2521",
"J#	c #482F2C",
"K#	c #462F2D",
"L#	c #362120",
"M#	c #220D0E",
"N#	c #231214",
"O#	c #26171A",
"P#	c #1F1116",
"Q#	c #2C1E24",
"R#	c #302124",
"S#	c #594845",
"T#	c #53403E",
"U#	c #645250",
"V#	c #63504C",
"W#	c #4A3733",
"X#	c #291511",
"Y#	c #35211C",
"Z#	c #2B1812",
"`#	c #200B07",
" $	c #23100F",
".$	c #251113",
"+$	c #473335",
"@$	c #4B3739",
"#$	c #463234",
"$$	c #321E1E",
"%$	c #321713",
"&$	c #331917",
"*$	c #422828",
"=$	c #381F20",
"-$	c #281214",
";$	c #311C1E",
">$	c #402C2F",
",$	c #382629",
"'$	c #37262C",
")$	c #2C1C23",
"!$	c #3A282A",
"~$	c #503C38",
"{$	c #6B5551",
"]$	c #5A4541",
"^$	c #5C4844",
"/$	c #5F4C48",
"($	c #35221E",
"_$	c #392724",
":$	c #2C1A17",
"<$	c #331F1F",
"[$	c #382425",
"}$	c #342022",
"|$	c #291517",
"1$	c #412D2F",
"2$	c #685456",
"3$	c #382424",
"4$	c #351715",
"5$	c #301211",
"6$	c #321616",
"7$	c #2C1213",
"8$	c #2D1417",
"9$	c #2C1518",
"0$	c #3A2629",
"a$	c #433034",
"b$	c #503D43",
"c$	c #342129",
"d$	c #452F29",
"e$	c #614944",
"f$	c #6A544E",
"g$	c #66524C",
"h$	c #614E4A",
"i$	c #3F2C29",
"j$	c #2F1D1C",
"k$	c #3F2E2E",
"l$	c #3F302F",
"m$	c #3C2B2C",
"n$	c #3B292A",
"o$	c #3D292B",
"p$	c #402C2E",
"q$	c #503C3E",
"r$	c #4F3B3D",
"s$	c #2E1A1C",
"t$	c #281414",
"u$	c #513331",
"v$	c #4A2C2B",
"w$	c #391B1B",
"x$	c #2E1012",
"y$	c #2E1417",
"z$	c #331A1E",
"A$	c #4A3438",
"B$	c #553F44",
"C$	c #564248",
"D$	c #321E26",
"E$	c #210B0D",
"F$	c #2C130D",
"G$	c #462D25",
"H$	c #5D443E",
"I$	c #67514B",
"J$	c #64504B",
"K$	c #493634",
"L$	c #221110",
"M$	c #261818",
"N$	c #2F2122",
"O$	c #3E3031",
"P$	c #372628",
"Q$	c #544042",
"R$	c #5E4A4C",
"S$	c #241010",
"T$	c #715250",
"U$	c #6B4C4C",
"V$	c #492A2B",
"W$	c #331517",
"X$	c #290E11",
"Y$	c #270D11",
"Z$	c #3C2428",
"`$	c #3E272D",
" %	c #3D282F",
".%	c #2B171F",
"+%	c #382021",
"@%	c #3A1F16",
"#%	c #3E231A",
"$%	c #3E251D",
"%%	c #48312A",
"&%	c #4D3833",
"*%	c #352321",
"=%	c #281817",
"-%	c #382A2B",
";%	c #271B1D",
">%	c #190D11",
",%	c #200F13",
"'%	c #1E0A0C",
")%	c #2C1818",
"!%	c #664645",
"~%	c #654646",
"{%	c #412323",
"]%	c #331515",
"^%	c #35181A",
"/%	c #34181A",
"(%	c #341A1D",
"_%	c #271014",
":%	c #321D23",
"<%	c #311C24",
"[%	c #412828",
"}%	c #46291F",
"|%	c #4B2E24",
"1%	c #492F27",
"2%	c #301711",
"3%	c #2B1511",
"4%	c #261311",
"5%	c #2E1D1D",
"6%	c #584A4B",
"7%	c #3E3135",
"8%	c #12060B",
"9%	c #19080C",
"0%	c #2F1C1F",
"a%	c #311D1F",
"b%	c #382426",
"c%	c #432E30",
"d%	c #341F21",
"e%	c #1C080A",
"f%	c #291618",
"g%	c #261313",
"h%	c #412C29",
"i%	c #2F1713",
"j%	c #41251F",
"k%	c #604139",
"l%	c #54352D",
"m%	c #462822",
"n%	c #3C201D",
"o%	c #3D2425",
"p%	c #3C2529",
"q%	c #472C2C",
"r%	c #62413B",
"s%	c #75544D",
"t%	c #654540",
"u%	c #361815",
"v%	c #361A17",
"w%	c #492F30",
"x%	c #432B2D",
"y%	c #422C2F",
"z%	c #311D22",
"A%	c #210E13",
"B%	c #211317",
"C%	c #1A0E10",
"D%	c #332224",
"E%	c #4E3537",
"F%	c #664A4B",
"G%	c #442526",
"H%	c #412324",
"I%	c #2A1113",
"J%	c #2D2022",
"K%	c #352B28",
"L%	c #362A24",
"M%	c #37241B",
"N%	c #442B1F",
"O%	c #7C5C4D",
"P%	c #8A685A",
"Q%	c #573629",
"R%	c #44261D",
"S%	c #442825",
"T%	c #3E2525",
"U%	c #4C302F",
"V%	c #674541",
"W%	c #835F5C",
"X%	c #704D4A",
"Y%	c #432220",
"Z%	c #482826",
"`%	c #6D5052",
" &	c #604447",
".&	c #3B2125",
"+&	c #230A0E",
"@&	c #230B10",
"#&	c #211417",
"$&	c #1C1518",
"%&	c #392B2D",
"&&	c #583E3F",
"*&	c #816061",
"=&	c #714B4B",
"-&	c #4B2827",
";&	c #331719",
">&	c #311E20",
",&	c #2D2426",
"'&	c #21191B",
")&	c #201513",
"!&	c #281C17",
"~&	c #301E15",
"{&	c #442C21",
"]&	c #4B2E21",
"^&	c #6F4F43",
"/&	c #735348",
"(&	c #4F3128",
"_&	c #371B18",
":&	c #3F2626",
"<&	c #402525",
"[&	c #452621",
"}&	c #5B3B36",
"|&	c #50312D",
"1&	c #331512",
"2&	c #3E201E",
"3&	c #694F50",
"4&	c #644B4D",
"5&	c #412A2D",
"6&	c #261113",
"7&	c #2A1619",
"8&	c #201518",
"9&	c #1A1215",
"0&	c #3B2D2F",
"a&	c #563C3E",
"b&	c #705050",
"c&	c #967272",
"d&	c #5D3A39",
"e&	c #351A1C",
"f&	c #332022",
"g&	c #43393B",
"h&	c #473F41",
"i&	c #190E0A",
"j&	c #170A05",
"k&	c #200E09",
"l&	c #432E25",
"m&	c #5E4339",
"n&	c #4E3228",
"o&	c #64483F",
"p&	c #6C5049",
"q&	c #503532",
"r&	c #361E1D",
"s&	c #240A08",
"t&	c #2D120C",
"u&	c #341912",
"v&	c #2F140F",
"w&	c #1F0602",
"x&	c #2C1410",
"y&	c #44302F",
"z&	c #4F3C3C",
"A&	c #402F2F",
"B&	c #2A181A",
"C&	c #281719",
"D&	c #2F2427",
"E&	c #1F1618",
"F&	c #28191B",
"G&	c #62484A",
"H&	c #624444",
"I&	c #775554",
"J&	c #6C4C4B",
"K&	c #3F2426",
"L&	c #43383B",
"M&	c #554C4E",
"N&	c #120703",
"O&	c #180C06",
"P&	c #26160F",
"Q&	c #301D16",
"R&	c #49332B",
"S&	c #513830",
"T&	c #4D342E",
"U&	c #5C423D",
"V&	c #4C3330",
"W&	c #341B19",
"X&	c #3B221E",
"Y&	c #412922",
"Z&	c #3A2119",
"`&	c #321A14",
" *	c #26110B",
".*	c #321D18",
"+*	c #2D1B19",
"@*	c #362625",
"#*	c #2F2020",
"$*	c #1A0C0D",
"%*	c #2D2125",
"&*	c #33282C",
"**	c #200F12",
"=*	c #5E4647",
"-*	c #6B4E4E",
";*	c #533432",
">*	c #614241",
",*	c #472D2F",
"'*	c #261A1D",
")*	c #302629",
"!*	c #2B201A",
"~*	c #241711",
"{*	c #1A0D07",
"]*	c #2B1C16",
"^*	c #2C1A15",
"/*	c #331F1B",
"(*	c #4A3330",
"_*	c #49312F",
":*	c #2E1413",
"<*	c #381D1C",
"[*	c #58403B",
"}*	c #503931",
"|*	c #3F2820",
"1*	c #341F18",
"2*	c #2E1B14",
"3*	c #3C2B24",
"4*	c #1F0E0B",
"5*	c #1A0B0A",
"6*	c #180C0C",
"7*	c #180C0D",
"8*	c #160A0E",
"9*	c #33252A",
"0*	c #281519",
"a*	c #301A1A",
"b*	c #523837",
"c*	c #553936",
"d*	c #503431",
"e*	c #493232",
"f*	c #1E0F13",
"g*	c #2C1F23",
"h*	c #463933",
"i*	c #261913",
"j*	c #170905",
"k*	c #201110",
"l*	c #211010",
"m*	c #2A1717",
"n*	c #2E1817",
"o*	c #260C0C",
"p*	c #402423",
"q*	c #674D49",
"r*	c #472F28",
"s*	c #3C241D",
"t*	c #2F1912",
"u*	c #34201A",
"v*	c #47342E",
"w*	c #301F1D",
"x*	c #190A08",
"y*	c #1D0F0F",
"z*	c #1E1011",
"A*	c #1D0F13",
"B*	c #26151A",
"C*	c #2C191C",
"D*	c #1D0808",
"E*	c #2E1614",
"F*	c #3F2623",
"G*	c #402723",
"H*	c #412C2C",
"I*	c #1B0B0F",
"J*	c #201216",
"K*	c #493A33",
"L*	c #2C1E18",
"M*	c #24191B",
"N*	c #221518",
"O*	c #241518",
"P*	c #291617",
"Q*	c #240C0C",
"R*	c #3C2120",
"S*	c #614541",
"T*	c #492E28",
"U*	c #3F241D",
"V*	c #2F1510",
"W*	c #341C17",
"X*	c #37201C",
"Y*	c #2E1A19",
"Z*	c #1A0707",
"`*	c #271617",
" =	c #352526",
".=	c #2C1B1D",
"+=	c #39282D",
"@=	c #3C292F",
"#=	c #311D21",
"$=	c #281413",
"%=	c #1C0705",
"&=	c #230E09",
"*=	c #341F1A",
"==	c #392524",
"-=	c #453132",
";=	c #3F2B31",
">=	c #210F14",
",=	c #32231B",
"'=	c #251711",
")=	c #291E1D",
"!=	c #271D1F",
"~=	c #251E22",
"{=	c #1B1218",
"]=	c #201419",
"^=	c #342326",
"/=	c #311A1B",
"(=	c #2C110F",
"_=	c #3C1F1A",
":=	c #442621",
"<=	c #40221D",
"[=	c #4B2F2B",
"}=	c #4C312E",
"|=	c #402828",
"1=	c #2A1314",
"2=	c #301B1D",
"3=	c #311D20",
"4=	c #4A363C",
"5=	c #453037",
"6=	c #392529",
"7=	c #3F2B2A",
"8=	c #311E18",
"9=	c #412E28",
"0=	c #463232",
"a=	c #5D494A",
"b=	c #685359",
"c=	c #4A343A",
"d=	c #1F1007",
"e=	c #20130C",
"f=	c #352B2A",
"g=	c #2B2427",
"h=	c #29242B",
"i=	c #241E26",
"j=	c #1A1018",
"k=	c #312227",
"l=	c #4A3334",
"m=	c #422724",
"n=	c #3B1B18",
"o=	c #3D1B17",
"p=	c #3F1B17",
"q=	c #512F2C",
"r=	c #694946",
"s=	c #735452",
"t=	c #6F5355",
"u=	c #503538",
"v=	c #3A2024",
"w=	c #3B2427",
"x=	c #392025",
"y=	c #523A42",
"z=	c #442D35",
"A=	c #483337",
"B=	c #443130",
"C=	c #271511",
"D=	c #25150E",
"E=	c #4D3D36",
"F=	c #594545",
"G=	c #5B4748",
"H=	c #5F4950",
"I=	c #5A4249",
"J=	c #281811",
"K=	c #271915",
"L=	c #3A302F",
"M=	c #2C2528",
"N=	c #2F2A31",
"O=	c #2E2830",
"P=	c #12090E",
"Q=	c #231416",
"R=	c #4C3332",
"S=	c #472B26",
"T=	c #42221E",
"U=	c #52302C",
"V=	c #45221F",
"W=	c #533230",
"X=	c #5C3C3A",
"Y=	c #664847",
"Z=	c #533737",
"`=	c #482C2E",
" -	c #3D2327",
".-	c #371E22",
"+-	c #5A4248",
"@-	c #442E34",
"#-	c #3E2C2B",
"$-	c #271612",
"%-	c #21120D",
"&-	c #44352F",
"*-	c #645251",
"=-	c #5A4649",
"--	c #553F47",
";-	c #654D55",
"  . + @ # $ % @ &   * = - ; > , ' ) ! ~ { ] ^ / ( _ : < [ } | 1 ",
"2 3 4 5 6 7 8 9 0 a b c d e f g h i j k l m n o p q r s t u $ v ",
"w x y z A B C D E F G H I J K L M N O P Q R S T U V W X Y r Z ` ",
" ...+.@.A #.$.%.&.*.=.-.;.>.,.'.).!.~.{.].^./.(._.:.<.[.}.|.1.2.",
"3.4.3.3.5.6.7.8.9.0.a.b.c.d.e.f.g.g.h.i.j.k.l.m.n.o.p.q.r.s.t.u.",
"v.w.x.y.z.A.B.W C.D.E.F.G.H.I.J.K.L.M.N.O.P.Q.R.S.z T.}.U.V.W.X.",
"Y.Z.`. +.+++@+#+$+%+&+].*+=+-+;+>+,+'+)+!+~+{+]+^+A /+(+_+:+<+[+",
"}+|+1+2+}+}+3+4+2+1+5+6+7+8+9+0+a+b+c+d+e+f+g+h+i+j+k+l+m+n+o+p+",
"q+r+s+t+u+v+u+w+x+u+y+z+A+B+C+D+E+F+G+H+I+J+K+q.L+M+N+O+P+Q+R+S+",
"T+U+V+W+X+Y+Z+W+`+ @.@+@@@#@$@%@&@*@=@-@;@>@,@'@)@!@~@{@]@^@/@(@",
"_@:@<@[@}@|@1@2@3@4@5@6@7@8@9@0@a@b@c@d@e@f@g@h@: i@j@k@l@m@n@o@",
"p@q@r@s@t@u@v@w@x@y@z@A@B@C@D@E@F@G@H@I@J@K@L@M@N@F O@/.P@Q@R@S@",
"T@d.U@V@W@X@Y@Z@`@ #.#+#@###$#%#&#*#=#-#;#)+9 >#,#'#)#!#^+~#l@{#",
"]#^#/#(#_#k+q.:#<#[#}#|#1#U 2#3#4#5#6#7#8#9#0#a#6 b#'#c#d#^+e#f#",
"g#h#i#j#k#l#m#n#o#p#q#D@r#s#t#u#v#w#x#y#z#A#B#C#O@D#E#F#^+^+G#H#",
"I#J#K#L#M#z N#O#P#Q#R#S#T#U#V#W#g.X#Y#Z#`# $w '#.$C +$u @$#$^+$$",
"%$&$*$=$-$;$>$,$'$)$!$~${$]$^$/$L.($_$:$<$[$}$w |$1$~#Q@2$P@#$3$",
"4$5$6$7$8$9$0$a$b$c$'#d$e$f$g$h$i$j$k$l$m$n$o$p$E#C u q$r$/.s$t$",
"u$v$w$x$y$z$A$B$C$D$E$F$G$H$I$J$K$L$M$N$O$P$Q$R$o$B#'#|$B#w b#S$",
"T$U$V$W$X$Y$Z$`$ %.%+%@%#%$%%%&%*%=%-%;%>%,%@$S+'%'%E b#b#O@w )%",
"!%~%{%]%^%/%(%_%:%<%[%}%|%1%2%3%4%5%6%7%8%9%0%a%b%c%d%7 e%b#f%g%",
"u#h%i%j%k%l%m%n%o%p%q%r%s%t%u%v%w%x%y%z%A%B%C%D%E%F%G%H%I%d#J%m+",
"K%L%M%N%O%P%Q%R%S%T%U%V%W%X%Y%Z%`% &.&+&@&#&$&%&&&*&=&-&;&>&,&'&",
")&!&~&{&]&^&/&(&_&:&<&[&}&|&1&2&3&4&5&6&7&8&9&0&a&b&c&d&e&f&g&h&",
"i&j&k&l&m&n&o&p&q&r&s&t&u&v&w&x&y&z&A&B&C&D&E&F&G&H&I&J&K&G#L&M&",
"N&O&P&Q&R&S&T&U&V&W&X&Y&Z&`& *.*+*@*#*##$*%*&***=*-*;*>*,*C#'*)*",
"!*~*{*]*^*/*(*_*:*<*[*}*|*1*2*3*4*5*Y.6*7*8*9*0*a*b*c*d*e*C#f*g*",
"h*i*j*&+k*l*m*n*o*p*q*r*s*t*u*v*w*x*y*}.z*A*B*C*D*E*F*G*H*C#I*J*",
"K*L*5+r.M*N*O*P*Q*R*S*T*U*V*W*X*Y*Z*`* =.=+=@=#=$=%=&=*===-=;=>=",
",='=)=!=~={=]=^=/=(=_=:=<=_=[=}=|=1=2=o$3=4=5=6=7=I.8=9=0=a=b=c=",
"d=e=f=g=h=i=j=k=l=m=n=o=p=q=r=s=t=u=v=w=x=y=z=A=B=C=D=E=F=G=H=I=",
"J=K=L=M=N=O=P=Q=R=S=T=U=V=W=X=Y=Z=`= - -.-+-@-u #-$-%-&-*-=---;-"};
