/* XPM */
static char * wall_1_xpm[] = {
"32 32 166 2",
"  	c #75B44B",
". 	c #76B54C",
"+ 	c #75B34B",
"@ 	c #69A73E",
"# 	c #69A73F",
"$ 	c #6FAB45",
"% 	c #61A037",
"& 	c #6DAC43",
"* 	c #7DBC53",
"= 	c #78B64E",
"- 	c #6EAB43",
"; 	c #69A83F",
"> 	c #63A239",
", 	c #54932A",
"' 	c #6BAA42",
") 	c #77B64D",
"! 	c #6CA842",
"~ 	c #8BBA5A",
"{ 	c #80AF4F",
"] 	c #82B151",
"^ 	c #594028",
"/ 	c #629F38",
"( 	c #62A138",
"_ 	c #91C161",
": 	c #90BF5F",
"< 	c #76B44C",
"[ 	c #6CAA42",
"} 	c #68A73E",
"| 	c #69A640",
"1 	c #8BB95A",
"2 	c #5A3F2E",
"3 	c #9AC769",
"4 	c #64A13A",
"5 	c #6AA940",
"6 	c #70AC46",
"7 	c #594229",
"8 	c #74B24A",
"9 	c #7FBB55",
"0 	c #90C060",
"a 	c #94C063",
"b 	c #5D4A2C",
"c 	c #58932E",
"d 	c #609B36",
"e 	c #5A4629",
"f 	c #5D402A",
"g 	c #6D6B6B",
"h 	c #5D4029",
"i 	c #60442C",
"j 	c #71AD47",
"k 	c #5B3E29",
"l 	c #5B4129",
"m 	c #609B35",
"n 	c #594429",
"o 	c #6DA742",
"p 	c #5B462E",
"q 	c #775539",
"r 	c #5E412B",
"s 	c #5A3E29",
"t 	c #765438",
"u 	c #966B49",
"v 	c #785539",
"w 	c #976C4A",
"x 	c #B7845C",
"y 	c #5A3E28",
"z 	c #5B402B",
"A 	c #6B6969",
"B 	c #79573D",
"C 	c #946A48",
"D 	c #5F422B",
"E 	c #79563A",
"F 	c #7C583C",
"G 	c #966C4A",
"H 	c #7A583F",
"I 	c #5F412B",
"J 	c #7B583B",
"K 	c #60422C",
"L 	c #78563A",
"M 	c #7A573B",
"N 	c #B3805A",
"O 	c #7C583D",
"P 	c #888685",
"Q 	c #7B573B",
"R 	c #B7835C",
"S 	c #956A49",
"T 	c #946949",
"U 	c #7A573A",
"V 	c #B8845C",
"W 	c #B8845D",
"X 	c #966B4A",
"Y 	c #956B49",
"Z 	c #7A563A",
"` 	c #78553A",
" .	c #775439",
"..	c #593D28",
"+.	c #7D5B3F",
"@.	c #936948",
"#.	c #B8855D",
"$.	c #7C583B",
"%.	c #5D412D",
"&.	c #5F422C",
"*.	c #976D4C",
"=.	c #878483",
"-.	c #77583F",
";.	c #6E6C6A",
">.	c #5B3F29",
",.	c #7D593C",
"'.	c #B6835C",
").	c #B5825C",
"!.	c #745843",
"~.	c #B5825B",
"{.	c #B6825B",
"].	c #986D4B",
"^.	c #5D402B",
"/.	c #5C402A",
"(.	c #946948",
"_.	c #77563B",
":.	c #858584",
"<.	c #785639",
"[.	c #946A49",
"}.	c #583C28",
"|.	c #AF7D57",
"1.	c #755338",
"2.	c #B27F59",
"3.	c #765439",
"4.	c #573B28",
"5.	c #745338",
"6.	c #B4815A",
"7.	c #62442D",
"8.	c #898583",
"9.	c #5F4430",
"0.	c #B6835B",
"a.	c #9A6E4B",
"b.	c #B17F59",
"c.	c #7F5A3D",
"d.	c #7E593D",
"e.	c #7A5941",
"f.	c #6F6B69",
"g.	c #B4825C",
"h.	c #986C4A",
"i.	c #9A6E4C",
"j.	c #996E4B",
"k.	c #7A593E",
"l.	c #63452D",
"m.	c #976B4A",
"n.	c #6F6C6A",
"o.	c #79563B",
"p.	c #996D4B",
"q.	c #5C3F2A",
"r.	c #5A402E",
"s.	c #B28059",
"t.	c #868483",
"u.	c #7B593F",
"v.	c #7A563B",
"w.	c #986E4E",
"x.	c #926848",
"y.	c #5A3D29",
"z.	c #986D4A",
"A.	c #5C3F29",
"B.	c #B7835B",
"C.	c #878686",
"D.	c #6D6B6A",
"E.	c #765338",
"F.	c #755843",
"G.	c #B9855D",
"H.	c #868585",
"I.	c #79583E",
"  . + @ # $ % & * = - ; ; > , '   . + @ # $ % & * = - ; ; > , ' ",
") ! ~ { ] ^ ; / ( _ : < / [ } | ) ! ~ { ] ^ ; / ( _ : < / [ } | ",
"1 2 3 4 5 ^ 6 7 8 9 0 a b c d e 1 2 3 4 5 ^ 6 7 8 9 0 a b c d e ",
"f g h i j f k l m n o p q r s t f g h i j f k l m n o p q r s t ",
"u v w x k w v q y s z A B C D E u v w x k w v q y s z A B C D E ",
"F s G u H u s r I E J K L M J N F s G u H u s r I E J K L M J N ",
"x E F O P M M x x Q R R F S F T x E F O P M M x x Q R R F S F T ",
"U E V W X w E E Y r G u U U S T U E V W X w E E Y r G u U U S T ",
"w Z E G E Y ` k E X u M J M f  .w Z E G E Y ` k E X u M J M f  .",
"E w ..J Q y f Z E Q J M R x +.@.E w ..J Q y f Z E Q J M R x +.@.",
"U G E #.V $.V X %.x x &.S *.=.-.U G E #.V $.V X %.x x &.S *.=.-.",
"G L M G w V J G ;.G u E f C $.f G L M G w V J G ;.G u E f C $.f ",
"E >.w E G w V M E L Q L E ,.'.).E >.w E G w V M E L Q L E ,.'.).",
"M X ` Q !.E X Y Q K ~.&.M {.].S M X ` Q !.E X Y Q K ~.&.M {.].S ",
"w E ^.W Z k B /.V x J Y Q Q Y (.w E ^.W Z k B /.V x J Y Q Q Y (.",
"S q '.S S _.:.L S S q <.[.[.` }.S q '.S S _.:.L S S q <.[.[.` }.",
"|.Y @. .1.2.[.@.3.1.4.5.1.6.1.6.|.Y @. .1.2.[.@.3.1.4.5.1.6.1.6.",
"M u 7.v E ].8.9.` ~.Y Z 0.a.>.7.M u 7.v E ].8.9.` ~.Y Z 0.a.>.7.",
"b.c.v f 6.d.e.v ~.c.Q E 7.^.~.q b.c.v f 6.d.e.v ~.c.Q E 7.^.~.q ",
"S f.g.J h.r v ~.i.u U Y ` {.j.E S f.g.J h.r v ~.i.u U Y ` {.j.E ",
"@.k.w ~.l.@.M ,.m.I L n.o.p.f E @.k.w ~.l.@.M ,.m.I L n.o.p.f E ",
"3.f S p.Z u f s q.q E r.E M v R 3.f S p.Z u f s q.q E r.E M v R ",
"s.F M M t.u.v ~.'.Q 0.'.v.u E ].s.F M M t.u.v ~.'.Q 0.'.v.u E ].",
"` E ~.x w.X M F h.q.w ].Z M u w ` E ~.x w.X M F h.q.w ].Z M u w ",
"x.Q J w $.u M >.E S w Q E E q.M x.Q J w $.u M >.E S w Q E E q.M ",
"t S r E E f y.q E U U E R V v X t S r E E f y.q E U U E R V v X ",
"1.Y M {.V J 0.z.A.B.V q.w z.C.Z 1.Y M {.V J 0.z.A.B.V q.w z.C.Z ",
"@.$.E G z.R ,.X D.*.z.E >.w B ..@.$.E G z.R ,.X D.*.z.E >.w B ..",
"E.q.C J u h.x F o.E Z E E Z V V E.q.C J u h.x F o.E Z E E Z V V ",
"1.Y J E F.o.G w M s x >.E V h.w 1.Y J E F.o.G w M s x >.E V h.w ",
"@.J k 0.F k v >.x G.Q X E Z w w @.J k 0.F k v >.x G.Q X E Z w w ",
"@.Q B.p.w M H.I.X w U E w w E ..@.Q B.p.w M H.I.X w U E w w E .."};
