/* XPM */
static char * wall_S_xpm[] = {
"32 32 269 2",
"  	c None",
". 	c #F8C098",
"+ 	c #F6BC93",
"@ 	c #F5BC93",
"# 	c #F6BC92",
"$ 	c #F5BD93",
"% 	c #F6BD93",
"& 	c #F5BC92",
"* 	c #F3B78C",
"= 	c #F3B88C",
"- 	c #F3B78D",
"; 	c #F2B78D",
"> 	c #F2B78C",
", 	c #F2B88D",
"' 	c #F2B88C",
") 	c #F3B88D",
"! 	c #EFB286",
"~ 	c #F0B285",
"{ 	c #F0B386",
"] 	c #F0B286",
"^ 	c #F0B385",
"/ 	c #EFB285",
"( 	c #EFB385",
"_ 	c #EFB386",
": 	c #ECAE7F",
"< 	c #ECAE80",
"[ 	c #EDAE7F",
"} 	c #ECAD7F",
"| 	c #EDAD7F",
"1 	c #E9A979",
"2 	c #EAA879",
"3 	c #E9A978",
"4 	c #E9A879",
"5 	c #EAA979",
"6 	c #EAA978",
"7 	c #E6A472",
"8 	c #E6A473",
"9 	c #E7A472",
"0 	c #E6A373",
"a 	c #E39F6C",
"b 	c #E39F6D",
"c 	c #C88C5F",
"d 	c #916443",
"e 	c #5F412A",
"f 	c #352214",
"g 	c #21140A",
"h 	c #472F1D",
"i 	c #60412A",
"j 	c #7B5438",
"k 	c #9E6D49",
"l 	c #B98157",
"m 	c #DA9967",
"n 	c #E3A06C",
"o 	c #E3A06D",
"p 	c #DF9B67",
"q 	c #E09A67",
"r 	c #E09B66",
"s 	c #E09B67",
"t 	c #DF9A67",
"u 	c #936441",
"v 	c #000000",
"w 	c #B57D52",
"x 	c #DF9B66",
"y 	c #E09A66",
"z 	c #DC9661",
"A 	c #DD9761",
"B 	c #DD9661",
"C 	c #DD9760",
"D 	c #A36E46",
"E 	c #B3794D",
"F 	c #DC9660",
"G 	c #DD9660",
"H 	c #DC9760",
"I 	c #D9925B",
"J 	c #DA925B",
"K 	c #D9935B",
"L 	c #D8925A",
"M 	c #372211",
"N 	c #865835",
"O 	c #C78553",
"P 	c #D68F59",
"Q 	c #D48E59",
"R 	c #C38351",
"S 	c #9E6840",
"T 	c #472D19",
"U 	c #B07548",
"V 	c #D78E56",
"W 	c #D78E55",
"X 	c #D68E56",
"Y 	c #C2804C",
"Z 	c #3C2412",
"` 	c #D68D55",
" .	c #D68E55",
"..	c #D78D56",
"+.	c #D38C54",
"@.	c #A26A3E",
"#.	c #B37646",
"$.	c #D68D56",
"%.	c #D38950",
"&.	c #D48A50",
"*.	c #D38A50",
"=.	c #B87845",
"-.	c #4C2E17",
";.	c #D38A51",
">.	c #D48950",
",.	c #D0864B",
"'.	c #D0854B",
").	c #D1864B",
"!.	c #D0854A",
"~.	c #BF7A43",
"{.	c #8E5A31",
"].	c #C88047",
"^.	c #D1854A",
"/.	c #D0864A",
"(.	c #D1854B",
"_.	c #CD8145",
":.	c #CD8246",
"<.	c #CD8245",
"[.	c #CC8146",
"}.	c #4D2E15",
"|.	c #140902",
"1.	c #633C1D",
"2.	c #86532A",
"3.	c #A36636",
"4.	c #BE783F",
"5.	c #CD8146",
"6.	c #CA7D41",
"7.	c #CA7D40",
"8.	c #CA7E41",
"9.	c #CA7E40",
"0.	c #AC6B36",
"a.	c #140802",
"b.	c #5D3719",
"c.	c #AA6834",
"d.	c #C97D40",
"e.	c #C77A3C",
"f.	c #C77A3B",
"g.	c #C67A3B",
"h.	c #C7793B",
"i.	c #C67A3C",
"j.	c #AE6A32",
"k.	c #563214",
"l.	c #915728",
"m.	c #C7793C",
"n.	c #C47637",
"o.	c #C47537",
"p.	c #C47636",
"q.	c #C37637",
"r.	c #AC6830",
"s.	c #8C5325",
"t.	c #673B18",
"u.	c #2A1605",
"v.	c #0E0501",
"w.	c #B56C32",
"x.	c #C37537",
"y.	c #C37536",
"z.	c #C17231",
"A.	c #C07231",
"B.	c #C17232",
"C.	c #C07232",
"D.	c #C17332",
"E.	c #C07132",
"F.	c #AA642B",
"G.	c #6C3E18",
"H.	c #965725",
"I.	c #BE6E2D",
"J.	c #BE6F2D",
"K.	c #BD6F2E",
"L.	c #BE6F2E",
"M.	c #BE6E2E",
"N.	c #BD6F2D",
"O.	c #BD6E2D",
"P.	c #BD6E2E",
"Q.	c #BC6E2C",
"R.	c #371C06",
"S.	c #894F1E",
"T.	c #BA6B29",
"U.	c #BB6A28",
"V.	c #BA6A29",
"W.	c #B16526",
"X.	c #713F15",
"Y.	c #AD6325",
"Z.	c #BA6A28",
"`.	c #BB6B29",
" +	c #BA6B28",
".+	c #391D06",
"++	c #8F511D",
"@+	c #B76724",
"#+	c #B86725",
"$+	c #B86824",
"%+	c #B86724",
"&+	c #B76824",
"*+	c #AC6121",
"=+	c #060200",
"-+	c #62350E",
";+	c #92501A",
">+	c #A85F20",
",+	c #B36523",
"'+	c #B56524",
")+	c #A95E20",
"!+	c #713D13",
"~+	c #A45C20",
"{+	c #B76725",
"]+	c #B46420",
"^+	c #B46421",
"/+	c #A95E1E",
"(+	c #5B300C",
"_+	c #B56421",
":+	c #B56321",
"<+	c #B1611C",
"[+	c #B1601C",
"}+	c #B1601D",
"|+	c #A85B1A",
"1+	c #170801",
"2+	c #512907",
"3+	c #A95B1A",
"4+	c #B1611D",
"5+	c #AE5D18",
"6+	c #AE5D19",
"7+	c #A95B18",
"8+	c #914D12",
"9+	c #773E0D",
"0+	c #5B2E07",
"a+	c #3F1E04",
"b+	c #230E01",
"c+	c #0B0300",
"d+	c #250F01",
"e+	c #432004",
"f+	c #67350A",
"g+	c #8E4B13",
"h+	c #AC5C18",
"i+	c #AE5E18",
"j+	c #AD5D18",
"k+	c #AB5914",
"l+	c #AA5A15",
"m+	c #AB5A15",
"n+	c #AB5A14",
"o+	c #AA5A14",
"p+	c #A85711",
"q+	c #A85611",
"r+	c #A75710",
"s+	c #A75711",
"t+	c #A85710",
"u+	c #A5530D",
"v+	c #A4530D",
"w+	c #A5540E",
"x+	c #A4540D",
"y+	c #A5540D",
"z+	c #A4540E",
"A+	c #A4530E",
"B+	c #A1510A",
"C+	c #A15109",
"D+	c #A25009",
"E+	c #A25109",
"F+	c #A2500A",
"G+	c #A1500A",
"H+	c #A15009",
"I+	c #A2510A",
"J+	c #9F4D06",
"K+	c #9E4E06",
"L+	c #9E4E07",
"M+	c #9E4D06",
"N+	c #9E4D07",
"O+	c #9C4B03",
"P+	c #9B4B03",
"Q+	c #9B4A03",
"R+	c #9B4B04",
"S+	c #9C4A03",
"T+	c #984800",
". . . . . . . . . . . . . . . . . . . . . . . . . . . . . . . . ",
"+ @ @ @ + + @ + + @ + + + + + # $ + @ + @ # % + + + + + @ + & @ ",
"* * = * = - * ; > ; * * > * > * > > > > ; , > ' * ; * * , > ) * ",
"! ~ { { ] ] ] ! ! ^ ] / ~ { ] ^ / { ^ / ! / ! / ! ( ~ _ / / / { ",
": < [ } } } } [ } [ [ [ | [ } | } : : [ } } } } } : : } | [ < : ",
"1 1 2 3 1 1 4 1 4 1 4 1 3 1 3 1 5 4 4 1 1 1 4 1 6 1 4 1 4 2 3 1 ",
"7 7 8 8 7 8 8 7 8 8 8 7 8 8 8 8 8 8 8 8 8 8 8 7 9 8 8 8 7 0 8 8 ",
"a b a b b a b a a a b c d e f g h i j k l m n a a n n o n b o b ",
"p q r s q r p p r t u v v v v v v v v v v w x r r r r y p s r s ",
"z A B C z B z B z D v v v v v v v v v v v E A A z B F G B B H z ",
"I J K J I K I J L M v v v N O P Q R S T v U J K J J I I J J J I ",
"V V V W X X X W Y v v v Z ` `  ...X W +.@.#. .X W X ..X  .$. .` ",
"%.&.*.*.*.%.*.%.=.v v v -.*.*.*.*.%.*.*.%.*.*.*.%.;.%.&.&.&.>.*.",
",.'.'.).,.'.,.!.~.v v v v {.].!.^.'.'./.'.).,.(.'.,.(.'.'.,./.,.",
"_.:._._._._.<.:.[.}.v v v v |.1.2.3.4.:._.5.5.:._.5.:.:._._._.5.",
"6.7.8.6.7.9.8.8.9.0.a.v v v v v v v v b.c.d.8.6.8.9.7.7.7.6.9.7.",
"e.f.f.e.g.f.h.h.h.i.j.k.v v v v v v v v v l.m.e.m.e.e.f.e.h.e.e.",
"n.o.p.p.q.p.n.o.q.o.n.p.r.s.t.u.v v v v v v.w.p.o.n.x.n.p.p.y.q.",
"z.A.B.C.B.C.B.C.B.D.B.B.C.C.B.E.F.G.v v v v H.C.C.B.B.A.D.A.B.A.",
"I.J.K.L.L.J.I.I.M.N.K.O.M.P.O.I.J.Q.R.v v v S.O.M.M.I.O.J.I.O.J.",
"T.T.T.U.T.V.T.T.W.X.Y.Z.`.U.V.`. +T..+v v v ++T.T.V.T.T.T.T.Z.T.",
"@+#+$+@+%+&+@+$+*+v =+-+;+>+,+'+)+!+v v v v ~+@+@+{+{+@+{+$+{+@+",
"]+]+^+^+^+]+^+^+/+v v v v v v v v v v v v (+^+]+]+_+:+^+^+]+^+^+",
"<+[+[+}+<+[+}+[+|+1+v v v v v v v v v v 2+3+[+4+[+[+4+4+<+[+<+[+",
"5+5+5+6+6+5+5+5+5+7+8+9+0+a+b+c+d+e+f+g+h+6+5+5+i+5+i+6+i+5+5+j+",
"k+l+m+m+n+n+n+m+m+m+o+n+n+o+n+m+n+n+m+n+n+l+m+n+m+o+o+m+m+m+m+n+",
"p+p+p+q+r+s+s+p+p+s+p+p+s+r+s+p+p+p+t+p+r+p+r+p+q+q+s+p+q+s+s+t+",
"u+v+w+u+w+x+x+v+x+y+x+x+y+z+x+x+u+u+x+u+x+v+y+A+y+x+u+x+x+u+v+x+",
"B+C+C+D+E+B+B+C+B+B+C+D+E+C+B+F+D+G+G+H+F+I+I+B+G+I+B+B+E+F+B+G+",
"J+K+L+K+K+L+L+M+K+K+K+K+J+K+K+K+K+N+K+K+K+L+M+K+K+M+M+M+K+K+L+K+",
"O+P+P+Q+P+P+O+R+Q+P+Q+P+P+P+Q+P+R+O+P+Q+P+P+P+P+P+S+P+P+P+R+Q+Q+",
"T+T+T+T+T+T+T+T+T+T+T+T+T+T+T+T+T+T+T+T+T+T+T+T+T+T+T+T+T+T+T+T+"};
