/* XPM */
static char * wall_2_xpm[] = {
"32 32 294 2",
"  	c #75B44B",
". 	c #76B54C",
"+ 	c #75B34B",
"@ 	c #69A73E",
"# 	c #69A73F",
"$ 	c #6FAB45",
"% 	c #61A037",
"& 	c #6DAC43",
"* 	c #7DBC53",
"= 	c #78B64E",
"- 	c #6EAB43",
"; 	c #69A83F",
"> 	c #63A239",
", 	c #54932A",
"' 	c #6BAA42",
") 	c #77B64D",
"! 	c #6CA842",
"~ 	c #8BBA5A",
"{ 	c #80AF4F",
"] 	c #82B151",
"^ 	c #594028",
"/ 	c #629F38",
"( 	c #62A138",
"_ 	c #91C161",
": 	c #90BF5F",
"< 	c #76B44C",
"[ 	c #6CAA42",
"} 	c #68A73E",
"| 	c #69A640",
"1 	c #8BB95A",
"2 	c #5A3F2E",
"3 	c #9AC769",
"4 	c #64A13A",
"5 	c #6AA940",
"6 	c #70AC46",
"7 	c #594229",
"8 	c #74B24A",
"9 	c #7FBB55",
"0 	c #90C060",
"a 	c #94C063",
"b 	c #5D4A2C",
"c 	c #58932E",
"d 	c #609B36",
"e 	c #5A4629",
"f 	c #5D402A",
"g 	c #6D6B6B",
"h 	c #5D4029",
"i 	c #60442C",
"j 	c #71AD47",
"k 	c #5B3E29",
"l 	c #5B4129",
"m 	c #609B35",
"n 	c #594429",
"o 	c #6DA742",
"p 	c #5B462E",
"q 	c #775539",
"r 	c #5E412B",
"s 	c #5A3E29",
"t 	c #765438",
"u 	c #966B49",
"v 	c #785539",
"w 	c #976C4A",
"x 	c #B7845C",
"y 	c #5A3E28",
"z 	c #5B402B",
"A 	c #6B6969",
"B 	c #79573D",
"C 	c #946A48",
"D 	c #5F422B",
"E 	c #79563A",
"F 	c #7C583C",
"G 	c #966C4A",
"H 	c #7A583F",
"I 	c #5F412B",
"J 	c #7B583B",
"K 	c #60422C",
"L 	c #78563A",
"M 	c #7A573B",
"N 	c #B3805A",
"O 	c #7C583D",
"P 	c #888685",
"Q 	c #7B573B",
"R 	c #B7835C",
"S 	c #956A49",
"T 	c #946949",
"U 	c #7A573A",
"V 	c #B8845C",
"W 	c #B8845D",
"X 	c #966B4A",
"Y 	c #956B49",
"Z 	c #7A563A",
"` 	c #78553A",
" .	c #775439",
"..	c #593D28",
"+.	c #7D5B3F",
"@.	c #936948",
"#.	c #B8855D",
"$.	c #7C583B",
"%.	c #5D412D",
"&.	c #5F422C",
"*.	c #976D4C",
"=.	c #878483",
"-.	c #77583F",
";.	c #6E6C6A",
">.	c #5B3F29",
",.	c #7D593C",
"'.	c #B6835C",
").	c #B5825C",
"!.	c #745843",
"~.	c #B5825B",
"{.	c #B6825B",
"].	c #986D4B",
"^.	c #5D402B",
"/.	c #5C402A",
"(.	c #946948",
"_.	c #77563B",
":.	c #858584",
"<.	c #785639",
"[.	c #946A49",
"}.	c #583C28",
"|.	c #645A58",
"1.	c #B1AFB0",
"2.	c #6D6465",
"3.	c #968281",
"4.	c #939097",
"5.	c #907F85",
"6.	c #978488",
"7.	c #7C7C7E",
"8.	c #93898A",
"9.	c #938988",
"0.	c #877F7D",
"a.	c #9B928D",
"b.	c #766D70",
"c.	c #948485",
"d.	c #8C7877",
"e.	c #938082",
"f.	c #8B7F83",
"g.	c #9D9499",
"h.	c #A5A1A2",
"i.	c #716664",
"j.	c #8F8A86",
"k.	c #595353",
"l.	c #9A938D",
"m.	c #7F7075",
"n.	c #948686",
"o.	c #867271",
"p.	c #756B6C",
"q.	c #736864",
"r.	c #A89C9C",
"s.	c #8B8084",
"t.	c #B1A6AC",
"u.	c #847B7C",
"v.	c #595451",
"w.	c #6D6B6C",
"x.	c #B4B0AF",
"y.	c #82786F",
"z.	c #868080",
"A.	c #7B7C7E",
"B.	c #A59CA1",
"C.	c #7F797B",
"D.	c #86878B",
"E.	c #8A8A8C",
"F.	c #968C8B",
"G.	c #786C6E",
"H.	c #786C6C",
"I.	c #A59E98",
"J.	c #9A918C",
"K.	c #9A9290",
"L.	c #A28B85",
"M.	c #948B8C",
"N.	c #605C5B",
"O.	c #787475",
"P.	c #8F9092",
"Q.	c #79706B",
"R.	c #67605A",
"S.	c #A29A98",
"T.	c #968B89",
"U.	c #8C8384",
"V.	c #9E9A9B",
"W.	c #908983",
"X.	c #968D90",
"Y.	c #7B7076",
"Z.	c #9D9296",
"`.	c #7A797F",
" +	c #A29DA1",
".+	c #867878",
"++	c #55504D",
"@+	c #85797B",
"#+	c #B3B1B2",
"$+	c #645C59",
"%+	c #716C68",
"&+	c #9B9595",
"*+	c #9F918E",
"=+	c #7D7B7E",
"-+	c #908484",
";+	c #9B9192",
">+	c #7E7E7E",
",+	c #A59B9C",
"'+	c #928C8C",
")+	c #75716E",
"!+	c #877D7C",
"~+	c #7D7E82",
"{+	c #8C8388",
"]+	c #868487",
"^+	c #B2AAA8",
"/+	c #A39E9B",
"(+	c #938B88",
"_+	c #575350",
":+	c #9B8882",
"<+	c #8B8380",
"[+	c #706C6D",
"}+	c #737176",
"|+	c #726C6C",
"1+	c #5D5B5C",
"2+	c #55514E",
"3+	c #8C8080",
"4+	c #A19795",
"5+	c #827E7F",
"6+	c #939498",
"7+	c #6B6360",
"8+	c #A7A29F",
"9+	c #64656A",
"0+	c #8D8487",
"a+	c #9B9B9B",
"b+	c #98989A",
"c+	c #847C79",
"d+	c #55524D",
"e+	c #827A78",
"f+	c #756565",
"g+	c #817577",
"h+	c #96878A",
"i+	c #706E6F",
"j+	c #706166",
"k+	c #A5A1A0",
"l+	c #605551",
"m+	c #6A6762",
"n+	c #8F8383",
"o+	c #7D7670",
"p+	c #6B6160",
"q+	c #A69C9D",
"r+	c #6C635E",
"s+	c #8B8B8B",
"t+	c #757575",
"u+	c #5D5C5A",
"v+	c #9B9293",
"w+	c #5B5653",
"x+	c #A09E9F",
"y+	c #6D645F",
"z+	c #7E7878",
"A+	c #908780",
"B+	c #ABA29D",
"C+	c #9B9190",
"D+	c #908886",
"E+	c #615859",
"F+	c #A59FA1",
"G+	c #9F9699",
"H+	c #979797",
"I+	c #9A928F",
"J+	c #5D5958",
"K+	c #837874",
"L+	c #8B807C",
"M+	c #978C8A",
"N+	c #ADA9A8",
"O+	c #9D9895",
"P+	c #909090",
"Q+	c #A19CA0",
"R+	c #979191",
"S+	c #645F5C",
"T+	c #A99795",
"U+	c #ABA7A4",
"V+	c #655756",
"W+	c #978C88",
"X+	c #7D7270",
"Y+	c #6D676B",
"Z+	c #867C7A",
"`+	c #929292",
" @	c #7F7A77",
".@	c #AFADAE",
"+@	c #8B807E",
"@@	c #9D928E",
"#@	c #837876",
"$@	c #72605E",
"%@	c #7D706A",
"&@	c #7F7573",
"*@	c #59544E",
"=@	c #8C8784",
"-@	c #574D4C",
";@	c #9B8F91",
">@	c #5D5757",
",@	c #908685",
"'@	c #9B8D84",
")@	c #A79B9B",
"!@	c #A6887E",
"~@	c #979394",
"  . + @ # $ % & * = - ; ; > , '   . + @ # $ % & * = - ; ; > , ' ",
") ! ~ { ] ^ ; / ( _ : < / [ } | ) ! ~ { ] ^ ; / ( _ : < / [ } | ",
"1 2 3 4 5 ^ 6 7 8 9 0 a b c d e 1 2 3 4 5 ^ 6 7 8 9 0 a b c d e ",
"f g h i j f k l m n o p q r s t f g h i j f k l m n o p q r s t ",
"u v w x k w v q y s z A B C D E u v w x k w v q y s z A B C D E ",
"F s G u H u s r I E J K L M J N F s G u H u s r I E J K L M J N ",
"x E F O P M M x x Q R R F S F T x E F O P M M x x Q R R F S F T ",
"U E V W X w E E Y r G u U U S T U E V W X w E E Y r G u U U S T ",
"w Z E G E Y ` k E X u M J M f  .w Z E G E Y ` k E X u M J M f  .",
"E w ..J Q y f Z E Q J M R x +.@.E w ..J Q y f Z E Q J M R x +.@.",
"U G E #.V $.V X %.x x &.S *.=.-.U G E #.V $.V X %.x x &.S *.=.-.",
"G L M G w V J G ;.G u E f C $.f G L M G w V J G ;.G u E f C $.f ",
"E >.w E G w V M E L Q L E ,.'.).E >.w E G w V M E L Q L E ,.'.).",
"M X ` Q !.E X Y Q K ~.&.M {.].S M X ` Q !.E X Y Q K ~.&.M {.].S ",
"w E ^.W Z k B /.V x J Y Q Q Y (.w E ^.W Z k B /.V x J Y Q Q Y (.",
"S q '.S S _.:.L S S q <.[.[.` }.S q '.S S _.:.L S S q <.[.[.` }.",
"|.1.2.3.4.5.6.2.7.2.8.9.0.a.b.c.|.1.2.3.4.5.6.2.7.2.8.9.0.a.b.c.",
"d.e.1.2.f.g.4.2.h.h.i.j.k.l.m.n.d.e.1.2.f.g.4.2.h.h.i.j.k.l.m.n.",
"o.p.2.q.r.s.t.u.2.v.w.x.x.y.2.2.o.p.2.q.r.s.t.u.2.v.w.x.x.y.2.2.",
"z.A.1.B.q.c.C.2.D.E.F.G.G.H.I.J.z.A.1.B.q.c.C.2.D.E.F.G.G.H.I.J.",
"2.K.L.v.M.N.O.2.P.Q.R.S.T.U.V.W.2.K.L.v.M.N.O.2.P.Q.R.S.T.U.V.W.",
"X.t.Y.Z.`. +.+++2.q.@+t.#+$+%+++X.t.Y.Z.`. +.+++2.q.@+t.#+$+%+++",
"&+*+=+-+2.;+>+,+'+)+!+++~+{+]+2.&+*+=+-+2.;+>+,+'+)+!+++~+{+]+2.",
"2.2.^+2./+2.(+_+2.:+<+2.u.[+~+}+2.2.^+2./+2.(+_+2.:+<+2.u.[+~+}+",
"|+1+v.2.2+3+4+5+6+7+2.5.8+2.9.9+|+1+v.2.2+3+4+5+6+7+2.5.8+2.9.9+",
"0+2.a+b+c+2.#+#+d+e+1.f+g+h+i+2+0+2.a+b+c+2.#+#+d+e+1.f+g+h+i+2+",
"j+k+q.2+L.l+m+)+-+)+2.n+u.o+1.p+j+k+q.2+L.l+m+)+-+)+2.n+u.o+1.p+",
"2.2.q+r+q.s+t+u+v+w+x+w+y+2.z+A+2.2.q+r+q.s+t+u+v+w+x+w+y+2.z+A+",
"B+C+D+E+F+u.G+u.2.H+u.V.I+J+K+L+B+C+D+E+F+u.G+u.2.H+u.V.I+J+K+L+",
"q.M+N+u.O+2.P+Q+U.2.R+U.S+T+U+V+q.M+N+u.O+2.P+Q+U.2.R+U.S+T+U+V+",
"W+X+Y+Z+2.`+ @w+.@h.+@@@#@$@%@&@W+X+Y+Z+2.`+ @w+.@h.+@@@#@$@%@&@",
"*@=@-@;@8.2.>@,@w+T+++'@)@2.!@~@*@=@-@;@8.2.>@,@w+T+++'@)@2.!@~@"};
