/* XPM */
static char * wall_W_xpm[] = {
"32 32 283 2",
"  	c None",
". 	c #F8C098",
"+ 	c #F6BC93",
"@ 	c #F5BC93",
"# 	c #F6BC92",
"$ 	c #F5BD93",
"% 	c #F6BD93",
"& 	c #F5BC92",
"* 	c #F3B78C",
"= 	c #F3B88C",
"- 	c #F3B78D",
"; 	c #F2B78D",
"> 	c #F2B78C",
", 	c #F2B88D",
"' 	c #F2B88C",
") 	c #F3B88D",
"! 	c #EFB286",
"~ 	c #F0B285",
"{ 	c #F0B386",
"] 	c #F0B286",
"^ 	c #F0B385",
"/ 	c #EFB285",
"( 	c #EFB385",
"_ 	c #EFB386",
": 	c #ECAE7F",
"< 	c #ECAE80",
"[ 	c #EDAE7F",
"} 	c #ECAD7F",
"| 	c #EDAD7F",
"1 	c #E9A979",
"2 	c #EAA879",
"3 	c #E9A978",
"4 	c #E9A879",
"5 	c #EAA979",
"6 	c #EAA978",
"7 	c #E6A472",
"8 	c #E6A473",
"9 	c #E7A472",
"0 	c #E6A373",
"a 	c #E39F6C",
"b 	c #E39F6D",
"c 	c #D19264",
"d 	c #000000",
"e 	c #D29363",
"f 	c #DD9C6A",
"g 	c #120904",
"h 	c #A4724D",
"i 	c #E3A06C",
"j 	c #875D3E",
"k 	c #966845",
"l 	c #E3A06D",
"m 	c #DF9B67",
"n 	c #E09A67",
"o 	c #E09B66",
"p 	c #E09B67",
"q 	c #3F2818",
"r 	c #B37B50",
"s 	c #C18557",
"t 	c #785134",
"u 	c #DF9B66",
"v 	c #49301D",
"w 	c #B57D52",
"x 	c #DC9661",
"y 	c #DD9761",
"z 	c #DD9661",
"A 	c #DD9760",
"B 	c #7F5435",
"C 	c #8E5F3C",
"D 	c #A06C44",
"E 	c #2F1D0F",
"F 	c #DB9560",
"G 	c #CE8D5A",
"H 	c #CF8C5A",
"I 	c #DC9760",
"J 	c #D9925B",
"K 	c #DA925B",
"L 	c #D9935B",
"M 	c #A36C42",
"N 	c #5A3A21",
"O 	c #754D2D",
"P 	c #C48351",
"Q 	c #B07648",
"R 	c #452C18",
"S 	c #D78E56",
"T 	c #D78E55",
"U 	c #BD7D4B",
"V 	c #CE8752",
"W 	c #D68E55",
"X 	c #D58D54",
"Y 	c #301C0D",
"Z 	c #4C2F19",
"` 	c #A66D40",
" .	c #8C5C36",
"..	c #7F5230",
"+.	c #D68D56",
"@.	c #D68D55",
"#.	c #D38950",
"$.	c #D48A50",
"%.	c #D38A50",
"&.	c #D0884F",
"*.	c #1E0F05",
"=.	c #B37342",
"-.	c #C07C48",
";.	c #392210",
">.	c #986237",
",.	c #80522D",
"'.	c #5A381D",
").	c #A2683B",
"!.	c #D48950",
"~.	c #D0864B",
"{.	c #D0854B",
"].	c #D1864B",
"^.	c #674021",
"/.	c #925C32",
"(.	c #A16638",
"_.	c #754926",
":.	c #B5733F",
"<.	c #482B14",
"[.	c #C98148",
"}.	c #080301",
"|.	c #B97642",
"1.	c #D0864A",
"2.	c #CD8145",
"3.	c #CD8246",
"4.	c #8F582D",
"5.	c #673F1F",
"6.	c #7D4E27",
"7.	c #985E31",
"8.	c #C87F43",
"9.	c #0F0602",
"0.	c #C17940",
"a.	c #CD8146",
"b.	c #AF6D3A",
"c.	c #231206",
"d.	c #CA8045",
"e.	c #CA7D41",
"f.	c #CA7D40",
"g.	c #CA7E41",
"h.	c #AA6934",
"i.	c #1F0F04",
"j.	c #C77C40",
"k.	c #482A11",
"l.	c #B16D38",
"m.	c #CA7E40",
"n.	c #5D3719",
"o.	c #A66633",
"p.	c #C97D40",
"q.	c #8F582B",
"r.	c #673E1C",
"s.	c #C77A3C",
"t.	c #C77A3B",
"u.	c #C67A3B",
"v.	c #BF7538",
"w.	c #B06C33",
"x.	c #BC7337",
"y.	c #180A02",
"z.	c #C3783A",
"A.	c #865125",
"B.	c #865025",
"C.	c #C7793B",
"D.	c #663B1A",
"E.	c #8C5427",
"F.	c #C47637",
"G.	c #C47537",
"H.	c #C47636",
"I.	c #C37637",
"J.	c #4F2C11",
"K.	c #945827",
"L.	c #A2602B",
"M.	c #5D3515",
"N.	c #C37636",
"O.	c #A2602C",
"P.	c #5A3314",
"Q.	c #C17536",
"R.	c #210F03",
"S.	c #A5622D",
"T.	c #C37536",
"U.	c #C17231",
"V.	c #C07231",
"W.	c #C17232",
"X.	c #C07232",
"Y.	c #7B471C",
"Z.	c #704019",
"`.	c #834B1F",
" +	c #844C1F",
".+	c #B66B2F",
"++	c #0D0401",
"@+	c #A5612A",
"#+	c #BA6D30",
"$+	c #C17332",
"%+	c #BE6E2D",
"&+	c #BE6F2D",
"*+	c #BD6F2E",
"=+	c #BE6F2E",
"-+	c #975622",
";+	c #371C07",
">+	c #57300F",
",+	c #9D5A24",
"'+	c #44240A",
")+	c #663914",
"!+	c #4D290D",
"~+	c #BD6E2D",
"{+	c #BA6B29",
"]+	c #BB6A28",
"^+	c #BA6A29",
"/+	c #AC6225",
"(+	c #B16426",
"_+	c #BB6B29",
":+	c #BA6B28",
"<+	c #734015",
"[+	c #774217",
"}+	c #BA6A28",
"|+	c #B76724",
"1+	c #B86725",
"2+	c #B86824",
"3+	c #B86724",
"4+	c #B76824",
"5+	c #341904",
"6+	c #432207",
"7+	c #B76725",
"8+	c #8F4F1A",
"9+	c #92511B",
"0+	c #B46420",
"a+	c #B46421",
"b+	c #66360E",
"c+	c #6F3C10",
"d+	c #B46320",
"e+	c #A45B1D",
"f+	c #A75C1E",
"g+	c #B56321",
"h+	c #B1611C",
"i+	c #B1601C",
"j+	c #B1601D",
"k+	c #844612",
"l+	c #8A4A14",
"m+	c #B05F1C",
"n+	c #291202",
"o+	c #301603",
"p+	c #B1611D",
"q+	c #AE5D18",
"r+	c #AE5D19",
"s+	c #995114",
"t+	c #9E5415",
"u+	c #AD5D18",
"v+	c #5E3009",
"w+	c #623209",
"x+	c #AE5E18",
"y+	c #AB5914",
"z+	c #AA5A15",
"A+	c #AB5A15",
"B+	c #AB5A14",
"C+	c #AA5A14",
"D+	c #A85711",
"E+	c #A85611",
"F+	c #A75710",
"G+	c #A75711",
"H+	c #A85710",
"I+	c #A5530D",
"J+	c #A4530D",
"K+	c #A5540E",
"L+	c #A4540D",
"M+	c #A5540D",
"N+	c #A4540E",
"O+	c #A4530E",
"P+	c #A1510A",
"Q+	c #A15109",
"R+	c #A25009",
"S+	c #A25109",
"T+	c #A2500A",
"U+	c #A1500A",
"V+	c #A15009",
"W+	c #A2510A",
"X+	c #9F4D06",
"Y+	c #9E4E06",
"Z+	c #9E4E07",
"`+	c #9E4D06",
" @	c #9E4D07",
".@	c #9C4B03",
"+@	c #9B4B03",
"@@	c #9B4A03",
"#@	c #9B4B04",
"$@	c #9C4A03",
"%@	c #984800",
". . . . . . . . . . . . . . . . . . . . . . . . . . . . . . . . ",
"+ @ @ @ + + @ + + @ + + + + + # $ + @ + @ # % + + + + + @ + & @ ",
"* * = * = - * ; > ; * * > * > * > > > > ; , > ' * ; * * , > ) * ",
"! ~ { { ] ] ] ! ! ^ ] / ~ { ] ^ / { ^ / ! / ! / ! ( ~ _ / / / { ",
": < [ } } } } [ } [ [ [ | [ } | } : : [ } } } } } : : } | [ < : ",
"1 1 2 3 1 1 4 1 4 1 4 1 3 1 3 1 5 4 4 1 1 1 4 1 6 1 4 1 4 2 3 1 ",
"7 7 8 8 7 8 8 7 8 8 8 7 8 8 8 8 8 8 8 8 8 8 8 7 9 8 8 8 7 0 8 8 ",
"a b a c d d d d e a b b b f g d d d h a a a i a j d d d k b l b ",
"m n o p q d d d r p p o p s d d d d t p o m u o v d d d w p o p ",
"x y z A B d d d C y y x y D d d d d E F z z y G d d d d H z I x ",
"J K L K M d d d N J K K J O d d d d d P K J K Q d d d R K K K J ",
"S S S T U d d d d V W T X Y d d Z d d ` T W W  .d d d ..W +.W @.",
"#.$.%.%.&.*.d d d =.%.#.-.d d ;.>.d d ,.#.%.%.'.d d d ).$.$.!.%.",
"~.{.{.].~.^.d d d /.~.{.(.d d _.:.d d <.{.].[.}.d d d |.{.~.1.~.",
"2.3.2.2.2.4.d d d 5.3.3.6.d d 7.8.9.d d 0.a.b.d d d c.d.2.2.2.a.",
"e.f.g.e.f.h.d d d i.j.f.k.d d l.m.n.d d o.p.q.d d d r.f.f.e.m.f.",
"s.t.t.s.u.v.d d d d w.x.d d y.z.t.A.d d B.C.D.d d d E.t.s.C.s.s.",
"F.G.H.H.I.H.J.d d d K.L.d d M.N.F.O.d d P.Q.R.d d d S.F.H.H.T.I.",
"U.V.W.X.W.X.Y.d d d Z.`.d d  +W.W..+d d ++@+d d d d #+V.$+V.W.V.",
"%+&+*+=+=+&+-+d d d ;+>+d d ,+%+&+&+'+d d )+d d d !+%+~+&+%+~+&+",
"{+{+{+]+{+^+/+d d d d d d d (+_+:+{+<+d d d d d d [+{+{+{+{+}+{+",
"|+1+2+|+3+4+|+5+d d d d d 6+4+1+3+7+8+d d d d d d 9+7+|+7+2+7+|+",
"0+0+a+a+a+0+a+b+d d d d d c+a+0+a+d+e+d d d d d d f+g+a+a+0+a+a+",
"h+i+i+j+h+i+j+k+d d d d d l+i+h+i+i+m+n+d d d d o+i+p+p+h+i+h+i+",
"q+q+q+r+r+q+q+s+d d d d d t+q+r+q+q+u+v+d d d d w+q+x+r+x+q+q+u+",
"y+z+A+A+B+B+B+A+A+A+C+B+B+C+B+A+B+B+A+B+B+z+A+B+A+C+C+A+A+A+A+B+",
"D+D+D+E+F+G+G+D+D+G+D+D+G+F+G+D+D+D+H+D+F+D+F+D+E+E+G+D+E+G+G+H+",
"I+J+K+I+K+L+L+J+L+M+L+L+M+N+L+L+I+I+L+I+L+J+M+O+M+L+I+L+L+I+J+L+",
"P+Q+Q+R+S+P+P+Q+P+P+Q+R+S+Q+P+T+R+U+U+V+T+W+W+P+U+W+P+P+S+T+P+U+",
"X+Y+Z+Y+Y+Z+Z+`+Y+Y+Y+Y+X+Y+Y+Y+Y+ @Y+Y+Y+Z+`+Y+Y+`+`+`+Y+Y+Z+Y+",
".@+@+@@@+@+@.@#@@@+@@@+@+@+@@@+@#@.@+@@@+@+@+@+@+@$@+@+@+@#@@@@@",
"%@%@%@%@%@%@%@%@%@%@%@%@%@%@%@%@%@%@%@%@%@%@%@%@%@%@%@%@%@%@%@%@"};
