/* XPM */
static char * wall_3_xpm[] = {
"32 32 129 2",
"  	c #75B44B",
". 	c #76B54C",
"+ 	c #75B34B",
"@ 	c #69A73E",
"# 	c #69A73F",
"$ 	c #6FAB45",
"% 	c #61A037",
"& 	c #6DAC43",
"* 	c #7DBC53",
"= 	c #78B64E",
"- 	c #6EAB43",
"; 	c #69A83F",
"> 	c #63A239",
", 	c #54932A",
"' 	c #6BAA42",
") 	c #77B64D",
"! 	c #6CA842",
"~ 	c #8BBA5A",
"{ 	c #80AF4F",
"] 	c #82B151",
"^ 	c #594028",
"/ 	c #629F38",
"( 	c #62A138",
"_ 	c #91C161",
": 	c #90BF5F",
"< 	c #76B44C",
"[ 	c #6CAA42",
"} 	c #68A73E",
"| 	c #69A640",
"1 	c #8BB95A",
"2 	c #5A3F2E",
"3 	c #9AC769",
"4 	c #64A13A",
"5 	c #6AA940",
"6 	c #70AC46",
"7 	c #594229",
"8 	c #74B24A",
"9 	c #7FBB55",
"0 	c #90C060",
"a 	c #94C063",
"b 	c #5D4A2C",
"c 	c #58932E",
"d 	c #609B36",
"e 	c #5A4629",
"f 	c #5D402A",
"g 	c #6D6B6B",
"h 	c #5D4029",
"i 	c #60442C",
"j 	c #71AD47",
"k 	c #5B3E29",
"l 	c #5B4129",
"m 	c #609B35",
"n 	c #594429",
"o 	c #6DA742",
"p 	c #5B462E",
"q 	c #775539",
"r 	c #5E412B",
"s 	c #5A3E29",
"t 	c #765438",
"u 	c #966B49",
"v 	c #785539",
"w 	c #976C4A",
"x 	c #B7845C",
"y 	c #5A3E28",
"z 	c #5B402B",
"A 	c #6B6969",
"B 	c #79573D",
"C 	c #946A48",
"D 	c #5F422B",
"E 	c #79563A",
"F 	c #7C583C",
"G 	c #966C4A",
"H 	c #7A583F",
"I 	c #5F412B",
"J 	c #7B583B",
"K 	c #60422C",
"L 	c #78563A",
"M 	c #7A573B",
"N 	c #B3805A",
"O 	c #7C583D",
"P 	c #888685",
"Q 	c #7B573B",
"R 	c #B7835C",
"S 	c #956A49",
"T 	c #946949",
"U 	c #7A573A",
"V 	c #B8845C",
"W 	c #B8845D",
"X 	c #966B4A",
"Y 	c #956B49",
"Z 	c #7A563A",
"` 	c #78553A",
" .	c #775439",
"..	c #593D28",
"+.	c #7D5B3F",
"@.	c #936948",
"#.	c #B8855D",
"$.	c #7C583B",
"%.	c #5D412D",
"&.	c #5F422C",
"*.	c #976D4C",
"=.	c #878483",
"-.	c #77583F",
";.	c #6E6C6A",
">.	c #5B3F29",
",.	c #7D593C",
"'.	c #B6835C",
").	c #B5825C",
"!.	c #745843",
"~.	c #B5825B",
"{.	c #B6825B",
"].	c #986D4B",
"^.	c #5D402B",
"/.	c #5C402A",
"(.	c #946948",
"_.	c #77563B",
":.	c #858584",
"<.	c #785639",
"[.	c #946A49",
"}.	c #583C28",
"|.	c #7F7F7F",
"1.	c #747474",
"2.	c #8F8F8F",
"3.	c #686868",
"4.	c #BD9981",
"5.	c #D8AF93",
"6.	c #AE8E77",
"7.	c #E3C0AA",
"8.	c #BD9980",
"  . + @ # $ % & * = - ; ; > , '   . + @ # $ % & * = - ; ; > , ' ",
") ! ~ { ] ^ ; / ( _ : < / [ } | ) ! ~ { ] ^ ; / ( _ : < / [ } | ",
"1 2 3 4 5 ^ 6 7 8 9 0 a b c d e 1 2 3 4 5 ^ 6 7 8 9 0 a b c d e ",
"f g h i j f k l m n o p q r s t f g h i j f k l m n o p q r s t ",
"u v w x k w v q y s z A B C D E u v w x k w v q y s z A B C D E ",
"F s G u H u s r I E J K L M J N F s G u H u s r I E J K L M J N ",
"x E F O P M M x x Q R R F S F T x E F O P M M x x Q R R F S F T ",
"U E V W X w E E Y r G u U U S T U E V W X w E E Y r G u U U S T ",
"w Z E G E Y ` k E X u M J M f  .w Z E G E Y ` k E X u M J M f  .",
"E w ..J Q y f Z E Q J M R x +.@.E w ..J Q y f Z E Q J M R x +.@.",
"U G E #.V $.V X %.x x &.S *.=.-.U G E #.V $.V X %.x x &.S *.=.-.",
"G L M G w V J G ;.G u E f C $.f G L M G w V J G ;.G u E f C $.f ",
"E >.w E G w V M E L Q L E ,.'.).E >.w E G w V M E L Q L E ,.'.).",
"M X ` Q !.E X Y Q K ~.&.M {.].S M X ` Q !.E X Y Q K ~.&.M {.].S ",
"w E ^.W Z k B /.V x J Y Q Q Y (.w E ^.W Z k B /.V x J Y Q Q Y (.",
"S q '.S S _.:.L S S q <.[.[.` }.S q '.S S _.:.L S S q <.[.[.` }.",
"|.1.1.1.1.|.2.2.3.2.|.1.1.1.1.|.|.1.1.1.1.|.2.2.3.2.|.1.1.1.1.|.",
"|.|.2.2.2.2.2.2.1.2.2.2.3.|.|.1.|.|.2.2.2.2.2.2.1.2.2.2.3.|.|.1.",
"|.3.1.1.4.1.1.1.2.1.|.|.5.4.|.|.|.3.1.1.4.1.1.1.2.1.|.|.5.4.|.|.",
"|.2.|.|.|.3.|.5.6.|.1.1.1.1.1.|.|.2.|.|.|.3.|.5.6.|.1.1.1.1.1.|.",
"|.2.2.1.1.1.1.1.1.1.2.2.2.2.2.3.|.2.2.1.1.1.1.1.1.1.2.2.2.2.2.3.",
"1.1.|.|.|.7.5.1.|.3.7.5.1.1.3.|.1.1.|.|.|.7.5.1.|.3.7.5.1.1.3.|.",
"2.2.|.7.5.4.4.6.|.|.4.6.2.2.2.3.2.2.|.7.5.4.4.6.|.|.4.6.2.2.2.3.",
"|.|.|.1.1.1.1.1.1.3.1.1.1.1.|.|.|.|.|.1.1.1.1.1.1.3.1.1.1.1.|.|.",
"|.5.4.3.2.1.|.|.7.5.2.2.2.2.2.2.|.5.4.3.2.1.|.|.7.5.2.2.2.2.2.2.",
"|.1.1.1.1.1.1.5.6.6.6.1.1.1.2.|.|.1.1.1.1.1.1.5.6.6.6.1.1.1.2.|.",
"|.|.2.1.4.2.2.1.3.1.2.2.2.|.|.|.|.|.2.1.4.2.2.1.3.1.2.2.2.|.|.|.",
"3.|.|.|.1.|.|.|.2.2.|.5.6.2.2.3.3.|.|.|.1.|.|.|.2.2.|.5.6.2.2.3.",
"|.1.1.1.1.1.1.1.5.7.5.4.8.6.1.|.|.1.1.1.1.1.1.1.5.7.5.4.8.6.1.|.",
"|.2.1.5.6.|.|.1.1.6.6.1.|.|.2.2.|.2.1.5.6.|.|.1.1.6.6.1.|.|.2.2.",
"|.|.|.1.1.1.1.1.|.|.2.2.|.1.1.|.|.|.|.1.1.1.1.1.|.|.2.2.|.1.1.|.",
"1.1.1.1.3.2.2.|.|.|.|.1.1.1.|.|.1.1.1.1.3.2.2.|.|.|.|.1.1.1.|.|."};
