/* XPM */
static char * wall_3_xpm[] = {
"32 32 349 2",
"  	c None",
". 	c #463926",
"+ 	c #4E402A",
"@ 	c #695534",
"# 	c #6C5837",
"$ 	c #77603C",
"% 	c #9B7B4C",
"& 	c #8F7146",
"* 	c #3D301D",
"= 	c #493B24",
"- 	c #6D5938",
"; 	c #765F3B",
"> 	c #957546",
", 	c #8A6C41",
"' 	c #413421",
") 	c #4A3B25",
"! 	c #665231",
"~ 	c #685433",
"{ 	c #675332",
"] 	c #6B5634",
"^ 	c #7C623F",
"/ 	c #79603D",
"( 	c #705B39",
"_ 	c #785F3D",
": 	c #755E3A",
"< 	c #9C7C4D",
"[ 	c #947649",
"} 	c #453825",
"| 	c #4D3E28",
"1 	c #745D3A",
"2 	c #8E7045",
"3 	c #836840",
"4 	c #4D3D26",
"5 	c #7B623D",
"6 	c #896C40",
"7 	c #80653C",
"8 	c #544329",
"9 	c #735B37",
"0 	c #6F5935",
"a 	c #614E2F",
"b 	c #624F30",
"c 	c #6D5735",
"d 	c #836741",
"e 	c #7E643F",
"f 	c #675435",
"g 	c #6C5736",
"h 	c #785F3C",
"i 	c #645131",
"j 	c #715B37",
"k 	c #927548",
"l 	c #3F321F",
"m 	c #483A23",
"n 	c #655130",
"o 	c #6F5B3A",
"p 	c #382B18",
"q 	c #392C19",
"r 	c #59462B",
"s 	c #987849",
"t 	c #8C6F43",
"u 	c #725B37",
"v 	c #99794A",
"w 	c #8D6F44",
"x 	c #483923",
"y 	c #745D39",
"z 	c #9A7A4B",
"A 	c #4C3D26",
"B 	c #58462B",
"C 	c #745C3A",
"D 	c #604C2E",
"E 	c #8E7043",
"F 	c #3E311E",
"G 	c #473823",
"H 	c #645030",
"I 	c #655131",
"J 	c #655233",
"K 	c #3A2D1A",
"L 	c #5F4B2E",
"M 	c #403320",
"N 	c #493B25",
"O 	c #725B38",
"P 	c #8A6D44",
"Q 	c #967647",
"R 	c #8D7043",
"S 	c #433420",
"T 	c #5F4B30",
"U 	c #604C30",
"V 	c #64502F",
"W 	c #5E4B2C",
"X 	c #4A3C26",
"Y 	c #745D38",
"Z 	c #735C37",
"` 	c #8C6E43",
" .	c #3C2F1C",
"..	c #473822",
"+.	c #614D2F",
"@.	c #4C3C25",
"#.	c #5A472E",
"$.	c #5C492E",
"%.	c #634F2F",
"&.	c #4C3C26",
"*.	c #6D5736",
"=.	c #755D39",
"-.	c #947548",
";.	c #886C42",
">.	c #826741",
",.	c #7A603C",
"'.	c #4A3B24",
").	c #58462C",
"!.	c #836842",
"~.	c #7B613D",
"{.	c #5E4B2E",
"].	c #896C42",
"^.	c #675335",
"/.	c #4C3D27",
"(.	c #634F2E",
"_.	c #5D4A2B",
":.	c #503F28",
"<.	c #735B3A",
"[.	c #735C38",
"}.	c #5A472B",
"|.	c #907247",
"1.	c #423522",
"2.	c #51412A",
"3.	c #665334",
"4.	c #443724",
"5.	c #604D2E",
"6.	c #57452B",
"7.	c #745C3B",
"8.	c #4A3C25",
"9.	c #514128",
"0.	c #715A37",
"a.	c #907246",
"b.	c #856940",
"c.	c #745C38",
"d.	c #504029",
"e.	c #6A5635",
"f.	c #645031",
"g.	c #6B5736",
"h.	c #6E5A39",
"i.	c #59462A",
"j.	c #4E3D26",
"k.	c #655132",
"l.	c #493A25",
"m.	c #514129",
"n.	c #836841",
"o.	c #816640",
"p.	c #755D3B",
"q.	c #675334",
"r.	c #4B3C26",
"s.	c #57452A",
"t.	c #947549",
"u.	c #896C43",
"v.	c #4D3C25",
"w.	c #705938",
"x.	c #695535",
"y.	c #614D31",
"z.	c #927447",
"A.	c #645132",
"B.	c #725A36",
"C.	c #8F6F40",
"D.	c #84663B",
"E.	c #4F3E27",
"F.	c #665133",
"G.	c #665333",
"H.	c #917346",
"I.	c #634F31",
"J.	c #665232",
"K.	c #6D5634",
"L.	c #493A24",
"M.	c #6E5836",
"N.	c #86683C",
"O.	c #7B6038",
"P.	c #6C5735",
"Q.	c #54432A",
"R.	c #977748",
"S.	c #8E7044",
"T.	c #624E2D",
"U.	c #554226",
"V.	c #917142",
"W.	c #86683D",
"X.	c #765E3C",
"Y.	c #58472D",
"Z.	c #534229",
"`.	c #372A17",
" +	c #4B3A23",
".+	c #7A613D",
"++	c #524129",
"@+	c #8F7144",
"#+	c #5C482A",
"$+	c #614D2D",
"%+	c #755E39",
"&+	c #564328",
"*+	c #937344",
"=+	c #876A3E",
"-+	c #4D3D25",
";+	c #765D3C",
">+	c #56452C",
",+	c #44361F",
"'+	c #534127",
")+	c #8E7145",
"!+	c #5B482C",
"~+	c #524228",
"{+	c #6B5534",
"]+	c #765E3A",
"^+	c #775F3B",
"/+	c #574429",
"(+	c #917347",
"_+	c #866A41",
":+	c #58452B",
"<+	c #4F3E26",
"[+	c #795F3B",
"}+	c #504027",
"|+	c #705939",
"1+	c #715C3A",
"2+	c #6B5636",
"3+	c #705C3B",
"4+	c #78613D",
"5+	c #947445",
"6+	c #896B40",
"7+	c #635031",
"8+	c #4F3F28",
"9+	c #755E3B",
"0+	c #8D6F43",
"a+	c #85693F",
"b+	c #5C492D",
"c+	c #5F4C2E",
"d+	c #524128",
"e+	c #58452A",
"f+	c #886A3F",
"g+	c #6D5937",
"h+	c #907347",
"i+	c #4E3F29",
"j+	c #514029",
"k+	c #705937",
"l+	c #97774B",
"m+	c #8B6F45",
"n+	c #42341F",
"o+	c #5B472A",
"p+	c #8B6E43",
"q+	c #8B6D42",
"r+	c #52412A",
"s+	c #7D633E",
"t+	c #53432C",
"u+	c #463722",
"v+	c #6F5838",
"w+	c #9F7F50",
"x+	c #927549",
"y+	c #8F7246",
"z+	c #433623",
"A+	c #5A482C",
"B+	c #8D6F42",
"C+	c #52422B",
"D+	c #3B2E1C",
"E+	c #493922",
"F+	c #705935",
"G+	c #685331",
"H+	c #453622",
"I+	c #3F3220",
"J+	c #79623E",
"K+	c #8D7044",
"L+	c #42331F",
"M+	c #6F5737",
"N+	c #9D7D4E",
"O+	c #503F27",
"P+	c #816641",
"Q+	c #785E3C",
"R+	c #59462C",
"S+	c #947648",
"T+	c #43341F",
"U+	c #6F5837",
"V+	c #917245",
"W+	c #3B2E1B",
"X+	c #584529",
"Y+	c #44351F",
"Z+	c #453620",
"`+	c #715A36",
" @	c #5D492A",
".@	c #967749",
"+@	c #8A6D43",
"@@	c #3F311D",
"#@	c #483922",
"$@	c #97784A",
"%@	c #8B6E44",
"&@	c #3B2D1B",
"*@	c #473821",
"=@	c #463823",
"-@	c #4D3E26",
";@	c #705835",
">@	c #927346",
",@	c #876A40",
"'@	c #6A5534",
")@	c #695330",
"!@	c #65502F",
"~@	c #624D30",
"{@	c #6A5636",
"]@	c #54442A",
"^@	c #4B3D27",
"/@	c #655032",
"(@	c #53432A",
"_@	c #6B5737",
":@	c #715B39",
"<@	c #6E5937",
"[@	c #65512F",
"}@	c #6C5734",
"|@	c #927345",
"1@	c #937346",
"2@	c #8B6E42",
"3@	c #574428",
"4@	c #927243",
"5@	c #8B6D40",
"6@	c #6A5433",
"7@	c #3D2F1C",
"8@	c #967648",
"9@	c #8A6D42",
"0@	c #6E5837",
"a@	c #7B613E",
"b@	c #4E3F27",
"c@	c #4B3C25",
"d@	c #907142",
"e@	c #8A6C40",
"f@	c #453720",
"g@	c #725A39",
"h@	c #40321E",
"i@	c #4A3B23",
"j@	c #614D30",
"k@	c #473923",
"l@	c #624E30",
"m@	c #645645",
"n@	c #655745",
"o@	c #6B5C47",
"p@	c #6E5E48",
"q@	c #7A664E",
"r@	c #73614B",
"s@	c #4D463D",
"t@	c #534A3F",
"u@	c #685945",
"v@	c #685A45",
"w@	c #6B5D48",
"x@	c #665845",
"y@	c #4F473E",
"z@	c #554C40",
"A@	c #6E5F49",
"B@	c #6D5E49",
"C@	c #6A5B47",
"D@	c #655744",
"E@	c #49423B",
"F@	c #51483E",
"G@	c #6C5C47",
"H@	c #77644D",
". + @ @ # $ % & * = - ; > , ' ) ! ! ~ ~ { ] ^ / - ( ^ _ @ : < [ ",
"} | ~ @ # 1 2 3 * 4 $ 5 6 7 ) 8 9 0 a b { c d e f g ^ h i j % k ",
"l m n { o f p q l r s t ' ) ! u v w * x ~ y z & A B ^ C A D > E ",
"F G H I - J K * = L s t M N ! u v w * x { O [ P A B ^ C A D Q R ",
"K S T U V W ' X ~ Y v w F x { Z s `  ...{ ] ^ C A B ^ C A +.v w ",
"x @.#.$.%.W ' &.*.=.-.;.F x { Z s `  ...{ c >.,.'.).!.~.) {.-.].",
"- ^.} /.(._.M :.^ ^ ^ <.F x ~ [.s `  ...~ [.s ` * }.< |.1.2.^ _ ",
"# 3.4./.n 5.) 6.^ ^ ^ 7.8.9.~ 0.a.b.* x ~ c.s t * }.< |.' d.^ h ",
"e.f.' /.# g.{ ] ^ ^ ^ / # g.{ ~ h.f 1./.e.: z 2 * i.z 2  .j.^ C ",
"e.k.l.m.# g.{ c n.o._ p.g.e.{ ~ - q.' r.e.y s ` * s.t.u.* v.h w.",
"# x.T y.# g.! 9 z z.~ { ! { e.e.g.A.* x @ B.C.D.F E.^ <.M ) { 5.",
"g.e.F.F.3.G.{ [.v H.{ ! ! I I.J.=.K.* L.M.9 N.O.* j.^ <.M N ~ a ",
"~ P.^ C A Q.# ; R.S.T.(.~ a  .U.V.W. .j.^ X.Y.Z.`. +^ <.F 8.h.3.",
"~ M.n..+= ++# ; s @+#+$+%+c * &+*+=+ .-+^ ;+>+Z.,+'+^ <.F 8.h.3.",
"g.; z 2 F L.g.; % & * i.z )+' !+v w K @.^ C A ~+! {+^ <.l r.h.3.",
"e.]+z 2 F ) # ^+z 2 F /+(+_+' :+a.b. .<+o.[+L.}+{ {+/ |+l A 1+2+",
"@ y v w l /.3+4+5+6+' r.@ I.M ) @ 7+1.r *+=+ .m # # g.A.l 8+^ _ ",
"@ y z 2 ' /.h.9+0+a+}.b+I.c+r.d+@ I.M e+*+f+* L.# g+: c l :.^ _ ",
"@ : < h+. i+{ ~ - ; 5+6+1./.e.e.e.I.q U.> , 1./.g.%+> , ' j+^ _ ",
"7+k+l+m+} | { ~ # : 5+6 ' X @ ~ 7+{.n+o+R.p+1./.g.: Q q+' r+o.s+",
"} t+^ <.M ) e.@ { u Q , K ,+V W F u+T v+w+x+M ) e.]+% y+z+A+> B+",
"4.C+^ <.M ) @ @ ~ [.R.q+D+E+F+G+* H+T v+w+x+I+) e.]+z & 1.A+Q 0+",
"F E.^ <.l L.{ ~ o J+z )+1.b+z K+p L+T M+N+h+* L.# ; R.q+ .i.% )+",
"F O+P+Q+F x { ~ h.4+z 2 ' R+S+;.q T+U U+< |.* L.# 1 V+a+* i.% 2 ",
"W+X+z S.q Y+! { g.; z K+p Z+e.7+l m n `+R.q+ .x e.~ T. @M }.s ` ",
" ./+.@+@@@#@{ { e.: $@%@&@*@e.A.=@-@n ;@>@,@ .x e.'@)@!@d+~@V+b.",
"' /.- {@T y.# g.~ P.^ C A ]@h.h.- g.(.V { +.* x e.Y 5+Q < y+K K ",
"M ^@# g./@k.x.x.~ P.^ C A (@_@# :@<@(.[@}@n * x @ [.|@1@$@%@@@@@",
"K Z+{ u R.2@M r.g.<@^ C A ) F 3@4@5@~ [.s ` W+Z+n 6@^ <.* ..{ b ",
"7@*@{ u 8@9@M X e.0@a@C b@c@F &+d@e@~ [.8@9@W+f@n 6@a@g@h@i@~ H ",
"T j@~ P.^ <.F k@V n @ @ ~ l@M ) @ @ # g.{ 5.`.Y+{ { @ ~ n 6@^ _ ",
"m@n@o@p@q@r@s@t@u@v@w@w@o@x@y@z@w@w@A@B@C@D@E@F@C@C@w@o@v@G@q@H@"};
