/* XPM */
static char * wall_3_xpm[] = {
"32 32 8 1",
" 	c #663300",
".	c #CC6633",
"+	c #FFAE4C",
"@	c #FFCC66",
"#	c #FFCC33",
"$	c #FFC054",
"%	c #FF9933",
"&	c #FFCC99",
" .+@#@@+$$%@@@+@&#@@@@+$+@@@+@@@",
" .+@#@@+$$%@@@+@&#@@@+$$+@@@+@@@",
" .+@#@@+$$%@@@+@&#@@@+$$+@@@+@@@",
" .+@#@@+$$%@@@+@&#@@@+$$+@@@+@@@",
" .+@#@@+$$%@@+@@&#@@@+$$+@@@+@@@",
" .+@#@@+$$%@@+@@&#@@@+$$+@@@+@@@",
" .+@#@@+$$%@@+@@&#@@@+$$+@@@+@@@",
" .+@#@@+$$%@@+@@&#@@@@+$+@@@+@@+",
" .+@#@@+$$%@@+@@&#@@@@+$+@@@+@@+",
" .+@#@@+$$%@@+@@&#@@@@+$+@@@+@+@",
" .+@#@@+$$%@@+@@&#@@@@+$+@@@+@+@",
" .+@#@@+$$%@@+@@&#@@@@+$+@@@+@+@",
" .+@#@@+$$%@@+@@&#@@@@+$+@@@+@+@",
" .+@#@@+$$%@@+@@&#@@@@+$+@@@+@+@",
" .+@#@@+$$%@@+@@&#@@@@+$+@@@+@+@",
" .+@#@@+$$%@@+@@&#@@@@+$+@@@+@+@",
" .+@#@@+$$%@@+@@&#@@@@+$+@@@+@+@",
" .+@#@@+$$%@@+@@&#@@@@+$+@@@+@+@",
" .+@#@@+$$%@@+@@&#@@@@+$+@@@+@+@",
" .+@#@@+$$%@@+@@&#@@@@+$+@@+@@+@",
" .+@#@@+$$%@@+@@&#@@@@+$+@@+@@+@",
" .+@#@@+$$%@@+@@&#@@@@+$$+@+@@+@",
" .+@#@@+$$%@@+@@&#@@@@+$$+@+@@+@",
" .+@#@@+$$%@@+@@&#@@@@+$$+@+@@+@",
" .+@#@@+$$%@@+@@&#@@@@+$$+@+@@+@",
" .+@#@@+$$%@@+@@&#@@@@+$$+@+@@+@",
" .+@#@@+$$%@@+@@&#@@@@+$$+@+@@+@",
" .+@#@@+$$%@@+@@&#@@@+$$$+@+@@+@",
" .+@#@@+$$%@@+@@&#@@@+$$$+@+@@+@",
" .+@#@+$$$%@@+@@&#@@@+$$+@@+@@+@",
" .+@#@+$$$%@@+@@&#@@@+$$+@@+@@+@",
" .+@#@+$$$%@@+@@&#@@@+$$+@@+@@+@"};
