/* XPM */
static char * wall_N_xpm[] = {
"32 32 264 2",
"  	c None",
". 	c #F8C098",
"+ 	c #F6BC93",
"@ 	c #F5BC93",
"# 	c #F6BC92",
"$ 	c #F5BD93",
"% 	c #F6BD93",
"& 	c #F5BC92",
"* 	c #F3B78C",
"= 	c #F3B88C",
"- 	c #F3B78D",
"; 	c #F2B78D",
"> 	c #F2B78C",
", 	c #F2B88D",
"' 	c #F2B88C",
") 	c #F3B88D",
"! 	c #EFB286",
"~ 	c #F0B285",
"{ 	c #F0B386",
"] 	c #F0B286",
"^ 	c #F0B385",
"/ 	c #EFB285",
"( 	c #EFB385",
"_ 	c #EFB386",
": 	c #ECAE7F",
"< 	c #ECAE80",
"[ 	c #EDAE7F",
"} 	c #ECAD7F",
"| 	c #EDAD7F",
"1 	c #E9A979",
"2 	c #EAA879",
"3 	c #E9A978",
"4 	c #E9A879",
"5 	c #EAA979",
"6 	c #EAA978",
"7 	c #E6A472",
"8 	c #E6A473",
"9 	c #E7A472",
"0 	c #E6A373",
"a 	c #E39F6C",
"b 	c #E39F6D",
"c 	c #6D4A30",
"d 	c #000000",
"e 	c #A6744E",
"f 	c #E3A06C",
"g 	c #B67F55",
"h 	c #513622",
"i 	c #E3A06D",
"j 	c #DF9B67",
"k 	c #E09A67",
"l 	c #E09B66",
"m 	c #E09B67",
"n 	c #6C482D",
"o 	c #372314",
"p 	c #D89662",
"q 	c #B37B51",
"r 	c #4F341F",
"s 	c #E09A66",
"t 	c #DC9661",
"u 	c #DD9761",
"v 	c #DD9661",
"w 	c #DD9760",
"x 	c #6A462B",
"y 	c #9C6943",
"z 	c #DC9761",
"A 	c #B1774C",
"B 	c #4E331E",
"C 	c #DC9660",
"D 	c #DD9660",
"E 	c #DC9760",
"F 	c #D9925B",
"G 	c #DA925B",
"H 	c #D9935B",
"I 	c #694428",
"J 	c #2E1B0D",
"K 	c #D18C57",
"L 	c #AE7447",
"M 	c #4D311B",
"N 	c #D78E56",
"O 	c #D78E55",
"P 	c #D68E56",
"Q 	c #674225",
"R 	c #936038",
"S 	c #D78D56",
"T 	c #AB7142",
"U 	c #4B2F19",
"V 	c #D68E55",
"W 	c #D68D56",
"X 	c #D68D55",
"Y 	c #D38950",
"Z 	c #D48A50",
"` 	c #D38A50",
" .	c #654022",
"..	c #251407",
"+.	c #241407",
"@.	c #C8834C",
"#.	c #A96E3E",
"$.	c #4A2E17",
"%.	c #D38A51",
"&.	c #D48950",
"*.	c #D0864B",
"=.	c #D0854B",
"-.	c #D1864B",
";.	c #D0854A",
">.	c #643D1F",
",.	c #8A572E",
"'.	c #241306",
").	c #8A562E",
"!.	c #A66A3A",
"~.	c #492C15",
"{.	c #D1854B",
"].	c #D0864A",
"^.	c #CD8145",
"/.	c #CD8246",
"(.	c #CD8245",
"_.	c #623B1D",
":.	c #985F31",
"<.	c #8C572D",
"[.	c #1D0E04",
"}.	c #C07A41",
"|.	c #A46736",
"1.	c #482A13",
"2.	c #CD8146",
"3.	c #CA7D41",
"4.	c #CA7D40",
"5.	c #CA7E41",
"6.	c #CA7E40",
"7.	c #603A1A",
"8.	c #965C2E",
"9.	c #C2793E",
"0.	c #2A1607",
"a.	c #814F26",
"b.	c #A26331",
"c.	c #472911",
"d.	c #C77A3C",
"e.	c #C77A3B",
"f.	c #C67A3B",
"g.	c #C7793B",
"h.	c #5F3717",
"i.	c #93592A",
"j.	c #8C5527",
"k.	c #130802",
"l.	c #B97136",
"m.	c #9E602D",
"n.	c #46270F",
"o.	c #C7793C",
"p.	c #C47637",
"q.	c #C47537",
"r.	c #C47636",
"s.	c #C37637",
"t.	c #5D3515",
"u.	c #905626",
"v.	c #BD7134",
"w.	c #2E1806",
"x.	c #78461E",
"y.	c #9C5D2A",
"z.	c #44260D",
"A.	c #C37537",
"B.	c #C37536",
"C.	c #C17231",
"D.	c #C07231",
"E.	c #C17232",
"F.	c #C07232",
"G.	c #5C3313",
"H.	c #8E5322",
"I.	c #8C5122",
"J.	c #070200",
"K.	c #834C1F",
"L.	c #43240B",
"M.	c #C17332",
"N.	c #BE6E2D",
"O.	c #BE6F2D",
"P.	c #BD6F2E",
"Q.	c #BE6F2E",
"R.	c #5A3111",
"S.	c #8D501F",
"T.	c #BD6E2E",
"U.	c #BD6E2D",
"V.	c #B96B2C",
"W.	c #341A06",
"X.	c #200E02",
"Y.	c #422309",
"Z.	c #BE6E2E",
"`.	c #BA6B29",
" +	c #BB6A28",
".+	c #BA6A29",
"++	c #59300E",
"@+	c #8A4E1C",
"#+	c #BB6B29",
"$+	c #8A4E1B",
"%+	c #402108",
"&+	c #BA6A28",
"*+	c #B76724",
"=+	c #B86725",
"-+	c #B86824",
";+	c #B86724",
">+	c #B76824",
",+	c #572E0C",
"'+	c #884B18",
")+	c #B46523",
"!+	c #381B05",
"~+	c #3F2006",
"{+	c #B76725",
"]+	c #B46420",
"^+	c #B46421",
"/+	c #552C0A",
"(+	c #854816",
"_+	c #8A4A16",
":+	c #3E1F05",
"<+	c #B56421",
"[+	c #B56321",
"}+	c #B1611C",
"|+	c #B1601C",
"1+	c #B1601D",
"2+	c #542A08",
"3+	c #834512",
"4+	c #AE5F1B",
"5+	c #3C1C04",
"6+	c #3D1E04",
"7+	c #B1611D",
"8+	c #AE5D18",
"9+	c #AE5D19",
"0+	c #522906",
"a+	c #80430F",
"b+	c #874810",
"c+	c #3C1C03",
"d+	c #AE5E18",
"e+	c #AD5D18",
"f+	c #AB5914",
"g+	c #AA5A15",
"h+	c #AB5A15",
"i+	c #AB5A14",
"j+	c #AA5A14",
"k+	c #A85711",
"l+	c #A85611",
"m+	c #A75710",
"n+	c #A75711",
"o+	c #A85710",
"p+	c #A5530D",
"q+	c #A4530D",
"r+	c #A5540E",
"s+	c #A4540D",
"t+	c #A5540D",
"u+	c #A4540E",
"v+	c #A4530E",
"w+	c #A1510A",
"x+	c #A15109",
"y+	c #A25009",
"z+	c #A25109",
"A+	c #A2500A",
"B+	c #A1500A",
"C+	c #A15009",
"D+	c #A2510A",
"E+	c #9F4D06",
"F+	c #9E4E06",
"G+	c #9E4E07",
"H+	c #9E4D06",
"I+	c #9E4D07",
"J+	c #9C4B03",
"K+	c #9B4B03",
"L+	c #9B4A03",
"M+	c #9B4B04",
"N+	c #9C4A03",
"O+	c #984800",
". . . . . . . . . . . . . . . . . . . . . . . . . . . . . . . . ",
"+ @ @ @ + + @ + + @ + + + + + # $ + @ + @ # % + + + + + @ + & @ ",
"* * = * = - * ; > ; * * > * > * > > > > ; , > ' * ; * * , > ) * ",
"! ~ { { ] ] ] ! ! ^ ] / ~ { ] ^ / { ^ / ! / ! / ! ( ~ _ / / / { ",
": < [ } } } } [ } [ [ [ | [ } | } : : [ } } } } } : : } | [ < : ",
"1 1 2 3 1 1 4 1 4 1 4 1 3 1 3 1 5 4 4 1 1 1 4 1 6 1 4 1 4 2 3 1 ",
"7 7 8 8 7 8 8 7 8 8 8 7 8 8 8 8 8 8 8 8 8 8 8 7 9 8 8 8 7 0 8 8 ",
"a b a b b a b a c d d d d e b f b a b g d d d h a f f i f b i b ",
"j k l m k l j j n d d d d o p k m m m q d d d r l l l s j m l m ",
"t u v w t v t v x d d d d d y w z u z A d d d B t v C D v v E t ",
"F G H G F H F G I d d d d d J K F F G L d d d M G G F F G G G F ",
"N N N O P P P O Q d d d d d d R S P O T d d d U O P S P V W V X ",
"Y Z ` ` ` Y ` Y  .d d d ..d d +.@.Y ` #.d d d $.Y %.Y Z Z Z &.` ",
"*.=.=.-.*.=.*.;.>.d d d ,.'.d d ).=.=.!.d d d ~.=.*.{.=.=.*.].*.",
"^./.^.^.^.^.(./._.d d d :.<.d d [.}.(.|.d d d 1.^.2././.^.^.^.2.",
"3.4.5.3.4.6.5.5.7.d d d 8.9.0.d d a.6.b.d d d c.5.6.4.4.4.3.6.4.",
"d.e.e.d.f.e.g.g.h.d d d i.e.j.d d k.l.m.d d d n.o.d.d.e.d.g.d.d.",
"p.q.r.r.s.r.p.q.t.d d d u.s.v.w.d d x.y.d d d z.q.p.A.p.r.r.B.s.",
"C.D.E.F.E.F.E.F.G.d d d H.F.E.I.d d J.K.d d d L.F.E.E.D.M.D.E.D.",
"N.O.P.Q.Q.O.N.N.R.d d d S.T.U.V.W.d d X.d d d Y.Z.Z.N.U.O.N.U.O.",
"`.`.`. +`..+`.`.++d d d @+ +.+#+$+d d d d d d %+`..+`.`.`.`.&+`.",
"*+=+-+*+;+>+*+-+,+d d d '+>+>+=+)+!+d d d d d ~+*+{+{+*+{+-+{+*+",
"]+]+^+^+^+]+^+^+/+d d d (+]+^+]+^+_+d d d d d :+]+<+[+^+^+]+^+^+",
"}+|+|+1+}+|+1+|+2+d d d 3+1+|+}+|+4+5+d d d d 6+|+|+7+7+}+|+}+|+",
"8+8+8+9+9+8+8+8+0+d d d a+8+8+9+8+8+b+d d d d c+d+8+d+9+d+8+8+e+",
"f+g+h+h+i+i+i+h+h+h+j+i+i+j+i+h+i+i+h+i+i+g+h+i+h+j+j+h+h+h+h+i+",
"k+k+k+l+m+n+n+k+k+n+k+k+n+m+n+k+k+k+o+k+m+k+m+k+l+l+n+k+l+n+n+o+",
"p+q+r+p+r+s+s+q+s+t+s+s+t+u+s+s+p+p+s+p+s+q+t+v+t+s+p+s+s+p+q+s+",
"w+x+x+y+z+w+w+x+w+w+x+y+z+x+w+A+y+B+B+C+A+D+D+w+B+D+w+w+z+A+w+B+",
"E+F+G+F+F+G+G+H+F+F+F+F+E+F+F+F+F+I+F+F+F+G+H+F+F+H+H+H+F+F+G+F+",
"J+K+K+L+K+K+J+M+L+K+L+K+K+K+L+K+M+J+K+L+K+K+K+K+K+N+K+K+K+M+L+L+",
"O+O+O+O+O+O+O+O+O+O+O+O+O+O+O+O+O+O+O+O+O+O+O+O+O+O+O+O+O+O+O+O+"};
