/* XPM */
static char * wall_1_xpm[] = {
"32 32 753 2",
"  	c #78421E",
". 	c #94603B",
"+ 	c #925E39",
"@ 	c #522200",
"# 	c #8E603C",
"$ 	c #FBD1AB",
"% 	c #EBC39F",
"& 	c #E3BD98",
"* 	c #DDB995",
"= 	c #CAA682",
"- 	c #C7A07F",
"; 	c #C9A281",
"> 	c #C99E7E",
", 	c #CEA383",
"' 	c #DCAF92",
") 	c #E1B497",
"! 	c #E6BB9B",
"~ 	c #E1B696",
"{ 	c #E4B999",
"] 	c #D3A888",
"^ 	c #DAAF8F",
"/ 	c #D2A787",
"( 	c #DEB393",
"_ 	c #DCB191",
": 	c #BB9070",
"< 	c #C09575",
"[ 	c #CFA484",
"} 	c #B98E6E",
"| 	c #B88D6D",
"1 	c #CCA181",
"2 	c #C8A07D",
"3 	c #612B07",
"4 	c #632F0A",
"5 	c #74421D",
"6 	c #5C2C06",
"7 	c #C59773",
"8 	c #E1B995",
"9 	c #D7B18C",
"0 	c #EDC7A3",
"a 	c #DBB793",
"b 	c #D3AC8B",
"c 	c #CCA584",
"d 	c #C59A7A",
"e 	c #CDA282",
"f 	c #DFB295",
"g 	c #E5B89B",
"h 	c #E7BC9C",
"i 	c #ECC1A1",
"j 	c #DFB494",
"k 	c #E5BA9A",
"l 	c #D6AB8B",
"m 	c #D8AD8D",
"n 	c #D0A585",
"o 	c #BA8F6F",
"p 	c #C69B7B",
"q 	c #D7AC8C",
"r 	c #D1A686",
"s 	c #C39878",
"t 	c #D1A986",
"u 	c #D9A580",
"v 	c #BA8661",
"w 	c #9C6A45",
"x 	c #85552F",
"y 	c #D3A581",
"z 	c #FFE1BB",
"A 	c #F8D0AC",
"B 	c #EFC9A4",
"C 	c #D5AF8B",
"D 	c #D0AA86",
"E 	c #CFA887",
"F 	c #CA9F7F",
"G 	c #DEB194",
"H 	c #E2B598",
"I 	c #DFB492",
"J 	c #E5BA98",
"K 	c #D8AD8B",
"L 	c #DCB18F",
"M 	c #C99E7C",
"N 	c #C69B79",
"O 	c #BC916F",
"P 	c #BD9270",
"Q 	c #D2A785",
"R 	c #D7AC8A",
"S 	c #BB906E",
"T 	c #B98E6C",
"U 	c #D5AD89",
"V 	c #F4C09B",
"W 	c #DEAC87",
"X 	c #9B6944",
"Y 	c #7E4E28",
"Z 	c #7B4D29",
"` 	c #F0C6A0",
" .	c #FFD5B2",
"..	c #E8C09C",
"+.	c #B58F6B",
"@.	c #BD9773",
"#.	c #CAA382",
"$.	c #C9A080",
"%.	c #C79C7C",
"&.	c #D4A78A",
"*.	c #D3A687",
"=.	c #E0B593",
"-.	c #D3A885",
";.	c #D1A684",
">.	c #C19673",
",.	c #B58A67",
"'.	c #B88D6B",
").	c #B38865",
"!.	c #CFA482",
"~.	c #E0B592",
"{.	c #E7BC9A",
"].	c #DCB18E",
"^.	c #C89D7B",
"/.	c #B78C69",
"(.	c #D0A884",
"_.	c #C99774",
":.	c #CB9976",
"<.	c #AB7956",
"[.	c #93633F",
"}.	c #582A06",
"|.	c #C59B75",
"1.	c #DAB28E",
"2.	c #C49C79",
"3.	c #CAA27F",
"4.	c #D5AD8A",
"5.	c #D4AC89",
"6.	c #C89D7D",
"7.	c #CEA182",
"8.	c #CA9D7E",
"9.	c #DAAF8C",
"0.	c #CCA27C",
"a.	c #CA9F7C",
"b.	c #BD936D",
"c.	c #C49976",
"d.	c #B68C66",
"e.	c #BF9471",
"f.	c #C09670",
"g.	c #CEA47E",
"h.	c #E7BC99",
"i.	c #E4BA94",
"j.	c #CCA17E",
"k.	c #C39973",
"l.	c #BE8C69",
"m.	c #B0805C",
"n.	c #AE7E5A",
"o.	c #90623E",
"p.	c #5C300B",
"q.	c #774B26",
"r.	c #E6BB98",
"s.	c #DFB794",
"t.	c #D5A889",
"u.	c #D7AA89",
"v.	c #D7AC89",
"w.	c #CDA37D",
"x.	c #D3A983",
"y.	c #C29872",
"z.	c #CBA17B",
"A.	c #CFA57F",
"B.	c #E0B690",
"C.	c #D6AC86",
"D.	c #AD835D",
"E.	c #B38963",
"F.	c #C89E78",
"G.	c #B28862",
"H.	c #CA9978",
"I.	c #B88A68",
"J.	c #A87A58",
"K.	c #9E724F",
"L.	c #875B38",
"M.	c #5A2E0B",
"N.	c #CDA27F",
"O.	c #FFEDCA",
"P.	c #EBC09D",
"Q.	c #D2A784",
"R.	c #CEA180",
"S.	c #CFA281",
"T.	c #DBAE8D",
"U.	c #E3B794",
"V.	c #CDA37B",
"W.	c #D5AB83",
"X.	c #CBA179",
"Y.	c #CCA27A",
"Z.	c #B58B63",
"`.	c #BD936B",
" +	c #C29870",
".+	c #C69C74",
"++	c #D3A981",
"@+	c #C0966E",
"#+	c #A87E56",
"$+	c #B1875F",
"%+	c #B78B64",
"&+	c #BE906E",
"*+	c #CDA17E",
"=+	c #A67A57",
"-+	c #BF9370",
";+	c #A77B58",
">+	c #502401",
",+	c #855A37",
"'+	c #F0C5A2",
")+	c #CEA380",
"!+	c #C29775",
"~+	c #CEA381",
"{+	c #CDA07F",
"]+	c #D6A988",
"^+	c #DFB390",
"/+	c #D4AA84",
"(+	c #C99F77",
"_+	c #BA9068",
":+	c #B38961",
"<+	c #986E46",
"[+	c #A1774F",
"}+	c #AA8058",
"|+	c #8D633B",
"1+	c #B68C64",
"2+	c #C49A72",
"3+	c #BC926A",
"4+	c #C89E76",
"5+	c #CCA079",
"6+	c #CB9E7D",
"7+	c #AD8260",
"8+	c #926544",
"9+	c #673A19",
"0+	c #532704",
"a+	c #C79B78",
"b+	c #FDD1AE",
"c+	c #E8BC99",
"d+	c #B78B68",
"e+	c #B28663",
"f+	c #D2A683",
"g+	c #BD916E",
"h+	c #E0B491",
"i+	c #A27852",
"j+	c #A57B53",
"k+	c #B78D65",
"l+	c #C39971",
"m+	c #D6AC84",
"n+	c #B98F67",
"o+	c #C99D76",
"p+	c #C59A78",
"q+	c #CDA280",
"r+	c #BC8F6E",
"s+	c #825534",
"t+	c #623613",
"u+	c #815532",
"v+	c #CCA07D",
"w+	c #C69A77",
"x+	c #F0C4A1",
"y+	c #BE926F",
"z+	c #BC906D",
"A+	c #9D714C",
"B+	c #AE845E",
"C+	c #C1976F",
"D+	c #CEA47C",
"E+	c #D4AA82",
"F+	c #C79D75",
"G+	c #DCB089",
"H+	c #C59C7C",
"I+	c #DAB191",
"J+	c #C39A7A",
"K+	c #D5AA8A",
"L+	c #A77A59",
"M+	c #A47655",
"N+	c #825433",
"O+	c #885A38",
"P+	c #B18361",
"Q+	c #C1936F",
"R+	c #FDCFAB",
"S+	c #BE926D",
"T+	c #B98D68",
"U+	c #A17550",
"V+	c #AC805B",
"W+	c #DBB18B",
"X+	c #D8AE88",
"Y+	c #D1A781",
"Z+	c #BF956F",
"`+	c #BE946E",
" @	c #BB916B",
".@	c #B48A64",
"+@	c #C99F79",
"@@	c #D0A47F",
"#@	c #E2BB9A",
"$@	c #E4BD9C",
"%@	c #C29B7A",
"&@	c #CAA181",
"*@	c #C39876",
"=@	c #BB8E6D",
"-@	c #D8AA89",
";@	c #B48665",
">@	c #9E6D4C",
",@	c #A37251",
"'@	c #855531",
")@	c #B48662",
"!@	c #E1B590",
"~@	c #BA8E69",
"{@	c #C79B76",
"]@	c #E1B791",
"^@	c #D9AF89",
"/@	c #C59A77",
"(@	c #B48966",
"_@	c #C69B78",
":@	c #BA906A",
"<@	c #B68B68",
"[@	c #A97F59",
"}@	c #AB7F5C",
"|@	c #E8C4A4",
"1@	c #D9B595",
"2@	c #D9B291",
"3@	c #C29777",
"4@	c #BB8E6F",
"5@	c #CA9C7B",
"6@	c #C39272",
"7@	c #C69473",
"8@	c #9C6B4A",
"9@	c #895935",
"0@	c #623410",
"a@	c #E1B48D",
"b@	c #F0C39C",
"c@	c #D8AC85",
"d@	c #C39772",
"e@	c #DDB28F",
"f@	c #D4A986",
"g@	c #D1A683",
"h@	c #D9AE8B",
"i@	c #C19674",
"j@	c #BC916E",
"k@	c #C89D7A",
"l@	c #9C704D",
"m@	c #E3C0A0",
"n@	c #CCA989",
"o@	c #E5C19F",
"p@	c #E5BE9D",
"q@	c #BA8D6E",
"r@	c #B68867",
"s@	c #C99878",
"t@	c #C99776",
"u@	c #A87655",
"v@	c #996945",
"w@	c #582804",
"x@	c #CEA17A",
"y@	c #F1C49D",
"z@	c #D3A780",
"A@	c #C0946F",
"B@	c #D5AA87",
"C@	c #DEB391",
"D@	c #D0A583",
"E@	c #D5AA88",
"F@	c #E3B896",
"G@	c #DBB08E",
"H@	c #CCA17F",
"I@	c #A47756",
"J@	c #E3C2A1",
"K@	c #CAA787",
"L@	c #D6B290",
"M@	c #D8B190",
"N@	c #BF9273",
"O@	c #BF9170",
"P@	c #DAA989",
"Q@	c #D3A180",
"R@	c #B2805F",
"S@	c #8F5F3B",
"T@	c #6B3B17",
"U@	c #93663F",
"V@	c #FFD4AD",
"W@	c #CB9F78",
"X@	c #B08660",
"Y@	c #D9AE8C",
"Z@	c #E3B898",
"`@	c #D9AE8E",
" #	c #CBA080",
".#	c #D4A989",
"+#	c #E0B595",
"@#	c #A37655",
"##	c #E4C29F",
"$#	c #CEAC89",
"%#	c #C29E7C",
"&#	c #C8A27E",
"*#	c #C69D7D",
"=#	c #BF9472",
"-#	c #C89A79",
";#	c #C59473",
">#	c #B78665",
",#	c #CA9A76",
"'#	c #8D5D39",
")#	c #6D3F1B",
"!#	c #D6A982",
"~#	c #CB9F7A",
"{#	c #B98F69",
"]#	c #D6AD8D",
"^#	c #C89F7F",
"/#	c #CCA383",
"(#	c #EBC0A0",
"_#	c #E1B495",
":#	c #DCAF90",
"<#	c #C89B7C",
"[#	c #976A4B",
"}#	c #D4B08C",
"|#	c #D4AE8A",
"1#	c #CCA682",
"2#	c #CFA783",
"3#	c #D7AF8C",
"4#	c #CB9F7C",
"5#	c #C09270",
"6#	c #BB8D6B",
"7#	c #AC7E5C",
"8#	c #976947",
"9#	c #6B3A19",
"0#	c #AF7F5B",
"a#	c #B38563",
"b#	c #C39774",
"c#	c #E4BE9A",
"d#	c #C5A17D",
"e#	c #CAA480",
"f#	c #D3AD89",
"g#	c #D3AB88",
"h#	c #E1B694",
"i#	c #D1A483",
"j#	c #DEB190",
"k#	c #D1A382",
"l#	c #D4A685",
"m#	c #E1B090",
"n#	c #D5A484",
"o#	c #BF8C6D",
"p#	c #9D6E50",
"q#	c #D0AA85",
"r#	c #D4AE89",
"s#	c #D3AB87",
"t#	c #D6AE8A",
"u#	c #DBB38F",
"v#	c #D1A985",
"w#	c #C99E7B",
"x#	c #C29673",
"y#	c #C19572",
"z#	c #A27452",
"A#	c #825130",
"B#	c #A87756",
"C#	c #B1805F",
"D#	c #A87C59",
"E#	c #DFB995",
"F#	c #B6946F",
"G#	c #BC9874",
"H#	c #D5B18D",
"I#	c #CDA582",
"J#	c #D9AC8B",
"K#	c #E3B594",
"L#	c #D3A282",
"M#	c #D4A383",
"N#	c #DBA889",
"O#	c #CC997A",
"P#	c #B68162",
"Q#	c #905F3F",
"R#	c #D6B08B",
"S#	c #D7AF8B",
"T#	c #D9B18D",
"U#	c #CEA27F",
"V#	c #CA9E7B",
"W#	c #CFA17F",
"X#	c #B28462",
"Y#	c #946342",
"Z#	c #835231",
"`#	c #AF7E5D",
" $	c #B18562",
".$	c #B7916C",
"+$	c #A3805A",
"@$	c #BB9570",
"#$	c #DCB691",
"$$	c #DCB490",
"%$	c #D8AD8A",
"&$	c #D0A582",
"*$	c #D7AB88",
"=$	c #DDAF8D",
"-$	c #D2A180",
";$	c #D6A584",
">$	c #DAA887",
",$	c #CA9877",
"'$	c #B47F5F",
")$	c #8C5B3B",
"!$	c #D9B38E",
"~$	c #D4AC88",
"{$	c #CEA682",
"]$	c #D6AB88",
"^$	c #D3A784",
"/$	c #C89C79",
"($	c #D2A482",
"_$	c #B08260",
":$	c #8D5C3B",
"<$	c #5D2C0B",
"[$	c #C29170",
"}$	c #D8B08C",
"|$	c #CEA881",
"1$	c #C59F7A",
"2$	c #B48D66",
"3$	c #A67E5A",
"4$	c #D6AA85",
"5$	c #D1A37F",
"6$	c #C89776",
"7$	c #CE9E7A",
"8$	c #CC9A79",
"9$	c #BD8B68",
"0$	c #AC7757",
"a$	c #D2AA86",
"b$	c #C59976",
"c$	c #C59775",
"d$	c #926442",
"e$	c #744624",
"f$	c #633513",
"g$	c #DEB08E",
"h$	c #FFE7C4",
"i$	c #E1BA93",
"j$	c #DCB58C",
"k$	c #CCA57E",
"l$	c #AE845C",
"m$	c #966C46",
"n$	c #A37750",
"o$	c #D8AB84",
"p$	c #D5A783",
"q$	c #CC9C76",
"r$	c #BD8B66",
"s$	c #B37E5C",
"t$	c #A97550",
"u$	c #A6704E",
"v$	c #84522F",
"w$	c #CCA480",
"x$	c #E5BA97",
"y$	c #C39875",
"z$	c #BD926F",
"A$	c #794B29",
"B$	c #673917",
"C$	c #E8BA98",
"D$	c #F2C6A1",
"E$	c #D8AE86",
"F$	c #D0A67E",
"G$	c #B38760",
"H$	c #91653E",
"I$	c #9A6D46",
"J$	c #BB8E67",
"K$	c #D1A17B",
"L$	c #C0906A",
"M$	c #B2805B",
"N$	c #B3815C",
"O$	c #A7734E",
"P$	c #BA8460",
"Q$	c #A4724F",
"R$	c #C79C79",
"S$	c #CFA481",
"T$	c #D1A582",
"U$	c #A37754",
"V$	c #7D512E",
"W$	c #714522",
"X$	c #DBAF8A",
"Y$	c #FDD1AA",
"Z$	c #EABF95",
"`$	c #DBB086",
" %	c #CFA47A",
".%	c #AA7D54",
"+%	c #774A21",
"@%	c #77471F",
"#%	c #9E6E46",
"$%	c #A6764E",
"%%	c #9B6B43",
"&%	c #9D6C44",
"*%	c #AA7951",
"=%	c #9F6B44",
"-%	c #A47049",
";%	c #BE8A63",
">%	c #AC7A55",
",%	c #8C603D",
"'%	c #8F6340",
")%	c #E1B592",
"!%	c #E7BB98",
"~%	c #F3C7A2",
"{%	c #DDB18A",
"]%	c #DEB389",
"^%	c #D8AD83",
"/%	c #CCA177",
"(%	c #B1845B",
"_%	c #895C33",
":%	c #7F4F27",
"<%	c #92623A",
"[%	c #72421A",
"}%	c #714119",
"|%	c #84532B",
"1%	c #9B6A42",
"2%	c #8C5B33",
"3%	c #8A5931",
"4%	c #A06C45",
"5%	c #885832",
"6%	c #D5A986",
"7%	c #D9AD8A",
"8%	c #B38764",
"9%	c #A17552",
"0%	c #7D522F",
"a%	c #845936",
"b%	c #E2B892",
"c%	c #C2966F",
"d%	c #D4A97F",
"e%	c #CC9F76",
"f%	c #A97C53",
"g%	c #9E7148",
"h%	c #B78A61",
"i%	c #CA9D74",
"j%	c #C79A71",
"k%	c #AC7C54",
"l%	c #BE8E66",
"m%	c #BB8B63",
"n%	c #A3734B",
"o%	c #A7774F",
"p%	c #A4734B",
"q%	c #8F5F39",
"r%	c #EABE9B",
"s%	c #DDB18E",
"t%	c #CFA380",
"u%	c #DBAF8C",
"v%	c #916542",
"w%	c #A97D5A",
"x%	c #744825",
"y%	c #734825",
"z%	c #EABF9C",
"A%	c #B88D6A",
"B%	c #D5AB85",
"C%	c #CDA17A",
"D%	c #C4996F",
"E%	c #BE9168",
"F%	c #C1946B",
"G%	c #C89B72",
"H%	c #CB9E75",
"I%	c #C99C73",
"J%	c #C2956C",
"K%	c #D1A47B",
"L%	c #D6A67E",
"M%	c #C89870",
"N%	c #CEA178",
"O%	c #B2855E",
"P%	c #D1A381",
"Q%	c #E2B492",
"R%	c #D0A280",
"S%	c #C69876",
"T%	c #B48865",
"U%	c #906441",
"V%	c #764B28",
"W%	c #5D320F",
"X%	c #7B502D",
"Y%	c #CDA581",
"Z%	c #E2BA96",
"`%	c #D1A57E",
" &	c #B88C65",
".&	c #D4A881",
"+&	c #BC9069",
"@&	c #C39770",
"#&	c #DAAE87",
"$&	c #DCAF88",
"%&	c #D6AA83",
"&&	c #C99C75",
"*&	c #BA8D66",
"=&	c #B78967",
"-&	c #B58765",
";&	c #AD7F5D",
">&	c #8A5E3B",
",&	c #643815",
"'&	c #562B08",
")&	c #E8BD9A",
"!&	c #E9C19D",
"~&	c #C19975",
"{&	c #C19570",
"]&	c #D1A77F",
"^&	c #BE946C",
"/&	c #BF936E",
"(&	c #C69C76",
"_&	c #B88E68",
":&	c #B2865F",
"<&	c #B28160",
"[&	c #A57453",
"}&	c #875635",
"|&	c #9B6D4B",
"1&	c #774927",
"2&	c #5C300D",
"3&	c #603411",
"4&	c #A57A57",
"5&	c #EFC7A3",
"6&	c #FFDEBA",
"7&	c #AF8964",
"8&	c #B08864",
"9&	c #BB936F",
"0&	c #C7A079",
"a&	c #BF9871",
"b&	c #BE9370",
"c&	c #C9A27B",
"d&	c #DDB68F",
"e&	c #C8A17A",
"f&	c #BD9571",
"g&	c #C19A73",
"h&	c #C69E7A",
"i&	c #C39C75",
"j&	c #855433",
"k&	c #A1704F",
"l&	c #6E3D1C",
"m&	c #653715",
"n&	c #552705",
"o&	c #8D613E",
"p&	c #F9CEAB",
"q&	c #EEC6A2",
"r&	c #B68E6A",
"s&	c #A47E59",
"t&	c #C6A07B",
"u&	c #C79F7B",
"v&	c #B9916D",
"w&	c #D1AB86",
"x&	c #C19B76",
"y&	c #C8A27D",
"z&	c #CDA782",
"A&	c #C6A37D",
"B&	c #BF9974",
"C&	c #BC956E",
"D&	c #A47352",
"E&	c #724120",
"F&	c #E9BE9B",
"G&	c #E7BF9B",
"H&	c #CAA27E",
"I&	c #C29C77",
"J&	c #C7A17C",
"K&	c #C59F7B",
"L&	c #D2AC88",
"M&	c #CDA783",
"N&	c #E1BB97",
"O&	c #DBB591",
"P&	c #C6A27E",
"Q&	c #D3AF8B",
"R&	c #C4A07C",
"S&	c #BF9D78",
"T&	c #B7936F",
"U&	c #B58D69",
"V&	c #7C4E2C",
"W&	c #966544",
"X&	c #A57755",
"Y&	c #916341",
"Z&	c #FFD8B5",
"`&	c #F3C8A5",
" *	c #ECC19E",
".*	c #E3BB97",
"+*	c #C8A07C",
"@*	c #C39B77",
"#*	c #D3AD88",
"$*	c #D2AC87",
"%*	c #B18B67",
"&*	c #C09A76",
"**	c #D9B18E",
"=*	c #EBC5A1",
"-*	c #F1C9A6",
";*	c #E9C39F",
">*	c #DAB490",
",*	c #BF9C76",
"'*	c #C09D77",
")*	c #BE9B75",
"!*	c #BE9770",
"  . + @ # $ % & * = - ; > , ' ) ! ~ { ] ^ / ( _ { : < [ } | 1 2 ",
"3 4 5 6 7 $ 8 9 0 a b c d e f g h { i j k l m n o | p q r s p t ",
"u v w x y z A B C D E - < F G H k I J K L M N O P Q K R Q S T U ",
"V W X Y Z `  ...+.@.#.$.< %.&.*.=.-.;.>.N ,.'.).!.~.{.].^./.P (.",
"_.:.<.[.}.|. .1.2.3.4.5.6.%.7.8.9.0.a.b.c.d.e.f.a.g.h.i.>.b.j.k.",
"l.m.n.o.p.q.r...s.4.4.4.1 1 t.u.v.w.x.0.x.y.z.A.x.0.B.C.D.E.F.G.",
"H.I.J.K.L.M.N.O.P.Q.M !.R.S.T.U.C.V.W.X.Y.Z.`. +.+V.++@+#+$+@+%+",
"&+*+=+-+;+>+,+'+'+)+!+~+S.{+]+^+/+(+X._+:+<+[+}+|+1+2+3+ +(+4+5+",
"6+'.M 7+8+9+0+a+b+c+d+e+f+g+h+c+i+[+j+k+4+@+Z.3+l+ +m+V.4+n+(+o+",
"T p+q+!.r+s+t+u+v+w+v+^+x+y+z+A+B+C+.+l+D+E+V..+(+F+m+4+C+n+E+G+",
"H+I+J+K+S.L+M+N+O+P+Q+R+S+T+U+V+z.W+X+z.w.Y+w.0.Z+`+0. @.@D.+@@@",
"#@$@%@&@*@=@-@;@>@,@'@)@)@!@~@{@]@^@)+0.)+|./@C.(@.@_@:@<@[@(@}@",
"|@1@2@I+3@4@5@6@7@8@9@0@a@b@c@d@e@f@M )+K g@q+h@i@j@q+k@!.>.T l@",
"m@n@o@p@6.q@r@s@t@u@v@w@x@y@z@A@B@C@R ~+K L D@p+E@M Q ;.F@G@H@I@",
"J@K@L@M@> N@O@P@Q@R@S@T@U@V@W@X@Y@Z@`@ #n .#e %.m 6., e { +#[ @#",
"##$#%#&#*#=#-#-@;#>#,#'#)#!#~#{#s.]#$.^#/# #] (#n 3@8.8._#:#<#[#",
"}#|#1#2#3#-.k@4#5#6#7#8#9#0#a#b#c#d#e#f#&#g#h#D@i#j#k#l#m#n#o#p#",
"q#r#s#t#u#v#w#N.x#y#6#z#A#B#C#D#E#F#G#H#D I#K E@J#K#L#M#N#O#P#Q#",
"q#R#t#S#T#(.j.f@U#V#W#X#Y#Z#`# $.$+$@$#$$$t#%$&$*$=$-$;$>$,$'$)$",
"9 !$~$v#U {$j.]$^$/$($_$:$<$[$x+}$|$1$2$3$ @f@4$($5$6$7$8$9$0$Z#",
"S#S#v#a$].-.k@a.4#b$c$d$e$f$g$h$i$j$k$l$m$n$d@o$p$q$9$r$s$t$u$v$",
"w$(.v#1.x$%$y$z$U#*+I.A$B$d$C$D$E$++E+F$G$H$I$J$K$L$M$N$O$O$P$Q$",
"R$S$f@e@x$v.w+b#T$b#U$V$W$b#U.X$Y$Z$`$ %.%+%@%#%$%%%&%*%=%-%;%>%",
"k@g@f@%$].-.4#T$w+=+,%'%L.)%!%~%{%]%^%/%(%_%:%<%[%}%|%1%2%3%4%5%",
"*$a+!%^$6%)%7%-+8%9%0%a%e@v.w#b%c%d%e%f%g%h%i%j%k%l%m%n%%%o%p%q%",
"r%a+s%t%^$u%w+v%w%x%y%/.z%_@A%B%C%D%E%F%G%H%i%I%J%K%L%G%M%N%M%O%",
"P%c$Q%R%S%5#T%U%V%W%X%e.Y%1.Z%b%`% &%+.&{%o++&@&#&{%$&%&!#.&&&*&",
"=&-&I.;&c$X#>&,&'&a%j@)&u#A !&~&k._+{&]&@@^&/&D+]@W.+@.+(&C+_&:&",
"Y#<&[&}&|&1&2&3&4&f@5&6&!&s#7&8&9&0&j.a&b&c&h@d&}$e&f&g&h&i&f&b.",
"j&`#k&l&m&n&o&v+9.p&q&8 v#r&s&t&u&S#(.v&f&1.Z%q#w&t&x&y&z&A&B&C&",
"D&Y#Z#E&e$d$r% .k@F&G&H&2#u&I&J&K&L&|#M&|#N&O&P&Q&= R&R&d#S&T&U&",
">@V&W&X&Y&}@Z&h.`& *.*~&+*@*#*$*%*&***=*-*;*E#!$>*$*J&x&,*'*)*!*"};
