/* XPM */
static char * wall_4_xpm[] = {
"32 32 246 2",
"  	c #75B44B",
". 	c #76B54C",
"+ 	c #75B34B",
"@ 	c #69A73E",
"# 	c #69A73F",
"$ 	c #6FAB45",
"% 	c #61A037",
"& 	c #6DAC43",
"* 	c #7DBC53",
"= 	c #78B64E",
"- 	c #6EAB43",
"; 	c #69A83F",
"> 	c #63A239",
", 	c #54932A",
"' 	c #6BAA42",
") 	c #77B64D",
"! 	c #6CA842",
"~ 	c #8BBA5A",
"{ 	c #80AF4F",
"] 	c #82B151",
"^ 	c #594028",
"/ 	c #629F38",
"( 	c #62A138",
"_ 	c #91C161",
": 	c #90BF5F",
"< 	c #76B44C",
"[ 	c #6CAA42",
"} 	c #68A73E",
"| 	c #69A640",
"1 	c #8BB95A",
"2 	c #5A3F2E",
"3 	c #9AC769",
"4 	c #64A13A",
"5 	c #6AA940",
"6 	c #70AC46",
"7 	c #594229",
"8 	c #74B24A",
"9 	c #7FBB55",
"0 	c #90C060",
"a 	c #94C063",
"b 	c #5D4A2C",
"c 	c #58932E",
"d 	c #609B36",
"e 	c #5A4629",
"f 	c #5D402A",
"g 	c #6D6B6B",
"h 	c #5D4029",
"i 	c #60442C",
"j 	c #71AD47",
"k 	c #5B3E29",
"l 	c #5B4129",
"m 	c #609B35",
"n 	c #594429",
"o 	c #6DA742",
"p 	c #5B462E",
"q 	c #775539",
"r 	c #5E412B",
"s 	c #5A3E29",
"t 	c #765438",
"u 	c #966B49",
"v 	c #785539",
"w 	c #976C4A",
"x 	c #B7845C",
"y 	c #5A3E28",
"z 	c #5B402B",
"A 	c #6B6969",
"B 	c #79573D",
"C 	c #946A48",
"D 	c #5F422B",
"E 	c #79563A",
"F 	c #7C583C",
"G 	c #966C4A",
"H 	c #7A583F",
"I 	c #5F412B",
"J 	c #7B583B",
"K 	c #60422C",
"L 	c #78563A",
"M 	c #7A573B",
"N 	c #B3805A",
"O 	c #7C583D",
"P 	c #888685",
"Q 	c #7B573B",
"R 	c #B7835C",
"S 	c #956A49",
"T 	c #946949",
"U 	c #7A573A",
"V 	c #B8845C",
"W 	c #B8845D",
"X 	c #966B4A",
"Y 	c #956B49",
"Z 	c #7A563A",
"` 	c #78553A",
" .	c #775439",
"..	c #593D28",
"+.	c #7D5B3F",
"@.	c #936948",
"#.	c #B8855D",
"$.	c #7C583B",
"%.	c #5D412D",
"&.	c #5F422C",
"*.	c #976D4C",
"=.	c #878483",
"-.	c #77583F",
";.	c #6E6C6A",
">.	c #5B3F29",
",.	c #7D593C",
"'.	c #B6835C",
").	c #B5825C",
"!.	c #745843",
"~.	c #B5825B",
"{.	c #B6825B",
"].	c #986D4B",
"^.	c #5D402B",
"/.	c #5C402A",
"(.	c #946948",
"_.	c #77563B",
":.	c #858584",
"<.	c #785639",
"[.	c #946A49",
"}.	c #583C28",
"|.	c #C8BE8D",
"1.	c #E3D9A8",
"2.	c #E2D8A7",
"3.	c #DBD49D",
"4.	c #E7DDAC",
"5.	c #DAD39C",
"6.	c #D2CB94",
"7.	c #D8D19A",
"8.	c #E3DCA6",
"9.	c #DED7A1",
"0.	c #D7D09A",
"a.	c #DFD5A4",
"b.	c #DCD2A1",
"c.	c #F8F5D2",
"d.	c #CBC48E",
"e.	c #D9D29B",
"f.	c #E0D4AA",
"g.	c #E7DBB1",
"h.	c #BFB487",
"i.	c #D0C992",
"j.	c #D3CC95",
"k.	c #E2DFBE",
"l.	c #E7DAB0",
"m.	c #FFFEDF",
"n.	c #DCD59E",
"o.	c #DED4A3",
"p.	c #E9E2AB",
"q.	c #E3D6AA",
"r.	c #EFE2B6",
"s.	c #F9EEC1",
"t.	c #D6CF98",
"u.	c #D9D099",
"v.	c #E9DCB2",
"w.	c #D9CF9E",
"x.	c #CFC891",
"y.	c #F9ECC2",
"z.	c #CCC78F",
"A.	c #D5CE98",
"B.	c #D0C993",
"C.	c #DFD8A1",
"D.	c #D1CA93",
"E.	c #B0A972",
"F.	c #E9DFAE",
"G.	c #E8DEAD",
"H.	c #BFB881",
"I.	c #E5DEA8",
"J.	c #E6D9AD",
"K.	c #D1C796",
"L.	c #CEC791",
"M.	c #D8CB9F",
"N.	c #C2BB84",
"O.	c #EFE4B6",
"P.	c #C9C28B",
"Q.	c #CDC68F",
"R.	c #CFC892",
"S.	c #FEFFF1",
"T.	c #EAE3AD",
"U.	c #DDD1A7",
"V.	c #F1EAB4",
"W.	c #C5BE87",
"X.	c #BCB57E",
"Y.	c #DFD3A9",
"Z.	c #CCBF95",
"`.	c #BFB882",
" +	c #E2DBA4",
".+	c #FFF7CC",
"++	c #DCD59F",
"@+	c #DACDA3",
"#+	c #E7DAAE",
"$+	c #FBF4BD",
"%+	c #D1C49A",
"&+	c #EFEACC",
"*+	c #E0D9A2",
"=+	c #EEE1B7",
"-+	c #E8DBAF",
";+	c #E1D4AA",
">+	c #D6CC9B",
",+	c #FFFED2",
"'+	c #C1BA83",
")+	c #DCCFA5",
"!+	c #C2BB85",
"~+	c #D8D19B",
"{+	c #E5D8AE",
"]+	c #DDD2A5",
"^+	c #EFE8B2",
"/+	c #E0D5A8",
"(+	c #D8CE9D",
"_+	c #EAE3AC",
":+	c #E0D9A3",
"<+	c #E1D4A8",
"[+	c #AAA36D",
"}+	c #E6D9AF",
"|+	c #C7C089",
"1+	c #D7D099",
"2+	c #F1E6B9",
"3+	c #F1EAB3",
"4+	c #E7E0AA",
"5+	c #FAFBEB",
"6+	c #CEC790",
"7+	c #E5DEA7",
"8+	c #CABD91",
"9+	c #FFFAC2",
"0+	c #BAB37D",
"a+	c #EEE7B1",
"b+	c #D2CB95",
"c+	c #E1DAA4",
"d+	c #BEB780",
"e+	c #C6BF89",
"f+	c #DED8A6",
"g+	c #B4AD77",
"h+	c #F5E8BE",
"i+	c #F6E9BD",
"j+	c #E3DCA5",
"k+	c #D6C99F",
"l+	c #D8CCA2",
"m+	c #D8CF98",
"n+	c #DED3A6",
"o+	c #D6C99D",
"p+	c #E1DAA3",
"q+	c #C8C18B",
"r+	c #DFD8A2",
"s+	c #BBB47E",
"t+	c #CCBF93",
"u+	c #E4DDA7",
"v+	c #FFFFD1",
"w+	c #C7C08A",
"  . + @ # $ % & * = - ; ; > , '   . + @ # $ % & * = - ; ; > , ' ",
") ! ~ { ] ^ ; / ( _ : < / [ } | ) ! ~ { ] ^ ; / ( _ : < / [ } | ",
"1 2 3 4 5 ^ 6 7 8 9 0 a b c d e 1 2 3 4 5 ^ 6 7 8 9 0 a b c d e ",
"f g h i j f k l m n o p q r s t f g h i j f k l m n o p q r s t ",
"u v w x k w v q y s z A B C D E u v w x k w v q y s z A B C D E ",
"F s G u H u s r I E J K L M J N F s G u H u s r I E J K L M J N ",
"x E F O P M M x x Q R R F S F T x E F O P M M x x Q R R F S F T ",
"U E V W X w E E Y r G u U U S T U E V W X w E E Y r G u U U S T ",
"w Z E G E Y ` k E X u M J M f  .w Z E G E Y ` k E X u M J M f  .",
"E w ..J Q y f Z E Q J M R x +.@.E w ..J Q y f Z E Q J M R x +.@.",
"U G E #.V $.V X %.x x &.S *.=.-.U G E #.V $.V X %.x x &.S *.=.-.",
"G L M G w V J G ;.G u E f C $.f G L M G w V J G ;.G u E f C $.f ",
"E >.w E G w V M E L Q L E ,.'.).E >.w E G w V M E L Q L E ,.'.).",
"M X ` Q !.E X Y Q K ~.&.M {.].S M X ` Q !.E X Y Q K ~.&.M {.].S ",
"w E ^.W Z k B /.V x J Y Q Q Y (.w E ^.W Z k B /.V x J Y Q Q Y (.",
"S q '.S S _.:.L S S q <.[.[.` }.S q '.S S _.:.L S S q <.[.[.` }.",
"|.1.2.3.4.5.6.7.8.9.0.a.b.c.d.e.|.1.2.3.4.5.6.7.8.9.0.a.b.c.d.e.",
"9.7.f.g.h.6.i.j.k.l.m.n.o.7.a.p.9.7.f.g.h.6.i.j.k.l.m.n.o.7.a.p.",
"q.r.s.t.u.t.3.3.n.8.l.v.w.x.6.y.q.r.s.t.u.t.3.3.n.8.l.v.w.x.6.y.",
"z.A.0.9.B.C.D.o.E.t.e.8.F.G.5.H.z.A.0.9.B.C.D.o.E.t.e.8.F.G.5.H.",
"I.t.v.t.v.v.J.v.K.L.6.l.M.N.O.P.I.t.v.t.v.v.J.v.K.L.6.l.M.N.O.P.",
"Q.C.R.S.j.T.9.U.t.V.n.W.R.D.5.N.Q.C.R.S.j.T.9.U.t.V.n.W.R.D.5.N.",
"X.Y.Z.3.`. +0.6.t.t.v..+++l.9.@+X.Y.Z.3.`. +0.6.t.t.v..+++l.9.@+",
"5.t.#+7.3.D.I.$+9.%+t.j.C.f.&+l.5.t.#+7.3.D.I.$+9.%+t.j.C.f.&+l.",
"*+Y.=+-+;+j.v.Y.>+,+'+++A.)+o.3.*+Y.=+-+;+j.v.Y.>+,+'+++A.)+o.3.",
"!+~+{+e.7.]+K.6.5.++++^+5./+(+_+!+~+{+e.7.]+K.6.5.++++^+5./+(+_+",
":+<+[+}+|+=+1+)+2+3+4+t.5.5+t.5.:+<+[+}+|+=+1+)+2+3+4+t.5.5+t.5.",
"6+}+7+8+9.t.++u.9.++7.9+6.6.D.0+6+}+7+8+9.t.++u.9.++7.9+6.6.D.0+",
"r.9.j.a+C.b+c+d+e+++0.D./+}+i.A.r.9.j.a+C.b+c+d+e+++0.D./+}+i.A.",
"f+l.z.g+D.6.j.h+f.i+l.:+j+t.l.k+f+l.z.g+D.6.j.h+f.i+l.:+j+t.l.k+",
"q.l+m+x.n+o+n.p+q+r+s+t.l.t+x.f.q.l+m+x.n+o+n.p+q+r+s+t.l.t+x.f.",
"A.u+t.!+v+C.|+=+5.2+D.o.a.3.t.w+A.u+t.!+v+C.|+=+5.2+D.o.a.3.t.w+"};
