/* XPM */
static char * wall_4_xpm[] = {
"32 32 32 1",
" 	c None",
".	c #B9855D",
"+	c #976C4A",
"@	c #79563A",
"#	c #BA855D",
"$	c #593D28",
"%	c #78553A",
"&	c #976C49",
"*	c #583C28",
"=	c #BA865D",
"-	c #583C27",
";	c #878787",
">	c #583C26",
",	c #878788",
"'	c #583B25",
")	c #573C27",
"!	c #785539",
"~	c #583D28",
"{	c #6B6C6C",
"]	c #6C6C6C",
"^	c #986C4A",
"/	c #795639",
"(	c #6C6C6D",
"_	c #795539",
":	c #878888",
"<	c #795538",
"[	c #78563A",
"}	c #593D27",
"|	c #986D4A",
"1	c #745843",
"2	c #BA865E",
"3	c #573B27",
"..++++@@@@#.++++@@@@$$@@@@#.%@#.",
"..++++@@@@#.&+++@@@@*$@@@@#.%@=.",
"@@++-$@@@@++;;>$@@#.++@@#.++-$$$",
"@@++-$@@@@++,;'$@@=.++@@=.++)*$$",
"..%@@@$$=.%@@@@@#.%@@@@@$$$$=.%@",
"..!@@@~$=.%@@@@@#.!@@@@@~$**=.%@",
"++{]#.%@++-$@@#.++++@@++@@#.++@@",
"++{]#.!@^+-$@@=.++++@@++@@#.++@@",
"++@@++..)$++@@@@++-$@@]]/@++-$@@",
"++@@++..)$++@@@@^+-$@@(]/@++-$@@",
"@@$$++++@@++-$$$$$@@@@$$@@@@@@#.",
"@@~$^+++_/++-$****@@@@-*@@@@@@#.",
"..%@@@@@,;_@@@#...%@#...%@++@@++",
"..%@@@@@:;<@@@=...%@#...%@++[@++",
"@@@@#...++++@@@@++-$++++@@@@++++",
"@@@@=...++++@@@@++-$++++@@@@^+++",
"++@@@@++@@++@@$$@@++++@@@@@@$$@@",
"++[@@@++@@^+@@~$@@++++@@@@@@~$@@",
"@@++-$@@@@$$$$@@@@@@@@@@#...%@++",
"@@++-$@@@@~$**@@@@@@@@@@#...!/++",
"@@++@@#...%@#.++-$=...)$++++;;_@",
"@@++@@#...!@=.++-}=...)$|+++,;_@",
"++@@@@++++..%@++{]++++@@$$++@@$$",
"++@@@@++++..!@++{]++++@@~$^+%@-*",
"@@$$++@@++++..%@@@@@@@@@@@@@#...",
"@@*$^+@@++++..!@@@@@@@@@@@@@#...",
"@@++@@@@11@@++++@@$$=.)$@@#.++++",
"@@++@@@@11@@++++%@-*2.3$@@=.++++",
"++@@$$=.%@$$@@$$=...%@++@@@@++++",
"++@@-*=.!@~$//~$=...%@++[@@@++++",
"++@@#.++++@@,;_@++++@@@@++++@@$$",
"++@@#.++++@@,;_@++++@@@@++++@@$$"};
