/* XPM */
static char * wall_4_xpm[] = {
"32 32 911 2",
"  	c #C4C2C0",
". 	c #CECDC6",
"+ 	c #C9C8C4",
"@ 	c #CAC7C3",
"# 	c #D3CCC6",
"$ 	c #DEDAD2",
"% 	c #E7E9E1",
"& 	c #DDDED5",
"* 	c #D1D4CE",
"= 	c #C9D2D3",
"- 	c #D3D6D0",
"; 	c #D8D7D2",
"> 	c #D9D7D0",
", 	c #DEDBD2",
"' 	c #DDDDD3",
") 	c #CDCDC9",
"! 	c #C8C1BB",
"~ 	c #C4BBB6",
"{ 	c #D2CCC3",
"] 	c #D5CCC1",
"^ 	c #CCC1B9",
"/ 	c #CAC2BE",
"( 	c #CFC8C3",
"_ 	c #DBDACE",
": 	c #E6E3D7",
"< 	c #DCDAD3",
"[ 	c #C8C4BE",
"} 	c #D0C9C1",
"| 	c #D6D0CA",
"1 	c #DBD5CA",
"2 	c #DEDCD1",
"3 	c #E0DFD4",
"4 	c #CECAC3",
"5 	c #D5D5CA",
"6 	c #D6D3CB",
"7 	c #D1CBC2",
"8 	c #D0C8C2",
"9 	c #DBD3C6",
"0 	c #E0D9CB",
"a 	c #DBD3C7",
"b 	c #DCD5CD",
"c 	c #D0D2CD",
"d 	c #CCCECA",
"e 	c #D0CBC6",
"f 	c #D2C8C1",
"g 	c #D6CABE",
"h 	c #E0D8CB",
"i 	c #E2E0D4",
"j 	c #D9D5CC",
"k 	c #CDC4BB",
"l 	c #C8C2BD",
"m 	c #D3C7BD",
"n 	c #D0C6BC",
"o 	c #C6BDB7",
"p 	c #CCC5C1",
"q 	c #DCD9CD",
"r 	c #E9E3D9",
"s 	c #E2DED2",
"t 	c #CCC5BD",
"u 	c #CFC7BD",
"v 	c #D7D1C6",
"w 	c #E3DED4",
"x 	c #E9E5DA",
"y 	c #E9E1D7",
"z 	c #C9C4C0",
"A 	c #E0DFD5",
"B 	c #E0DACD",
"C 	c #E0DCCF",
"D 	c #CAC4C1",
"E 	c #D1C9C2",
"F 	c #D9D2C6",
"G 	c #D7C7BB",
"H 	c #DBD1C6",
"I 	c #DCD9CE",
"J 	c #D2D3CD",
"K 	c #C3C3BE",
"L 	c #C4B9B4",
"M 	c #C7BCB4",
"N 	c #D2C3B9",
"O 	c #DCD2C7",
"P 	c #E2DDCD",
"Q 	c #DCD6C7",
"R 	c #DAD7CB",
"S 	c #D3CEC2",
"T 	c #C4B8B0",
"U 	c #C6BDBC",
"V 	c #D6D4CD",
"W 	c #E1DCD3",
"X 	c #DDD9CC",
"Y 	c #CBC7BD",
"Z 	c #DDD9D0",
"` 	c #DFD9CD",
" .	c #E3E0D4",
"..	c #E9E3DB",
"+.	c #F0E9E3",
"@.	c #CED1CD",
"#.	c #D6D4CF",
"$.	c #DDD9D1",
"%.	c #DDDED6",
"&.	c #C5C2BB",
"*.	c #CFCAC3",
"=.	c #DCD2C6",
"-.	c #DCD6CC",
";.	c #E0E2DA",
">.	c #E9E5DC",
",.	c #E3DED0",
"'.	c #E1E3D9",
").	c #D3D3C9",
"!.	c #C8BEB8",
"~.	c #D2C6BC",
"{.	c #DFD7CB",
"].	c #DFD8CB",
"^.	c #DBD2C5",
"/.	c #DCD9CF",
"(.	c #DBD1C4",
"_.	c #D9CCC3",
":.	c #CDC4BC",
"<.	c #C5C3BF",
"[.	c #D7D5CC",
"}.	c #DED7CF",
"|.	c #D7D2C8",
"1.	c #D0CBC3",
"2.	c #E3E1D3",
"3.	c #E3E2D8",
"4.	c #E4E2D9",
"5.	c #EDE5E0",
"6.	c #BFC6C6",
"7.	c #C6CECC",
"8.	c #CDD2CF",
"9.	c #D8D7D4",
"0.	c #D5CDC9",
"a.	c #E0DCD1",
"b.	c #DBD2C6",
"c.	c #E0D9CC",
"d.	c #EBEBE4",
"e.	c #EBE9E1",
"f.	c #EBE3D9",
"g.	c #E9E4DB",
"h.	c #EAE4D8",
"i.	c #D1C7BC",
"j.	c #D7CAC1",
"k.	c #DAD4C7",
"l.	c #E0D9CA",
"m.	c #D9D0C4",
"n.	c #D0CAC7",
"o.	c #D2CAC3",
"p.	c #DBD5CB",
"q.	c #DAD5CB",
"r.	c #C7C3C0",
"s.	c #CDC7C5",
"t.	c #D2CEC9",
"u.	c #D0CBC2",
"v.	c #E0D8CD",
"w.	c #E4E3D9",
"x.	c #E9E2DC",
"y.	c #E6E4D8",
"z.	c #EAE4DC",
"A.	c #BAC4C2",
"B.	c #B8C6C9",
"C.	c #BBCBCC",
"D.	c #C6C9CA",
"E.	c #BBB7B6",
"F.	c #DBD1C7",
"G.	c #D9D1C5",
"H.	c #DBD4C7",
"I.	c #EFE7E1",
"J.	c #E8E3DB",
"K.	c #E3DED3",
"L.	c #E0DCD2",
"M.	c #E1D9CF",
"N.	c #DCD4C9",
"O.	c #D9D2C5",
"P.	c #E0D7C9",
"Q.	c #DAD3C7",
"R.	c #CFCBC5",
"S.	c #C3BDBD",
"T.	c #CAC3C0",
"U.	c #D2D1CC",
"V.	c #CACCCC",
"W.	c #C2C2C1",
"X.	c #D0CDC7",
"Y.	c #CFCBC4",
"Z.	c #CECCC3",
"`.	c #D8D5CC",
" +	c #E3E0D5",
".+	c #EAE3D5",
"++	c #E4E6DA",
"@+	c #E8E3D8",
"#+	c #C3CBC8",
"$+	c #BDCACB",
"%+	c #C0CDCB",
"&+	c #C8CCC8",
"*+	c #B5B2AC",
"=+	c #D2CABF",
"-+	c #E0DBCA",
";+	c #E5DFD3",
">+	c #EFE6DC",
",+	c #ECE9DF",
"'+	c #E7E3D9",
")+	c #DFD8CD",
"!+	c #DAD4C8",
"~+	c #DEDACE",
"{+	c #DACFC5",
"]+	c #E2DCD0",
"^+	c #D3D2CB",
"/+	c #C4C7C6",
"(+	c #BBBCC1",
"_+	c #BBBDC2",
":+	c #C6C7C7",
"<+	c #C5CBC9",
"[+	c #CACBCB",
"}+	c #D0CAC5",
"|+	c #D4D0C5",
"1+	c #DAD1C7",
"2+	c #E1DDD1",
"3+	c #E4E3D6",
"4+	c #E6E4DA",
"5+	c #E7E2D8",
"6+	c #C9D3D1",
"7+	c #D0D2D3",
"8+	c #D3D6D2",
"9+	c #D0CCC5",
"0+	c #D8D2C7",
"a+	c #DCD6CA",
"b+	c #E1DACD",
"c+	c #E9DED3",
"d+	c #EFE9E0",
"e+	c #F2EDE4",
"f+	c #EDE9E0",
"g+	c #E6E3D8",
"h+	c #ECE2D6",
"i+	c #E4DCD0",
"j+	c #DBD5CC",
"k+	c #DED4C7",
"l+	c #E4DCCE",
"m+	c #E1D8CA",
"n+	c #DDD7CC",
"o+	c #CCC9C6",
"p+	c #BCBDBE",
"q+	c #B8BCC2",
"r+	c #B7B9C0",
"s+	c #BEC4C7",
"t+	c #C5C8CA",
"u+	c #D1CCC8",
"v+	c #D9CABE",
"w+	c #D2C9C1",
"x+	c #E0DBD2",
"y+	c #E7E2D7",
"z+	c #E6E1D8",
"A+	c #E9E3D7",
"B+	c #C4D2CF",
"C+	c #C2C8C8",
"D+	c #CDCFCB",
"E+	c #CBCCC8",
"F+	c #DCDAD2",
"G+	c #E4E0D5",
"H+	c #E7E4DA",
"I+	c #E3DECE",
"J+	c #EBE3D7",
"K+	c #F0EDE1",
"L+	c #F2EFE3",
"M+	c #F0E9E2",
"N+	c #F0EAE2",
"O+	c #E7DED1",
"P+	c #E8E3D9",
"Q+	c #E5E1D3",
"R+	c #DFD4C7",
"S+	c #E2D7C9",
"T+	c #E7E3D8",
"U+	c #D8D4CA",
"V+	c #C7C1C0",
"W+	c #B6B9B8",
"X+	c #AFB2B4",
"Y+	c #B6B9BD",
"Z+	c #BEC0C0",
"`+	c #CEC4BA",
" @	c #CDC6C0",
".@	c #D8CEC6",
"+@	c #E0D7CE",
"@@	c #C3CDCB",
"#@	c #B9C2C4",
"$@	c #C7CBCB",
"%@	c #C9CBC7",
"&@	c #D0D0CE",
"*@	c #E7E5DB",
"=@	c #E8E4D9",
"-@	c #E0D5C7",
";@	c #EDE6DD",
">@	c #EEE8DF",
",@	c #EDE8DD",
"'@	c #EDE8DB",
")@	c #EAE1D7",
"!@	c #ECE4DE",
"~@	c #E8DFD3",
"{@	c #E2DBCD",
"]@	c #D9D4C7",
"^@	c #E3DFD3",
"/@	c #D2CAC5",
"(@	c #BFBAB8",
"_@	c #B1B4B1",
":@	c #BDBCBC",
"<@	c #C3BFBD",
"[@	c #CAC1B9",
"}@	c #CFC3BF",
"|@	c #CFC6BF",
"1@	c #CEC8C3",
"2@	c #D8CFC7",
"3@	c #DCD6CB",
"4@	c #E1DCD1",
"5@	c #C8D0D0",
"6@	c #BDC8C8",
"7@	c #C1C7C7",
"8@	c #CED2CF",
"9@	c #C5C3C1",
"0@	c #D5CFC9",
"a@	c #E6E1D7",
"b@	c #E4E3D7",
"c@	c #E6DFD2",
"d@	c #E7E1D7",
"e@	c #E8E1D9",
"f@	c #E9E3D8",
"g@	c #EAE2D7",
"h@	c #E9E0D5",
"i@	c #EDEBE0",
"j@	c #E7DECF",
"k@	c #EBE3D6",
"l@	c #DCD0C3",
"m@	c #DDD6CD",
"n@	c #D8D2C9",
"o@	c #CAC1BE",
"p@	c #BBB7B3",
"q@	c #BCBABC",
"r@	c #C5BCB8",
"s@	c #C9BEB8",
"t@	c #CABFBB",
"u@	c #C6BCB6",
"v@	c #CCC4BE",
"w@	c #D2C7C2",
"x@	c #DBD1C8",
"y@	c #CAD3D3",
"z@	c #BECACB",
"A@	c #C6D1D2",
"B@	c #CCCCCD",
"C@	c #C4C8C7",
"D@	c #DAD5D0",
"E@	c #E5DED3",
"F@	c #E4DFD3",
"G@	c #E7E3D4",
"H@	c #E5E1D5",
"I@	c #E6E3D4",
"J@	c #E9DDD1",
"K@	c #E8E5DB",
"L@	c #E9E0D3",
"M@	c #E3D7C9",
"N@	c #DCD4C7",
"O@	c #E3DBD0",
"P@	c #DED4C8",
"Q@	c #D5CDC5",
"R@	c #C4BDB6",
"S@	c #C0BBB6",
"T@	c #CDC5BF",
"U@	c #C9C0BC",
"V@	c #C8C1BE",
"W@	c #CEC5BF",
"X@	c #D2C8C0",
"Y@	c #DBD4CB",
"Z@	c #D7CFC5",
"`@	c #C4D0D2",
" #	c #BBC4C6",
".#	c #C9CED0",
"+#	c #CECECD",
"@#	c #D0CFCD",
"##	c #C4C1C1",
"$#	c #CDCAC8",
"%#	c #D7D3CF",
"&#	c #E1DBD0",
"*#	c #E6E2DA",
"=#	c #E4E1D6",
"-#	c #E6DFD5",
";#	c #E6E1D5",
">#	c #E4E1D1",
",#	c #E3E0D8",
"'#	c #E6DFD1",
")#	c #E5DCCD",
"!#	c #E0D6CB",
"~#	c #E3DBCD",
"{#	c #DAD4C9",
"]#	c #D6CAC2",
"^#	c #D7D0C5",
"/#	c #DED8CD",
"(#	c #DBD4C9",
"_#	c #D8CFC6",
":#	c #CBC2C0",
"<#	c #D0C2BD",
"[#	c #D5CEC6",
"}#	c #DED7CB",
"|#	c #C2CCCB",
"1#	c #C2C7CA",
"2#	c #D2D4D5",
"3#	c #CDCCCA",
"4#	c #D8D9D4",
"5#	c #C8C6C6",
"6#	c #C4C6C8",
"7#	c #C9C4C2",
"8#	c #D5D0C9",
"9#	c #DBD8D0",
"0#	c #E2E0D7",
"a#	c #E4E0D4",
"b#	c #E4DED5",
"c#	c #E5E1D4",
"d#	c #E2DDD4",
"e#	c #E6E2D6",
"f#	c #EDE4D7",
"g#	c #E5D9CA",
"h#	c #E7DFCF",
"i#	c #E4E1D3",
"j#	c #E0D7CC",
"k#	c #E0D8CE",
"l#	c #E5E0D3",
"m#	c #E1DFD5",
"n#	c #D2CCC7",
"o#	c #C9C0BB",
"p#	c #DAD0C6",
"q#	c #DED6CA",
"r#	c #D7CBC3",
"s#	c #BDC3C4",
"t#	c #B8B9BC",
"u#	c #CCCCCB",
"v#	c #D6D5CF",
"w#	c #DEE0D9",
"x#	c #D1CEC9",
"y#	c #C3C0BF",
"z#	c #C2BFBD",
"A#	c #CBC8C8",
"B#	c #DAD5CE",
"C#	c #E2DED6",
"D#	c #DED4C6",
"E#	c #D7CBBD",
"F#	c #D8C9BC",
"G#	c #DED2C4",
"H#	c #EEE2D6",
"I#	c #E5DED0",
"J#	c #E8E1D5",
"K#	c #E8E3D6",
"L#	c #E9E2D7",
"M#	c #E9E2DA",
"N#	c #E9E4DD",
"O#	c #ECE5DD",
"P#	c #D8D4CB",
"Q#	c #D4CCC3",
"R#	c #DED6C9",
"S#	c #E1DBCD",
"T#	c #D7D0C7",
"U#	c #C4CDCC",
"V#	c #C4C7C7",
"W#	c #D7D4D0",
"X#	c #DBD8CE",
"Y#	c #E0DAD1",
"Z#	c #DEDDD5",
"`#	c #C8C6C4",
" $	c #C6C4C3",
".$	c #C7C7CA",
"+$	c #D0CDCA",
"@$	c #D8D1C9",
"#$	c #DBD7CC",
"$$	c #D8CBC0",
"%$	c #E3DDCB",
"&$	c #E1D3C2",
"*$	c #E5DECE",
"=$	c #E7E3DA",
"-$	c #E8E2D9",
";$	c #ECE3DE",
">$	c #EFE7E3",
",$	c #F0EBE1",
"'$	c #EFEBE1",
")$	c #E0D9CF",
"!$	c #DDD4C8",
"~$	c #E2D9CD",
"{$	c #DED8CC",
"]$	c #C4CBCD",
"^$	c #C5C3C4",
"/$	c #D0C6BE",
"($	c #D0CDC8",
"_$	c #D7CFC9",
":$	c #E1DED3",
"<$	c #D2C9C2",
"[$	c #C7C8C8",
"}$	c #C6C4C6",
"|$	c #C4C2C3",
"1$	c #D7D0CB",
"2$	c #DEDACF",
"3$	c #DCD6CD",
"4$	c #E4DECF",
"5$	c #E6E1D4",
"6$	c #E9E2D1",
"7$	c #E4D7C4",
"8$	c #E6E0D3",
"9$	c #EAE0D3",
"0$	c #ECE7DE",
"a$	c #EDE3DC",
"b$	c #F2EFE4",
"c$	c #F1EFE8",
"d$	c #F1ECE4",
"e$	c #EEE7DE",
"f$	c #E0D9CD",
"g$	c #E0DAD2",
"h$	c #C1C9CB",
"i$	c #C2C4C6",
"j$	c #C9C7C6",
"k$	c #CDCAC6",
"l$	c #D0CDCB",
"m$	c #E0DBD1",
"n$	c #DAD3C8",
"o$	c #CECAC6",
"p$	c #C3C0C0",
"q$	c #C4C2C5",
"r$	c #CDC6C6",
"s$	c #DEDCD5",
"t$	c #EEE3D8",
"u$	c #E4DFD1",
"v$	c #E5DDCE",
"w$	c #ECE5DB",
"x$	c #EAE2D6",
"y$	c #E7DFD2",
"z$	c #E6DECD",
"A$	c #EADED2",
"B$	c #EBE2DA",
"C$	c #F1EBE0",
"D$	c #F2EBE2",
"E$	c #F4EDE4",
"F$	c #F4EADE",
"G$	c #F0E9DF",
"H$	c #E6DED3",
"I$	c #E9E3D6",
"J$	c #E7E5DE",
"K$	c #E4E0D8",
"L$	c #BCBFC5",
"M$	c #C2C0C0",
"N$	c #C9C8C9",
"O$	c #C8C6C8",
"P$	c #C9C7C8",
"Q$	c #D3CDC7",
"R$	c #E4DDD1",
"S$	c #D6CFC7",
"T$	c #CAC8C4",
"U$	c #C4C5C6",
"V$	c #CBC5C3",
"W$	c #DCD6CF",
"X$	c #EBE1D7",
"Y$	c #F0E9E1",
"Z$	c #F2EEE6",
"`$	c #E8E2D5",
" %	c #E7E3D7",
".%	c #E5DCCB",
"+%	c #E5E3D6",
"@%	c #EBDED0",
"#%	c #E6DED0",
"$%	c #EDE3DA",
"%%	c #EFE9E2",
"&%	c #F0E7DE",
"*%	c #E4DED1",
"=%	c #EFECE6",
"-%	c #C5C9C9",
";%	c #C0BFC1",
">%	c #C7C8C9",
",%	c #CDC8C3",
"'%	c #DFDBCF",
")%	c #D2CEC6",
"!%	c #CAC4C3",
"~%	c #DBD4CE",
"{%	c #F4E7DC",
"]%	c #EEE9E4",
"^%	c #F4EDE6",
"/%	c #EEEAE1",
"(%	c #E3DCD3",
"_%	c #E1D8CE",
":%	c #E1D9CC",
"<%	c #E1DACF",
"[%	c #E4E1D9",
"}%	c #EAE3DA",
"|%	c #E9E6D9",
"1%	c #EBE3D8",
"2%	c #EDEADD",
"3%	c #E4E3D8",
"4%	c #E4DED4",
"5%	c #ECE1D8",
"6%	c #EFE6DD",
"7%	c #EAE7DC",
"8%	c #D0CFCC",
"9%	c #CDCAC7",
"0%	c #CBC7C4",
"a%	c #D2D1D0",
"b%	c #D7CEC2",
"c%	c #D9D1C4",
"d%	c #DED2C6",
"e%	c #CDC5C4",
"f%	c #CAC6C4",
"g%	c #E5DED2",
"h%	c #EEE0D0",
"i%	c #EEE3D6",
"j%	c #F0E5D9",
"k%	c #F1EAE2",
"l%	c #F0ECE4",
"m%	c #EAE9E1",
"n%	c #E5E1D7",
"o%	c #DED7CD",
"p%	c #E0D7CD",
"q%	c #E1DAD2",
"r%	c #E8E3DA",
"s%	c #EDE8E0",
"t%	c #ECE3D7",
"u%	c #EFE4D9",
"v%	c #EEE9E0",
"w%	c #E2DED4",
"x%	c #EBE3DD",
"y%	c #F0EDE6",
"z%	c #D8D0C6",
"A%	c #E3E0D6",
"B%	c #DDDBD3",
"C%	c #DCD5C9",
"D%	c #D8CDC3",
"E%	c #DDD2C8",
"F%	c #CFCAC4",
"G%	c #C9C2C2",
"H%	c #DED4CC",
"I%	c #E4D8C7",
"J%	c #EADDCE",
"K%	c #E8E1D2",
"L%	c #EDE5DE",
"M%	c #E4DDD4",
"N%	c #E5E0D6",
"O%	c #E1DFD7",
"P%	c #DDD8D2",
"Q%	c #DED6CE",
"R%	c #E7DFD7",
"S%	c #F0E5DD",
"T%	c #F2E6DB",
"U%	c #EDE2D4",
"V%	c #EBE2D8",
"W%	c #ECE7DC",
"X%	c #EEECE4",
"Y%	c #CBC8C5",
"Z%	c #DCDBD3",
"`%	c #E1DBD1",
" &	c #DCD7CD",
".&	c #DDD8CF",
"+&	c #DDDAD2",
"@&	c #D4CDC5",
"#&	c #CEC7C4",
"$&	c #D7CABE",
"%&	c #DDD5CB",
"&&	c #CAC3BF",
"*&	c #C4C0C0",
"=&	c #D0C7C6",
"-&	c #E1D3C6",
";&	c #E2D7CA",
">&	c #E2DACD",
",&	c #E6E1D6",
"'&	c #EAE2D9",
")&	c #E7E1D8",
"!&	c #DDD7CF",
"~&	c #DBD4CC",
"{&	c #E0DDD3",
"]&	c #D7D0C6",
"^&	c #E3DBD1",
"/&	c #EEE4DA",
"(&	c #F5EADD",
"_&	c #ECE4DB",
":&	c #EDE3D8",
"<&	c #EEE7DD",
"[&	c #EDE6DC",
"}&	c #CCC7C5",
"|&	c #DAD3CD",
"1&	c #D5D4CF",
"2&	c #D8D3CB",
"3&	c #DED7CE",
"4&	c #D1CCC6",
"5&	c #D1C3BA",
"6&	c #DDCEC3",
"7&	c #D9D2C9",
"8&	c #DACDC2",
"9&	c #E4DACF",
"0&	c #E7E3D5",
"a&	c #ECE7DF",
"b&	c #EAE3D9",
"c&	c #E3DFD5",
"d&	c #DFD6C9",
"e&	c #E0D7CB",
"f&	c #E3DED1",
"g&	c #DBD6CA",
"h&	c #E1DACE",
"i&	c #EAE2D5",
"j&	c #F0E6D7",
"k&	c #E9E3D5",
"l&	c #E9E0D2",
"m&	c #E7DCCE",
"n&	c #ECE1D7",
"o&	c #EBE1DB",
"p&	c #CFC6C5",
"q&	c #D2CECB",
"r&	c #D4D0C8",
"s&	c #D8D1C8",
"t&	c #D2C9C4",
"u&	c #CFC7C4",
"v&	c #E1DFD3",
"w&	c #D7C8BF",
"x&	c #D5C4BB",
"y&	c #D9D3CA",
"z&	c #CBC3C0",
"A&	c #D0C2C2",
"B&	c #DCD3C9",
"C&	c #E4DAD1",
"D&	c #F2EEE4",
"E&	c #EFECE0",
"F&	c #EDE8DF",
"G&	c #E5E0D5",
"H&	c #EAE2DB",
"I&	c #E3D9CB",
"J&	c #E1D7CA",
"K&	c #E7E0D3",
"L&	c #E7E0D4",
"M&	c #DED4CA",
"N&	c #E1DCD2",
"O&	c #E4DACB",
"P&	c #CEC6C2",
"Q&	c #D6D0C9",
"R&	c #D6D0C6",
"S&	c #D6CBC5",
"T&	c #C9C3BF",
"U&	c #D0C7C4",
"V&	c #DDD5CE",
"W&	c #E1DFD4",
"X&	c #D2C7C3",
"Y&	c #D8CAC1",
"Z&	c #D2CBC4",
"`&	c #C7BFBF",
" *	c #D2C5C2",
".*	c #D6C9C4",
"+*	c #DCD1C7",
"@*	c #EFEADF",
"#*	c #F1ECE3",
"$*	c #F0E8DE",
"%*	c #EAE4DB",
"&*	c #E8E2DA",
"**	c #E1D9CE",
"=*	c #E4E0D3",
"-*	c #E0D7CA",
";*	c #E2DACF",
">*	c #C8C1BF",
",*	c #D4D1CA",
"'*	c #D1C6BF",
")*	c #CFC2B9",
"!*	c #D0C6BF",
"~*	c #CBC2BF",
"{*	c #CBC6C5",
"]*	c #DFD5CC",
"^*	c #E3DCCE",
"/*	c #D1C4BD",
"(*	c #E5DFD5",
"_*	c #CDC2BD",
":*	c #C8BEB9",
"<*	c #D3CBC6",
"[*	c #E6E4D7",
"}*	c #E2E1D5",
"|*	c #E3DDD5",
"1*	c #E3E0D9",
"2*	c #E3DDD2",
"3*	c #E1DED5",
"4*	c #DDD6C9",
"5*	c #DBD2C9",
"6*	c #D6CCC5",
"7*	c #E2D8CA",
"8*	c #E3DACF",
"9*	c #C2BCBA",
"0*	c #D1CDCA",
"a*	c #D7D4C9",
"b*	c #D6CABF",
"c*	c #D9CEC3",
"d*	c #D7CCC5",
"e*	c #CFC5BF",
"f*	c #C7BBB9",
"g*	c #CCC4C2",
"h*	c #E0DDD5",
"i*	c #EFE5DD",
"j*	c #DCD4CB",
"k*	c #DDD0C6",
"l*	c #ECE2D7",
"m*	c #DAD2C5",
"n*	c #CABEB9",
"o*	c #C9C2C0",
"p*	c #DBD3CB",
"q*	c #E2DED3",
"r*	c #E0DAD5",
"s*	c #DED6D1",
"t*	c #D9D6D1",
"u*	c #DEDAD5",
"v*	c #E0DED0",
"w*	c #DBD3C9",
"x*	c #DCD3CB",
"y*	c #E0DBCD",
"z*	c #E1D6CB",
"A*	c #BBBABB",
"B*	c #C1BFC0",
"C*	c #D7D0CA",
"D*	c #E1D8CB",
"E*	c #DDD5C9",
"F*	c #D9CEC4",
"G*	c #CCBFBB",
"H*	c #C4BCB7",
"I*	c #CFC4C2",
"J*	c #E7DFD6",
"K*	c #DBCFC5",
"L*	c #EADCCF",
"M*	c #E6DECE",
"N*	c #DCD7CA",
"O*	c #CFC4BD",
"P*	c #D3CCC9",
"Q*	c #DDD7CE",
"R*	c #DDD7D1",
"S*	c #DCD6D4",
"T*	c #DDD7D3",
"U*	c #D6D2D2",
"V*	c #CECBCD",
"W*	c #CECBC9",
"X*	c #D8D3CD",
"Y*	c #DCD7D1",
"Z*	c #D4CDC6",
"`*	c #ADA9AB",
" =	c #B7AEAB",
".=	c #BEB6B2",
"+=	c #D7CFC7",
"@=	c #E2D7CC",
"#=	c #DAD4CA",
"$=	c #C4BAB4",
"%=	c #BFB8B3",
"&=	c #D2CBCA",
"*=	c #DBCCC3",
"==	c #E2D2C5",
"-=	c #DFCDC0",
";=	c #DDD1C4",
">=	c #DAD2C8",
",=	c #C6BDBD",
"'=	c #D0CAC6",
")=	c #D4D0CC",
"!=	c #D5D1CF",
"~=	c #D5D0D2",
"{=	c #D2D3D5",
"]=	c #C9CDD4",
"^=	c #C3C6CA",
"/=	c #BEC2C8",
"(=	c #C2C1C8",
"_=	c #CFC9C8",
":=	c #9B9B9F",
"<=	c #939293",
"[=	c #A7A1A1",
"}=	c #CAC3C4",
"|=	c #DFD8D1",
"1=	c #D7D1C7",
"2=	c #CBC4C4",
"3=	c #CCC6C4",
"4=	c #C7C1C1",
"5=	c #CABFBE",
"6=	c #DFD8D0",
"7=	c #D6C8BF",
"8=	c #D0C0B4",
"9=	c #D6C6BC",
"0=	c #DACEC4",
"a=	c #CFC8C1",
"b=	c #C5BDBB",
"c=	c #C9C1BE",
"d=	c #CDC4C1",
"e=	c #CFCAC8",
"f=	c #CECBCB",
"g=	c #CBCCCD",
"h=	c #C5C9CA",
"i=	c #B8BEC7",
"j=	c #B7BBC2",
"k=	c #BEBEC4",
"l=	c #CAC5C6",
"m=	c #DED5CC",
"n=	c #DCD1C4",
"o=	c #9B9594",
"p=	c #908B8A",
"q=	c #9A9493",
"r=	c #B0A9A9",
"s=	c #D0C4C0",
"t=	c #C4BCBA",
"u=	c #B9B2B4",
"v=	c #BAB4B2",
"w=	c #C2B9B9",
"x=	c #C4BBB8",
"y=	c #CBC3BE",
"z=	c #DCD5CB",
"A=	c #C3BBB8",
"B=	c #C9BEB6",
"C=	c #DFD6CA",
"D=	c #D4C5BE",
"E=	c #D9CEC2",
"F=	c #DBD9CF",
"G=	c #CAC3BB",
"H=	c #BCB7B0",
"I=	c #B8AFAB",
"J=	c #BCB5B4",
"K=	c #CACBCC",
"L=	c #BDC1C5",
"M=	c #B4B8C3",
"N=	c #B2B6BF",
"O=	c #BDBDC0",
"P=	c #D0CCC6",
"Q=	c #D6CEC6",
"R=	c #D7D1CB",
"  . + @ # $ % & * = - ; > , ' ) ! ~ { ] ^ / ( _ : < [ } | 1 2 3 ",
"4 5 6 7 8 9 0 a b c d e f g h i j k l m n o p q r s t u v w x y ",
"z A B C D E F G H I J K L M N O P Q R ] S T U V W X Y Z `  ...+.",
"@.#.$.%.&.*.=.-.;.>.,.'.).!.~.{.].^./.(._.:.<.[.}.|.1.2.3.4.: 5.",
"6.7.8.9.0.a.b.c.d.e.f.g.h.i.j.k.l.m.n.o.p.q.r.s.t.E u.v.w.x.y.z.",
"A.B.C.D.E.F.G.H.I.J.K.L.M.N.9 O.P.Q.R.S.T.U.V.W.X.Y.Z.`. +.+++@+",
"#+$+%+&+*+=+-+;+>+,+'+)+!+~+{+l.]+m.^+/+(+_+:+<+[+}+|+1+2+3+4+5+",
"6+7+8+9+0+a+b+c+d+e+f+g+h+i+j+k+l+m+n+o+p+q+r+s+t+u+v+w+x+y+z+A+",
"B+C+D+E+F+G+H+I+J+K+L+M+N+O+P+Q+R+S+T+U+V+W+X+Y+Z+/ `+ @.@+@s G+",
"@@#@$@%@&@$.*@=@-@;@>@,@'@)@!@~@{@]@^@2+/@(@_@:@<@[@}@|@1@2@3@4@",
"5@6@7@8@9@0@a@b@c@d@e@f@g@h@i@j@k@l@m@]+n@o@p@q@r@s@t@u@v@w@x@-.",
"y@z@A@B@C@:+D@$ E@F@G@H@I@J@K@L@M@N@O@P@m+Q@R@S@T@! U@V@W@X@Y@Z@",
"`@ #.#+#@###$#%#&#*#=#-#;#>#,#;#'#)#;#!#~#{#]#^#/#(#_#:#<#[#}#H.",
"|#1#2#3#4#5#6#7#8#9#0#a#b#c#d#e#f#g#h#y i#j#k#G+-#l#m#n#o#p#q#r#",
"s#t#u#v#w#x#y#z#A#B#C#K.D#E#F#G#H#I#J#K#e#L#M#a@N#O#E@P#Q#R#S#T#",
"U#V#W#X#Y#Z#`# $.$+$@$c.#$$$~#%$&$*$=$-$h.;$r >$,$'$i@)$!$~$ .{$",
"]$^$/$($_$:$<$[$}$|$1$2$J#3$4$5$6$7$8$9$0$a$r b$c$d$e$.+E@f$g$m+",
"h$i$j$k$l$m$n$o$p$q$r$s$t$>.u$v$g@w$x$y$z$A$B$C$D$E$F$G$H$I$J$K$",
"L$M$N$O$P$Q$R$S$T$U$V$W$X$Y$Z$=$`$ %.%;++%)@@%#%$%%%>+&%;@f@*%=%",
"-%;%>%u#,%]#&$'%)%7#!%~%H#{%]%^%/%(%_%:%<%[%}%|%1%2%3%4%5%6%7%M+",
"8%9%0%a%b%c%k+d%n@e%f%8#g%h%i%j%k%l%m%n%o%p%q%r%s%t%u%v%w%x%w$y%",
"<$z%1+0+A%B%C%D%E%F%G%r$H%I%J%K%..L%)@M%N%O%P%Q%R%S%T%U%V%y W%X%",
"Y%Z%`% &.&+&@&#&$&%&&&*&=&-&;&>&,&'&)&!&~&{&4.]&^&/&(&_&:&<&[&f@",
"}&|&1&`.2&3&#$4&5&6&7&f%o@8&9&0&L#a&b&c&d&e&f&g&h&i&j&k&l&m&n&o&",
"p&q&r&s&t&u&g$v&S$w&x&y&z&A&B&C&g.D&E&F&G&b+H&I&J&K&L&i+M&N&O&*%",
"P&Q&R&e&S&T&U&V&W&_#X&Y&Z&`& *.*+*@*#*$*%*&*5+**e&=*_%=.r#-*;*B ",
">*,*-.'*)*!*~*{*]*^*3$/*(*7&_*:*<*b#[*}*|*4.1*2*3*`%4*5*6*k+7*8*",
"9*0*a*b*c*d*e*f*g*h*i*j*k*l*m*n*o*p*q*K.r*C#s*t*%#u*v*].w*x*y*z*",
"A*B*C*D*E*a+F*G*H*I*J*G+K*L*M*N*O*P*Q*R*S*T*U*V*[$W*X*Y*R#Z*{.(#",
"`* =.=+=@=#=Q%H $=%=&=z+*===-=;=>=,='=)=!=~={=]=^=/=(=_=2&q#a R#",
":=<=[=}=|=1=V$2=3=4=5=6=b 7=8=9=0=a=b=c=d=e=f=g=h=i=j=k=l=m=n=R#",
"o=p=q=r=s=S$t=u=v=w=x=y=z=A=B=C=D=E=F=G=H=I=J=p$K=L=M=N=O=P=Q=R="};
