/* XPM */
static char * wall_2_xpm[] = {
"32 32 48 1",
" 	c None",
".	c #FFFFFF",
"+	c #FCFFFF",
"@	c #EFFFFF",
"#	c #F3FFFF",
"$	c #EDFDFD",
"%	c #E3F3F3",
"&	c #E9F6F6",
"*	c #EEFEFC",
"=	c #F2FFFF",
"-	c #FEFFFF",
";	c #FBFFFF",
">	c #FEFEFE",
",	c #E4F4F4",
"'	c #EAF6F6",
")	c #E5E5E5",
"!	c #F9FDFD",
"~	c #CCDBDB",
"{	c #EEFEFE",
"]	c #ECFCFC",
"^	c #CDDCDC",
"/	c #E6F6F6",
"(	c #D7EBEC",
"_	c #F0FFFF",
":	c #FBFEFE",
"<	c #E7F6F6",
"[	c #D6EBEB",
"}	c #CCE1E2",
"|	c #FAFDFD",
"1	c #F9FCFC",
"2	c #E4F3F3",
"3	c #E8F6F6",
"4	c #F6FDFD",
"5	c #FAFFFF",
"6	c #D7E6E6",
"7	c #D6E5E5",
"8	c #CDE2E3",
"9	c #E6EBEC",
"0	c #FAFAFA",
"a	c #F7FAFA",
"b	c #EAFAFA",
"c	c #E8F8F8",
"d	c #DEEEEE",
"e	c #E1F1F1",
"f	c #EEFAFA",
"g	c #F4F8F8",
"h	c #E4F1F1",
"i	c #E0E0E0",
".....+@#...+@#.....+@@@$%%%&...*",
".....+@=---;@=>>>-.+@@@$%%,'..>)",
".....+@@@@@@@$%%%&.+@@@$%&...!%~",
"--..-;{{{@@@@$%%,'-;@@{],'..-!,^",
"@#.+@$%%%/@@@$%&.+@@@$%&...+@@@(",
"_#>:{]%%,<_@{],'.+@@@$%&...+@@{[",
".!%%%%%&...!%&...+@@@$%&...+@$%}",
".|,,,,,'--.!%&..-;@@{],'..-;@$%~",
"...+@@@@@#.!%&.+@@@$%&...+@@@$%~",
"---;@@@@{=.|,'.+{@@$%&>--;@@@$%~",
"@@@@@@@$%&.....!%/@$%%%/@@@@@$%~",
"_@{{{{{],'-->-.!%/{]%%,<@@@@{]%~",
".!%%%%%&.+@$%&.!%%%%%&.+@@@$%%%}",
".|,,,,,'-;@$,'>1,,,2%&>;__@$,%%}",
"...+@@@@@@@@@$%&...!%%%&.+@@@$%}",
"..-;@@@@{{{{{]%&...!,2%&.+__@$%~",
".+@@@@@$%%%%%%%3;;;;;4%&...+@$%~",
"-;@@@@_$,,,,,,,&555554%&..>:{]%~",
"@@@@@#.......+@@@@@@@$%&.!%%%%%~",
"_____#>------;@@@@@@{],'.!,,,%%~",
".....!%/@@@@@@@@@@@$%&...+@@@$%}",
"..>>>1,/@@@@{{{{{{{]%&..-;@@{]%}",
".!%%%/@@@@@$%%%%%%%%%&.+@@@$%%%}",
"-!,,,/{{{{{],,,,,,,,,'>:{{{]%%%~",
"@#.+@$%%%%%/@#.....+@$%%%%%%%%%~",
"@=-;@$%%,,,/@=>-..-;@$%%,,,,,,,^",
"@@@@@$%/@@@@@$%&.+@@@$%&...+@@@6",
"__@@_$%/{{{{{],'.+___$,'..-;@@{7",
".+@#.!%%%%%%%&...........+@@@$%}",
".+_#.!,,,%%%%&>>>>>---..>;@@{],8",
".....+@@@$%%%%%%%%%/@#.!%/@$%&.9",
"00000abbbcdddddddddebf0gdebcdh0i"};
