/* XPM */
static char * wall_E_xpm[] = {
"32 32 211 2",
"  	c None",
". 	c #F8C098",
"+ 	c #F6BC93",
"@ 	c #F5BC93",
"# 	c #F6BC92",
"$ 	c #F5BD93",
"% 	c #F6BD93",
"& 	c #F5BC92",
"* 	c #F3B78C",
"= 	c #F3B88C",
"- 	c #F3B78D",
"; 	c #F2B78D",
"> 	c #F2B78C",
", 	c #F2B88D",
"' 	c #F2B88C",
") 	c #F3B88D",
"! 	c #EFB286",
"~ 	c #F0B285",
"{ 	c #F0B386",
"] 	c #F0B286",
"^ 	c #F0B385",
"/ 	c #EFB285",
"( 	c #EFB385",
"_ 	c #EFB386",
": 	c #ECAE7F",
"< 	c #ECAE80",
"[ 	c #EDAE7F",
"} 	c #ECAD7F",
"| 	c #EDAD7F",
"1 	c #E9A979",
"2 	c #EAA879",
"3 	c #E9A978",
"4 	c #E9A879",
"5 	c #EAA979",
"6 	c #EAA978",
"7 	c #E6A472",
"8 	c #E6A473",
"9 	c #E7A472",
"0 	c #E6A373",
"a 	c #E39F6C",
"b 	c #E39F6D",
"c 	c #6D4A30",
"d 	c #000000",
"e 	c #B88056",
"f 	c #E3A06C",
"g 	c #E3A06D",
"h 	c #DF9B67",
"i 	c #E09A67",
"j 	c #E09B66",
"k 	c #E09B67",
"l 	c #6C482E",
"m 	c #B57D52",
"n 	c #DF9B66",
"o 	c #E09A66",
"p 	c #DC9661",
"q 	c #DD9761",
"r 	c #DD9661",
"s 	c #DD9760",
"t 	c #6A462B",
"u 	c #B3794D",
"v 	c #DC9660",
"w 	c #DD9660",
"x 	c #DC9760",
"y 	c #D9925B",
"z 	c #DA925B",
"A 	c #D9935B",
"B 	c #DA935B",
"C 	c #684428",
"D 	c #7A5030",
"E 	c #D78E56",
"F 	c #D78E55",
"G 	c #D68E56",
"H 	c #D68E55",
"I 	c #674125",
"J 	c #784E2C",
"K 	c #D68D55",
"L 	c #D78D56",
"M 	c #D68D56",
"N 	c #D38950",
"O 	c #D48A50",
"P 	c #D38A50",
"Q 	c #663F22",
"R 	c #764B29",
"S 	c #D38A51",
"T 	c #D48950",
"U 	c #D0864B",
"V 	c #D0854B",
"W 	c #D1864B",
"X 	c #D0854A",
"Y 	c #643D20",
"Z 	c #744926",
"` 	c #D1854A",
" .	c #D0864A",
"..	c #D1854B",
"+.	c #CD8145",
"@.	c #CD8246",
"#.	c #CD8245",
"$.	c #CD8146",
"%.	c #623C1D",
"&.	c #3C220E",
"*.	c #CA7D41",
"=.	c #CA7D40",
"-.	c #CA7E41",
";.	c #CA7E40",
">.	c #603A1A",
",.	c #3B210C",
"'.	c #C97D40",
").	c #C77A3C",
"!.	c #C77A3B",
"~.	c #C67A3B",
"{.	c #C7793B",
"].	c #5E3818",
"^.	c #3A200B",
"/.	c #C7793C",
"(.	c #C47637",
"_.	c #C47537",
":.	c #C47636",
"<.	c #C37637",
"[.	c #5D3515",
"}.	c #6D3F1A",
"|.	c #C47536",
"1.	c #C37636",
"2.	c #C37536",
"3.	c #C37537",
"4.	c #C17231",
"5.	c #C07231",
"6.	c #C17232",
"7.	c #C07232",
"8.	c #5C3413",
"9.	c #6B3D18",
"0.	c #C17332",
"a.	c #BE6E2D",
"b.	c #BE6F2D",
"c.	c #BD6F2E",
"d.	c #BE6F2E",
"e.	c #BE6E2E",
"f.	c #5A3210",
"g.	c #693B15",
"h.	c #BD6E2D",
"i.	c #BD6E2E",
"j.	c #BD6F2D",
"k.	c #BA6B29",
"l.	c #BB6A28",
"m.	c #BA6A29",
"n.	c #BB6B29",
"o.	c #58300E",
"p.	c #683812",
"q.	c #BA6B28",
"r.	c #BA6A28",
"s.	c #B76724",
"t.	c #B86725",
"u.	c #B86824",
"v.	c #B86724",
"w.	c #B76824",
"x.	c #572E0C",
"y.	c #66370F",
"z.	c #B76725",
"A.	c #B46420",
"B.	c #B46421",
"C.	c #562C0A",
"D.	c #703C11",
"E.	c #B56421",
"F.	c #B56321",
"G.	c #B1611C",
"H.	c #B1601C",
"I.	c #B1601D",
"J.	c #542A08",
"K.	c #6E3A0D",
"L.	c #B1611D",
"M.	c #AE5D18",
"N.	c #AE5D19",
"O.	c #522906",
"P.	c #6C380B",
"Q.	c #AE5E18",
"R.	c #AD5D18",
"S.	c #AB5914",
"T.	c #AA5A15",
"U.	c #AB5A15",
"V.	c #AB5A14",
"W.	c #AA5A14",
"X.	c #A85711",
"Y.	c #A85611",
"Z.	c #A75710",
"`.	c #A75711",
" +	c #A85710",
".+	c #A5530D",
"++	c #A4530D",
"@+	c #A5540E",
"#+	c #A4540D",
"$+	c #A5540D",
"%+	c #A4540E",
"&+	c #A4530E",
"*+	c #A1510A",
"=+	c #A15109",
"-+	c #A25009",
";+	c #A25109",
">+	c #A2500A",
",+	c #A1500A",
"'+	c #A15009",
")+	c #A2510A",
"!+	c #9F4D06",
"~+	c #9E4E06",
"{+	c #9E4E07",
"]+	c #9E4D06",
"^+	c #9E4D07",
"/+	c #9C4B03",
"(+	c #9B4B03",
"_+	c #9B4A03",
":+	c #9B4B04",
"<+	c #9C4A03",
"[+	c #984800",
". . . . . . . . . . . . . . . . . . . . . . . . . . . . . . . . ",
"+ @ @ @ + + @ + + @ + + + + + # $ + @ + @ # % + + + + + @ + & @ ",
"* * = * = - * ; > ; * * > * > * > > > > ; , > ' * ; * * , > ) * ",
"! ~ { { ] ] ] ! ! ^ ] / ~ { ] ^ / { ^ / ! / ! / ! ( ~ _ / / / { ",
": < [ } } } } [ } [ [ [ | [ } | } : : [ } } } } } : : } | [ < : ",
"1 1 2 3 1 1 4 1 4 1 4 1 3 1 3 1 5 4 4 1 1 1 4 1 6 1 4 1 4 2 3 1 ",
"7 7 8 8 7 8 8 7 8 8 8 7 8 8 8 8 8 8 8 8 8 8 8 7 9 8 8 8 7 0 8 8 ",
"a b a b b a b a a c d d d d d d d d d d d e f a a f f g f b g b ",
"h i j k i j h h j l d d d d d d d d d d d m n j j j j o h k j k ",
"p q r s p r p r p t d d d d d d d d d d d u q q p r v w r r x p ",
"y z A z y A y z B C d d d D y z y y z y z y z A z z y y z z z y ",
"E E E F G G G F H I d d d J K H L G F H F H H G F G L G H M H K ",
"N O P P P N P N P Q d d d R P P P N P P N P P P N S N O O O T P ",
"U V V W U V U X X Y d d d Z X X ` V V  .V W U ..V U ..V V U  .U ",
"+.@.+.+.+.+.#.@.$.%.d d d d d d d d d d &.$.$.@.+.$.@.@.+.+.+.$.",
"*.=.-.*.=.;.-.-.;.>.d d d d d d d d d d ,.'.-.*.-.;.=.=.=.*.;.=.",
").!.!.).~.!.{.{.{.].d d d d d d d d d d ^.{./.)./.).).!.).{.).).",
"(._.:.:.<.:.(._.<.[.d d d }.|.1.(.(.<.<.:.<.2.:._.(.3.(.:.:.2.<.",
"4.5.6.7.6.7.6.7.6.8.d d d 9.6.6.6.6.6.7.6.7.6.7.7.6.6.5.0.5.6.5.",
"a.b.c.d.d.b.a.a.e.f.d d d g.h.a.b.b.a.a.a.i.j.h.e.e.a.h.b.a.h.b.",
"k.k.k.l.k.m.k.k.n.o.d d d p.m.n.q.k.n.k.k.q.n.k.k.m.k.k.k.k.r.k.",
"s.t.u.s.v.w.s.u.s.x.d d d y.w.t.v.z.s.u.z.s.z.s.s.z.z.s.z.u.z.s.",
"A.A.B.B.B.A.B.B.B.C.d d d d d d d d d d d D.B.A.A.E.F.B.B.A.B.B.",
"G.H.H.I.G.H.I.H.H.J.d d d d d d d d d d d K.H.L.H.H.L.L.G.H.G.H.",
"M.M.M.N.N.M.M.M.M.O.d d d d d d d d d d d P.M.M.Q.M.Q.N.Q.M.M.R.",
"S.T.U.U.V.V.V.U.U.U.W.V.V.W.V.U.V.V.U.V.V.T.U.V.U.W.W.U.U.U.U.V.",
"X.X.X.Y.Z.`.`.X.X.`.X.X.`.Z.`.X.X.X. +X.Z.X.Z.X.Y.Y.`.X.Y.`.`. +",
".+++@+.+@+#+#+++#+$+#+#+$+%+#+#+.+.+#+.+#+++$+&+$+#+.+#+#+.+++#+",
"*+=+=+-+;+*+*+=+*+*+=+-+;+=+*+>+-+,+,+'+>+)+)+*+,+)+*+*+;+>+*+,+",
"!+~+{+~+~+{+{+]+~+~+~+~+!+~+~+~+~+^+~+~+~+{+]+~+~+]+]+]+~+~+{+~+",
"/+(+(+_+(+(+/+:+_+(+_+(+(+(+_+(+:+/+(+_+(+(+(+(+(+<+(+(+(+:+_+_+",
"[+[+[+[+[+[+[+[+[+[+[+[+[+[+[+[+[+[+[+[+[+[+[+[+[+[+[+[+[+[+[+[+"};
