/* XPM */
static char * wall_1_xpm[] = {
"32 32 203 2",
"  	c None",
". 	c #75B44B",
"+ 	c #77B64D",
"@ 	c #74B34A",
"# 	c #67A63D",
"$ 	c #70AF46",
"% 	c #609F36",
"& 	c #6DAC43",
"* 	c #7FBE55",
"= 	c #6CAB42",
"- 	c #6BAA41",
"; 	c #68A73E",
"> 	c #6AA940",
", 	c #63A239",
"' 	c #62A138",
") 	c #539229",
"! 	c #519027",
"~ 	c #6CAA42",
"{ 	c #6EAD44",
"] 	c #76B54C",
"^ 	c #77B44C",
"/ 	c #6AA73F",
"( 	c #6AA740",
"_ 	c #6EA744",
": 	c #61A037",
"< 	c #7CBB52",
"[ 	c #7AB750",
"} 	c #70AD45",
"| 	c #70AC45",
"1 	c #69A83F",
"2 	c #64A33A",
"3 	c #55942C",
"4 	c #54932A",
"5 	c #8AB959",
"6 	c #81B050",
"7 	c #83B252",
"8 	c #593D28",
"9 	c #92C161",
"0 	c #93C262",
"a 	c #90BF5F",
"b 	c #76B44B",
"c 	c #78B64E",
"d 	c #6BA541",
"e 	c #8CBB5B",
"f 	c #7FAF4E",
"g 	c #81B151",
"h 	c #6AA840",
"i 	c #629C38",
"j 	c #90C160",
"k 	c #91C261",
"l 	c #79B54E",
"m 	c #78B54D",
"n 	c #639D38",
"o 	c #619B37",
"p 	c #6BA941",
"q 	c #6AA540",
"r 	c #8DBC5C",
"s 	c #583927",
"t 	c #9DCC6B",
"u 	c #9CCB6B",
"v 	c #64A43A",
"w 	c #65A43B",
"x 	c #71B047",
"y 	c #594029",
"z 	c #75B24A",
"A 	c #80BF56",
"B 	c #91C161",
"C 	c #97C666",
"D 	c #5E502F",
"E 	c #58932E",
"F 	c #58972E",
"G 	c #5A4F2A",
"H 	c #8AB659",
"I 	c #5A3F31",
"J 	c #5B4232",
"K 	c #98C568",
"L 	c #98C467",
"M 	c #649E39",
"N 	c #649F3A",
"O 	c #6FAA45",
"P 	c #73B149",
"Q 	c #73B24A",
"R 	c #7DB853",
"S 	c #7DB953",
"T 	c #8FBF5F",
"U 	c #93BF62",
"V 	c #93BF63",
"W 	c #615030",
"X 	c #5C3F2A",
"Y 	c #588E2D",
"Z 	c #58922E",
"` 	c #609A35",
" .	c #609B36",
"..	c #5D4F2B",
"+.	c #6C6C6D",
"@.	c #6C6C6C",
"#.	c #593C26",
"$.	c #72B148",
"%.	c #609E36",
"&.	c #594328",
"*.	c #6DAA43",
"=.	c #5A492A",
"-.	c #775539",
";.	c #79563A",
">.	c #765438",
",.	c #5F422B",
"'.	c #6D6B6A",
").	c #6D6B69",
"!.	c #5F412A",
"~.	c #64452E",
"{.	c #63452E",
"].	c #71AC46",
"^.	c #5F412B",
"/.	c #5C3F29",
"(.	c #5F9935",
"_.	c #609B35",
":.	c #594228",
"<.	c #6CA542",
"[.	c #6DA843",
"}.	c #5B4B31",
"|.	c #5A4230",
"1.	c #61432D",
"2.	c #5A3D28",
"3.	c #976C4A",
"4.	c #B9855D",
"5.	c #583C28",
"6.	c #5A3E28",
"7.	c #6B6A6A",
"8.	c #78583F",
"9.	c #956B49",
"0.	c #61432C",
"a.	c #966B49",
"b.	c #775439",
"c.	c #B8845C",
"d.	c #B7845C",
"e.	c #5A3E29",
"f.	c #5B3F29",
"g.	c #785539",
"h.	c #6A6867",
"i.	c #78573E",
"j.	c #946A48",
"k.	c #62442D",
"l.	c #7B573B",
"m.	c #7E593D",
"n.	c #583D28",
"o.	c #986C4A",
"p.	c #78553A",
"q.	c #B4815A",
"r.	c #7D593C",
"s.	c #5B3E29",
"t.	c #966C4A",
"u.	c #7A5940",
"v.	c #60422C",
"w.	c #7A573B",
"x.	c #B3805A",
"y.	c #878787",
"z.	c #B8855D",
"A.	c #7C583B",
"B.	c #B7835C",
"C.	c #7E5A3D",
"D.	c #7C583C",
"E.	c #946A49",
"F.	c #888686",
"G.	c #888685",
"H.	c #B6835B",
"I.	c #966B4A",
"J.	c #BA855D",
"K.	c #7B583B",
"L.	c #956A49",
"M.	c #7A573A",
"N.	c #B8845D",
"O.	c #78563A",
"P.	c #5E412B",
"Q.	c #946948",
"R.	c #5C402A",
"S.	c #7A563A",
"T.	c #5D402A",
"U.	c #583C27",
"V.	c #805B3E",
"W.	c #B6825B",
"X.	c #805C3F",
"Y.	c #79573B",
"Z.	c #898583",
"`.	c #7A5C47",
" +	c #888583",
".+	c #6D6C6B",
"++	c #966C4B",
"@+	c #936948",
"#+	c #6D6C6C",
"$+	c #B5825B",
"%+	c #986D4A",
"&+	c #745843",
"*+	c #B6835C",
"=+	c #9A6E4C",
"-+	c #573C27",
";+	c #60432C",
">+	c #9A6F4C",
",+	c #7C593C",
"'+	c #563B27",
")+	c #573B27",
"!+	c #BA865E",
"~+	c #795538",
"{+	c #79573C",
". . + + @ @ # # # # $ $ % % & & * * + + = - ; ; > > , ' ) ! ~ { ",
". . ] ] ^ ^ / / ( ( _ _ : : = = < < [ [ } | > 1 1 1 2 , 3 4 ~ { ",
"] ] & & 5 5 6 6 7 7 8 8 1 1 , , % % 9 0 a a b @ , ' = & ; ; = = ",
"c c d d e e f f g g 8 8 h > i i ' ' j k a a l m n o p - ; # q q ",
"r r s 8 t u v w > > 8 8 x x y 8 z . A A B 9 C C D 8 E F % : G 8 ",
"H H I J K L M N - - 8 8 O O y 8 P Q R S T a U V W X Y Z `  ...X ",
"8 8 +.@.#.8 8 8 $.$.8 8 8 8 8 8 %.% &.8 *.{ =.8 -.;.X 8 8 8 >.;.",
",.,.'.).!.,.~.{.].].^.,././././.(._.:.8 <.[.}.|.-.;.1.,.2.8 >.;.",
"3.3.;.;.3.3.4.4.5.8 3.3.;.;.;.;.6.8 8 8 8 8 7.@.8.;.9.3.0.8 >.;.",
"a.a.b.-.3.3.c.d.e.f.3.3.g.-.-.-.6.8 f.f.f.f.h.7.i.;.j.a.k.f.l.m.",
";.;.n.8 o.3.3.3.;.;.3.3.8 8 8 8 8 8 p.;.;.;.f.8 -.;.;.;.;.;.q.4.",
"r.r.e.s.t.a.a.a.u.u.a.a.f.s.v.v.v.v.p.;.r.r.k.v.g.;.w.l.;.;.x.c.",
"4.4.g.;.;.;.;.;.y.y.;.;.;.;.z.4.4.4.A.;.B.4.4.4.C.;.9.3.D.;.E.3.",
"d.d.g.;.D.D.D.D.F.G.w.w.;.;.B.d.c.c.l.g.H.c.c.c.C.;.j.I.r.w.E.3.",
";.;.;.;.J.4.4.4.3.3.3.3.;.;.;.;.t.3./.8 9.3.3.3.K.;.;.;.L.3.3.3.",
"M.M.;.;.z.c.N.N.I.t.3.3.;.;.O.p.a.t.P.f.9.3.t.t.K.;.;.;.Q.a.I.t.",
"3.3.;.;.;.;.3.3.;.;.3.3.;.;.8 8 O.;.I.3.3.3.l.;.;.;.;.;.R.8 >.;.",
"3.3.;.S.;.;.3.3.;.;.I.I.;.;.e.2.O.;.a.3.3.3.l.;.w.w.w.w.T.2.b.S.",
";.;.3.3.U.8 ;.;.;.;.8 8 8 8 ;.;.;.;.;.;.;.;.;.;.H.4.4.4.V.;.E.3.",
";.;.3.3.5.8 w.M.M.M.8 8 e.e.;.;.;.;.S.M.M.M.;.;.W.4.4.4.X.Y.E.3.",
";.;.3.3.;.;.4.4.4.4.;.;.4.4.3.3.s.8 d.4.4.4.1.8 j.3.3.3.Z.y.`.;.",
";.;.3.3.;.;.4.4.4.4.;.;.4.4.3.3.f.8 B.4.4.4.1.8 j.3.3.3. +y.`.;.",
"3.3.;.;.;.;.3.3.3.3.4.4.;.;.3.3..+@.++3.3.3.l.;.f.8 @+3.D.;.T.8 ",
"3.3.;.;.;.;.3.3.3.3.4.4.;.;.3.3.#+@.++3.3.3.l.;.f.8 Q.3.A.;.R.n.",
";.;.n.8 o.3.;.;.3.3.3.3.4.4.w.;.;.;.;.;.;.;.;.;.;.;.;.;.$+4.4.4.",
";.;.U.n.%+3.;.;.3.3.3.3.4.4.M.;.;.;.;.;.O.O.;.;.;.;.O.O.$+4.4.4.",
";.;.3.3.;.;.;.;.&+&+;.;.3.3.3.3.M.;.e.8 *+4.1.8 -.;.$+4.=+3.3.3.",
";.;.o.3.;.;.p.p.&+&+;.;.3.3.3.3.;.p.8 -+B.J.;+U.-.;.H.J.>+3.3.3.",
"3.3.;.;.8 8 J.4.;.;.8 8 ;.;.8 8 c.4.4.4.,+;.a.3.K.;.;.;.L.3.3.3.",
"3.3.;.;.'+)+!+4.p.;.8 8 ~+~+8 8 c.4.4.4.,+;.a.3.l.;.;.;.L.3.o.o.",
"3.3.;.;.J.4.3.3.3.3.;.;.y.y.{+;.t.3.3.3.w.;.;.;.9.3.3.3.D.;.T.8 ",
"3.3.;.;.J.4.3.3.3.3.;.;.y.y.{+;.t.3.3.3.w.;.;.;.9.3.3.3.D.;.T.8 "};
